<svg width="61" height="37" viewBox="0 0 61 37" fill="none" xmlns="http://www.w3.org/2000/svg">
<path d="M61 0H0V37H61V0Z" fill="#224E73"/>
<path d="M9.41477 23H8.30682L11.5114 14.2727H12.6023L15.8068 23H14.6989L12.0909 15.6534H12.0227L9.41477 23ZM9.82386 19.5909H14.2898V20.5284H9.82386V19.5909ZM19.6889 23.1364C19.0753 23.1364 18.5469 22.9915 18.1037 22.7017C17.6605 22.4119 17.3196 22.0128 17.081 21.5043C16.8423 20.9957 16.723 20.4148 16.723 19.7614C16.723 19.0966 16.8452 18.5099 17.0895 18.0014C17.3366 17.4901 17.6804 17.0909 18.1207 16.804C18.5639 16.5142 19.081 16.3693 19.6719 16.3693C20.1321 16.3693 20.5469 16.4545 20.9162 16.625C21.2855 16.7955 21.5881 17.0341 21.8239 17.3409C22.0597 17.6477 22.206 18.0057 22.2628 18.4148H21.2571C21.1804 18.1165 21.0099 17.8523 20.7457 17.6222C20.4844 17.3892 20.1321 17.2727 19.6889 17.2727C19.2969 17.2727 18.9531 17.375 18.6577 17.5795C18.3651 17.7812 18.1364 18.0668 17.9716 18.4361C17.8097 18.8026 17.7287 19.233 17.7287 19.7273C17.7287 20.233 17.8082 20.6733 17.9673 21.0483C18.1293 21.4233 18.3565 21.7145 18.6491 21.9219C18.9446 22.1293 19.2912 22.233 19.6889 22.233C19.9503 22.233 20.1875 22.1875 20.4006 22.0966C20.6136 22.0057 20.794 21.875 20.9418 21.7045C21.0895 21.5341 21.1946 21.3295 21.2571 21.0909H22.2628C22.206 21.4773 22.0653 21.8253 21.8409 22.1349C21.6193 22.4418 21.3253 22.6861 20.9588 22.8679C20.5952 23.0469 20.1719 23.1364 19.6889 23.1364ZM26.5795 16.4545V17.3068H23.1875V16.4545H26.5795ZM24.1761 14.8864H25.1818V21.125C25.1818 21.4091 25.223 21.6222 25.3054 21.7642C25.3906 21.9034 25.4986 21.9972 25.6293 22.0455C25.7628 22.0909 25.9034 22.1136 26.0511 22.1136C26.1619 22.1136 26.2528 22.108 26.3239 22.0966C26.3949 22.0824 26.4517 22.071 26.4943 22.0625L26.6989 22.9659C26.6307 22.9915 26.5355 23.017 26.4134 23.0426C26.2912 23.071 26.1364 23.0852 25.9489 23.0852C25.6648 23.0852 25.3864 23.0241 25.1136 22.902C24.8438 22.7798 24.6193 22.5938 24.4403 22.3438C24.2642 22.0938 24.1761 21.7784 24.1761 21.3977V14.8864ZM28.0923 23V16.4545H29.098V23H28.0923ZM28.6037 15.3636C28.4077 15.3636 28.2386 15.2969 28.0966 15.1634C27.9574 15.0298 27.8878 14.8693 27.8878 14.6818C27.8878 14.4943 27.9574 14.3338 28.0966 14.2003C28.2386 14.0668 28.4077 14 28.6037 14C28.7997 14 28.9673 14.0668 29.1065 14.2003C29.2486 14.3338 29.3196 14.4943 29.3196 14.6818C29.3196 14.8693 29.2486 15.0298 29.1065 15.1634C28.9673 15.2969 28.7997 15.3636 28.6037 15.3636ZM36.2923 16.4545L33.8718 23H32.8491L30.4286 16.4545H31.5195L33.3263 21.6705H33.3945L35.2013 16.4545H36.2923ZM39.3466 23.1534C38.9318 23.1534 38.5554 23.0753 38.2173 22.919C37.8793 22.7599 37.6108 22.5312 37.4119 22.233C37.2131 21.9318 37.1136 21.5682 37.1136 21.142C37.1136 20.767 37.1875 20.4631 37.3352 20.2301C37.483 19.9943 37.6804 19.8097 37.9276 19.6761C38.1747 19.5426 38.4474 19.4432 38.7457 19.3778C39.0469 19.3097 39.3494 19.2557 39.6534 19.2159C40.0511 19.1648 40.3736 19.1264 40.6207 19.1009C40.8707 19.0724 41.0526 19.0256 41.1662 18.9602C41.2827 18.8949 41.3409 18.7812 41.3409 18.6193V18.5852C41.3409 18.1648 41.2259 17.8381 40.9957 17.6051C40.7685 17.3722 40.4233 17.2557 39.9602 17.2557C39.4801 17.2557 39.1037 17.3608 38.831 17.571C38.5582 17.7812 38.3665 18.0057 38.2557 18.2443L37.3011 17.9034C37.4716 17.5057 37.6989 17.196 37.983 16.9744C38.2699 16.75 38.5824 16.5937 38.9205 16.5057C39.2614 16.4148 39.5966 16.3693 39.9261 16.3693C40.1364 16.3693 40.3778 16.3949 40.6506 16.446C40.9261 16.4943 41.1918 16.5952 41.4474 16.7486C41.706 16.902 41.9205 17.1335 42.0909 17.4432C42.2614 17.7528 42.3466 18.1676 42.3466 18.6875V23H41.3409V22.1136H41.2898C41.2216 22.2557 41.108 22.4077 40.9489 22.5696C40.7898 22.7315 40.5781 22.8693 40.3139 22.983C40.0497 23.0966 39.7273 23.1534 39.3466 23.1534ZM39.5 22.25C39.8977 22.25 40.233 22.1719 40.5057 22.0156C40.7813 21.8594 40.9886 21.6577 41.1278 21.4105C41.2699 21.1634 41.3409 20.9034 41.3409 20.6307V19.7102C41.2983 19.7614 41.2045 19.8082 41.0597 19.8509C40.9176 19.8906 40.7528 19.9261 40.5653 19.9574C40.3807 19.9858 40.2003 20.0114 40.0241 20.0341C39.8509 20.054 39.7102 20.071 39.6023 20.0852C39.3409 20.1193 39.0966 20.1747 38.8693 20.2514C38.6449 20.3253 38.4631 20.4375 38.3239 20.5881C38.1875 20.7358 38.1193 20.9375 38.1193 21.1932C38.1193 21.5426 38.2486 21.8068 38.5071 21.9858C38.7685 22.1619 39.0994 22.25 39.5 22.25ZM47.0288 16.4545V17.3068H43.6367V16.4545H47.0288ZM44.6254 14.8864H45.631V21.125C45.631 21.4091 45.6722 21.6222 45.7546 21.7642C45.8398 21.9034 45.9478 21.9972 46.0785 22.0455C46.212 22.0909 46.3526 22.1136 46.5004 22.1136C46.6112 22.1136 46.7021 22.108 46.7731 22.0966C46.8441 22.0824 46.9009 22.071 46.9435 22.0625L47.1481 22.9659C47.0799 22.9915 46.9847 23.017 46.8626 23.0426C46.7404 23.071 46.5856 23.0852 46.3981 23.0852C46.114 23.0852 45.8356 23.0241 45.5629 22.902C45.293 22.7798 45.0685 22.5938 44.8896 22.3438C44.7134 22.0938 44.6254 21.7784 44.6254 21.3977V14.8864ZM51.2156 23.1364C50.5849 23.1364 50.0408 22.9972 49.5835 22.7188C49.1289 22.4375 48.7781 22.0455 48.5309 21.5426C48.2866 21.0369 48.1644 20.4489 48.1644 19.7784C48.1644 19.108 48.2866 18.517 48.5309 18.0057C48.7781 17.4915 49.1218 17.0909 49.5621 16.804C50.0053 16.5142 50.5224 16.3693 51.1133 16.3693C51.4542 16.3693 51.7908 16.4261 52.1232 16.5398C52.4556 16.6534 52.7582 16.8381 53.0309 17.0938C53.3036 17.3466 53.521 17.6818 53.6829 18.0994C53.8448 18.517 53.9258 19.0312 53.9258 19.642V20.0682H48.8803V19.1989H52.9031C52.9031 18.8295 52.8292 18.5 52.6815 18.2102C52.5366 17.9205 52.3292 17.6918 52.0593 17.5241C51.7923 17.3565 51.4769 17.2727 51.1133 17.2727C50.7127 17.2727 50.3661 17.3722 50.0735 17.571C49.7837 17.767 49.5607 18.0227 49.4045 18.3381C49.2482 18.6534 49.1701 18.9915 49.1701 19.3523V19.9318C49.1701 20.4261 49.2553 20.8452 49.4258 21.1889C49.5991 21.5298 49.8391 21.7898 50.146 21.9688C50.4528 22.1449 50.8093 22.233 51.2156 22.233C51.4798 22.233 51.7184 22.196 51.9315 22.1222C52.1474 22.0455 52.3335 21.9318 52.4897 21.7812C52.646 21.6278 52.7667 21.4375 52.8519 21.2102L53.8235 21.483C53.7212 21.8125 53.5494 22.1023 53.3079 22.3523C53.0664 22.5994 52.7681 22.7926 52.413 22.9318C52.0579 23.0682 51.6587 23.1364 51.2156 23.1364Z" fill="white"/>
</svg>
