<svg width="62" height="38" viewBox="0 0 62 38" fill="none" xmlns="http://www.w3.org/2000/svg">
<path d="M61.0234 0.194336V36.8936H0.324219V0.194336H61.0234Z" fill="#0C3960" stroke="#556069" stroke-width="0.3"/>
<path d="M7.41477 23H6.30682L9.51136 14.2727H10.6023L13.8068 23H12.6989L10.0909 15.6534H10.0227L7.41477 23ZM7.82386 19.5909H12.2898V20.5284H7.82386V19.5909ZM17.6889 23.1364C17.0753 23.1364 16.5469 22.9915 16.1037 22.7017C15.6605 22.4119 15.3196 22.0128 15.081 21.5043C14.8423 20.9957 14.723 20.4148 14.723 19.7614C14.723 19.0966 14.8452 18.5099 15.0895 18.0014C15.3366 17.4901 15.6804 17.0909 16.1207 16.804C16.5639 16.5142 17.081 16.3693 17.6719 16.3693C18.1321 16.3693 18.5469 16.4545 18.9162 16.625C19.2855 16.7955 19.5881 17.0341 19.8239 17.3409C20.0597 17.6477 20.206 18.0057 20.2628 18.4148H19.2571C19.1804 18.1165 19.0099 17.8523 18.7457 17.6222C18.4844 17.3892 18.1321 17.2727 17.6889 17.2727C17.2969 17.2727 16.9531 17.375 16.6577 17.5795C16.3651 17.7812 16.1364 18.0668 15.9716 18.4361C15.8097 18.8026 15.7287 19.233 15.7287 19.7273C15.7287 20.233 15.8082 20.6733 15.9673 21.0483C16.1293 21.4233 16.3565 21.7145 16.6491 21.9219C16.9446 22.1293 17.2912 22.233 17.6889 22.233C17.9503 22.233 18.1875 22.1875 18.4006 22.0966C18.6136 22.0057 18.794 21.875 18.9418 21.7045C19.0895 21.5341 19.1946 21.3295 19.2571 21.0909H20.2628C20.206 21.4773 20.0653 21.8253 19.8409 22.1349C19.6193 22.4418 19.3253 22.6861 18.9588 22.8679C18.5952 23.0469 18.1719 23.1364 17.6889 23.1364ZM24.5795 16.4545V17.3068H21.1875V16.4545H24.5795ZM22.1761 14.8864H23.1818V21.125C23.1818 21.4091 23.223 21.6222 23.3054 21.7642C23.3906 21.9034 23.4986 21.9972 23.6293 22.0455C23.7628 22.0909 23.9034 22.1136 24.0511 22.1136C24.1619 22.1136 24.2528 22.108 24.3239 22.0966C24.3949 22.0824 24.4517 22.071 24.4943 22.0625L24.6989 22.9659C24.6307 22.9915 24.5355 23.017 24.4134 23.0426C24.2912 23.071 24.1364 23.0852 23.9489 23.0852C23.6648 23.0852 23.3864 23.0241 23.1136 22.902C22.8438 22.7798 22.6193 22.5938 22.4403 22.3438C22.2642 22.0938 22.1761 21.7784 22.1761 21.3977V14.8864ZM26.0923 23V16.4545H27.098V23H26.0923ZM26.6037 15.3636C26.4077 15.3636 26.2386 15.2969 26.0966 15.1634C25.9574 15.0298 25.8878 14.8693 25.8878 14.6818C25.8878 14.4943 25.9574 14.3338 26.0966 14.2003C26.2386 14.0668 26.4077 14 26.6037 14C26.7997 14 26.9673 14.0668 27.1065 14.2003C27.2486 14.3338 27.3196 14.4943 27.3196 14.6818C27.3196 14.8693 27.2486 15.0298 27.1065 15.1634C26.9673 15.2969 26.7997 15.3636 26.6037 15.3636ZM34.2923 16.4545L31.8718 23H30.8491L28.4286 16.4545H29.5195L31.3263 21.6705H31.3945L33.2013 16.4545H34.2923ZM37.3466 23.1534C36.9318 23.1534 36.5554 23.0753 36.2173 22.919C35.8793 22.7599 35.6108 22.5312 35.4119 22.233C35.2131 21.9318 35.1136 21.5682 35.1136 21.142C35.1136 20.767 35.1875 20.4631 35.3352 20.2301C35.483 19.9943 35.6804 19.8097 35.9276 19.6761C36.1747 19.5426 36.4474 19.4432 36.7457 19.3778C37.0469 19.3097 37.3494 19.2557 37.6534 19.2159C38.0511 19.1648 38.3736 19.1264 38.6207 19.1009C38.8707 19.0724 39.0526 19.0256 39.1662 18.9602C39.2827 18.8949 39.3409 18.7812 39.3409 18.6193V18.5852C39.3409 18.1648 39.2259 17.8381 38.9957 17.6051C38.7685 17.3722 38.4233 17.2557 37.9602 17.2557C37.4801 17.2557 37.1037 17.3608 36.831 17.571C36.5582 17.7812 36.3665 18.0057 36.2557 18.2443L35.3011 17.9034C35.4716 17.5057 35.6989 17.196 35.983 16.9744C36.2699 16.75 36.5824 16.5937 36.9205 16.5057C37.2614 16.4148 37.5966 16.3693 37.9261 16.3693C38.1364 16.3693 38.3778 16.3949 38.6506 16.446C38.9261 16.4943 39.1918 16.5952 39.4474 16.7486C39.706 16.902 39.9205 17.1335 40.0909 17.4432C40.2614 17.7528 40.3466 18.1676 40.3466 18.6875V23H39.3409V22.1136H39.2898C39.2216 22.2557 39.108 22.4077 38.9489 22.5696C38.7898 22.7315 38.5781 22.8693 38.3139 22.983C38.0497 23.0966 37.7273 23.1534 37.3466 23.1534ZM37.5 22.25C37.8977 22.25 38.233 22.1719 38.5057 22.0156C38.7813 21.8594 38.9886 21.6577 39.1278 21.4105C39.2699 21.1634 39.3409 20.9034 39.3409 20.6307V19.7102C39.2983 19.7614 39.2045 19.8082 39.0597 19.8509C38.9176 19.8906 38.7528 19.9261 38.5653 19.9574C38.3807 19.9858 38.2003 20.0114 38.0241 20.0341C37.8509 20.054 37.7102 20.071 37.6023 20.0852C37.3409 20.1193 37.0966 20.1747 36.8693 20.2514C36.6449 20.3253 36.4631 20.4375 36.3239 20.5881C36.1875 20.7358 36.1193 20.9375 36.1193 21.1932C36.1193 21.5426 36.2486 21.8068 36.5071 21.9858C36.7685 22.1619 37.0994 22.25 37.5 22.25ZM45.0288 16.4545V17.3068H41.6367V16.4545H45.0288ZM42.6254 14.8864H43.631V21.125C43.631 21.4091 43.6722 21.6222 43.7546 21.7642C43.8398 21.9034 43.9478 21.9972 44.0785 22.0455C44.212 22.0909 44.3526 22.1136 44.5004 22.1136C44.6112 22.1136 44.7021 22.108 44.7731 22.0966C44.8441 22.0824 44.9009 22.071 44.9435 22.0625L45.1481 22.9659C45.0799 22.9915 44.9847 23.017 44.8626 23.0426C44.7404 23.071 44.5856 23.0852 44.3981 23.0852C44.114 23.0852 43.8356 23.0241 43.5629 22.902C43.293 22.7798 43.0685 22.5938 42.8896 22.3438C42.7134 22.0938 42.6254 21.7784 42.6254 21.3977V14.8864ZM49.2156 23.1364C48.5849 23.1364 48.0408 22.9972 47.5835 22.7188C47.1289 22.4375 46.7781 22.0455 46.5309 21.5426C46.2866 21.0369 46.1644 20.4489 46.1644 19.7784C46.1644 19.108 46.2866 18.517 46.5309 18.0057C46.7781 17.4915 47.1218 17.0909 47.5621 16.804C48.0053 16.5142 48.5224 16.3693 49.1133 16.3693C49.4542 16.3693 49.7908 16.4261 50.1232 16.5398C50.4556 16.6534 50.7582 16.8381 51.0309 17.0938C51.3036 17.3466 51.521 17.6818 51.6829 18.0994C51.8448 18.517 51.9258 19.0312 51.9258 19.642V20.0682H46.8803V19.1989H50.9031C50.9031 18.8295 50.8292 18.5 50.6815 18.2102C50.5366 17.9205 50.3292 17.6918 50.0593 17.5241C49.7923 17.3565 49.4769 17.2727 49.1133 17.2727C48.7127 17.2727 48.3661 17.3722 48.0735 17.571C47.7837 17.767 47.5607 18.0227 47.4045 18.3381C47.2482 18.6534 47.1701 18.9915 47.1701 19.3523V19.9318C47.1701 20.4261 47.2553 20.8452 47.4258 21.1889C47.5991 21.5298 47.8391 21.7898 48.146 21.9688C48.4528 22.1449 48.8093 22.233 49.2156 22.233C49.4798 22.233 49.7184 22.196 49.9315 22.1222C50.1474 22.0455 50.3335 21.9318 50.4897 21.7812C50.646 21.6278 50.7667 21.4375 50.8519 21.2102L51.8235 21.483C51.7212 21.8125 51.5494 22.1023 51.3079 22.3523C51.0664 22.5994 50.7681 22.7926 50.413 22.9318C50.0579 23.0682 49.6587 23.1364 49.2156 23.1364Z" fill="white" fill-opacity="0.2"/>
</svg>
