<svg width="61" height="37" viewBox="0 0 61 37" fill="none" xmlns="http://www.w3.org/2000/svg">
<path d="M61 0H0V37H61V0Z" fill="#F56323"/>
<path d="M10.2628 23H8.28551L11.2983 14.2727H13.6761L16.6847 23H14.7074L12.5213 16.267H12.4531L10.2628 23ZM10.1392 19.5696H14.8097V21.0099H10.1392V19.5696ZM20.3537 23.1278C19.6832 23.1278 19.1065 22.9858 18.6236 22.7017C18.1435 22.4148 17.7741 22.017 17.5156 21.5085C17.2599 21 17.1321 20.4148 17.1321 19.7528C17.1321 19.0824 17.2614 18.4943 17.5199 17.9886C17.7813 17.4801 18.152 17.0838 18.6321 16.7997C19.1122 16.5128 19.6832 16.3693 20.3452 16.3693C20.9162 16.3693 21.4162 16.473 21.8452 16.6804C22.2741 16.8878 22.6136 17.179 22.8636 17.554C23.1136 17.929 23.2514 18.3693 23.277 18.875H21.5639C21.5156 18.5483 21.3878 18.2855 21.1804 18.0866C20.9759 17.8849 20.7074 17.7841 20.375 17.7841C20.0938 17.7841 19.848 17.8608 19.6378 18.0142C19.4304 18.1648 19.2685 18.3849 19.152 18.6747C19.0355 18.9645 18.9773 19.3153 18.9773 19.7273C18.9773 20.1449 19.0341 20.5 19.1477 20.7926C19.2642 21.0852 19.4276 21.3082 19.6378 21.4616C19.848 21.6151 20.0938 21.6918 20.375 21.6918C20.5824 21.6918 20.7685 21.6491 20.9332 21.5639C21.1009 21.4787 21.2386 21.3551 21.3466 21.1932C21.4574 21.0284 21.5298 20.831 21.5639 20.6009H23.277C23.2486 21.1009 23.1122 21.5412 22.8679 21.9219C22.6264 22.2997 22.2926 22.5952 21.8665 22.8082C21.4403 23.0213 20.9361 23.1278 20.3537 23.1278ZM27.9208 16.4545V17.8182H23.979V16.4545H27.9208ZM24.8739 14.8864H26.6893V20.9886C26.6893 21.1562 26.7148 21.2869 26.766 21.3807C26.8171 21.4716 26.8881 21.5355 26.979 21.5724C27.0728 21.6094 27.1808 21.6278 27.3029 21.6278C27.3881 21.6278 27.4734 21.6207 27.5586 21.6065C27.6438 21.5895 27.7092 21.5767 27.7546 21.5682L28.0401 22.919C27.9492 22.9474 27.8214 22.9801 27.6566 23.017C27.4918 23.0568 27.2915 23.081 27.0558 23.0895C26.6183 23.1065 26.2347 23.0483 25.9052 22.9148C25.5785 22.7812 25.3242 22.5739 25.1424 22.2926C24.9606 22.0114 24.8711 21.6562 24.8739 21.2273V14.8864ZM29.1033 23V16.4545H30.9187V23H29.1033ZM30.0153 15.6108C29.7454 15.6108 29.5138 15.5213 29.3207 15.3423C29.1303 15.1605 29.0352 14.9432 29.0352 14.6903C29.0352 14.4403 29.1303 14.2259 29.3207 14.0469C29.5138 13.8651 29.7454 13.7741 30.0153 13.7741C30.2852 13.7741 30.5153 13.8651 30.7056 14.0469C30.8988 14.2259 30.9954 14.4403 30.9954 14.6903C30.9954 14.9432 30.8988 15.1605 30.7056 15.3423C30.5153 15.5213 30.2852 15.6108 30.0153 15.6108ZM38.4751 16.4545L36.1868 23H34.1413L31.853 16.4545H33.7706L35.13 21.1378H35.1982L36.5533 16.4545H38.4751ZM41.0948 23.1236C40.6772 23.1236 40.305 23.0511 39.9783 22.9062C39.6516 22.7585 39.3931 22.5412 39.2028 22.2543C39.0153 21.9645 38.9215 21.6037 38.9215 21.1719C38.9215 20.8082 38.9883 20.5028 39.1218 20.2557C39.2553 20.0085 39.4371 19.8097 39.6673 19.6591C39.8974 19.5085 40.1587 19.3949 40.4513 19.3182C40.7468 19.2415 41.0565 19.1875 41.3803 19.1562C41.761 19.1165 42.0678 19.0795 42.3008 19.0455C42.5337 19.0085 42.7028 18.9545 42.8079 18.8835C42.913 18.8125 42.9656 18.7074 42.9656 18.5682V18.5426C42.9656 18.2727 42.8803 18.0639 42.7099 17.9162C42.5423 17.7685 42.3036 17.6946 41.994 17.6946C41.6673 17.6946 41.4073 17.767 41.2141 17.9119C41.021 18.054 40.8931 18.233 40.8306 18.4489L39.1516 18.3125C39.2369 17.9148 39.4045 17.571 39.6545 17.2812C39.9045 16.9886 40.2269 16.7642 40.6218 16.608C41.0195 16.4489 41.4798 16.3693 42.0025 16.3693C42.3661 16.3693 42.7141 16.4119 43.0465 16.4972C43.3817 16.5824 43.6786 16.7145 43.9371 16.8935C44.1985 17.0724 44.4045 17.3026 44.555 17.5838C44.7056 17.8622 44.7809 18.196 44.7809 18.5852V23H43.0593V22.0923H43.0082C42.9031 22.2969 42.7624 22.4773 42.5863 22.6335C42.4102 22.7869 42.1985 22.9077 41.9513 22.9957C41.7042 23.081 41.4187 23.1236 41.0948 23.1236ZM41.6147 21.8707C41.8817 21.8707 42.1175 21.8182 42.3221 21.7131C42.5266 21.6051 42.6871 21.4602 42.8036 21.2784C42.9201 21.0966 42.9783 20.8906 42.9783 20.6605V19.9659C42.9215 20.0028 42.8434 20.0369 42.744 20.0682C42.6474 20.0966 42.538 20.1236 42.4158 20.1491C42.2937 20.1719 42.1715 20.1932 42.0494 20.2131C41.9272 20.2301 41.8164 20.2457 41.717 20.2599C41.5039 20.2912 41.3178 20.3409 41.1587 20.4091C40.9996 20.4773 40.8761 20.5696 40.788 20.6861C40.6999 20.7997 40.6559 20.9418 40.6559 21.1122C40.6559 21.3594 40.7454 21.5483 40.9244 21.679C41.1062 21.8068 41.3363 21.8707 41.6147 21.8707ZM49.6708 16.4545V17.8182H45.729V16.4545H49.6708ZM46.6239 14.8864H48.4393V20.9886C48.4393 21.1562 48.4648 21.2869 48.516 21.3807C48.5671 21.4716 48.6381 21.5355 48.729 21.5724C48.8228 21.6094 48.9308 21.6278 49.0529 21.6278C49.1381 21.6278 49.2234 21.6207 49.3086 21.6065C49.3938 21.5895 49.4592 21.5767 49.5046 21.5682L49.7901 22.919C49.6992 22.9474 49.5714 22.9801 49.4066 23.017C49.2418 23.0568 49.0415 23.081 48.8058 23.0895C48.3683 23.1065 47.9847 23.0483 47.6552 22.9148C47.3285 22.7812 47.0742 22.5739 46.8924 22.2926C46.7106 22.0114 46.6211 21.6562 46.6239 21.2273V14.8864ZM53.766 23.1278C53.0927 23.1278 52.5131 22.9915 52.0273 22.7188C51.5444 22.4432 51.1722 22.054 50.9109 21.5511C50.6495 21.0455 50.5188 20.4474 50.5188 19.7571C50.5188 19.0838 50.6495 18.4929 50.9109 17.9844C51.1722 17.4759 51.5401 17.0795 52.0146 16.7955C52.4918 16.5114 53.0515 16.3693 53.6935 16.3693C54.1254 16.3693 54.5273 16.4389 54.8995 16.5781C55.2745 16.7145 55.6012 16.9205 55.8796 17.196C56.1609 17.4716 56.3796 17.8182 56.5359 18.2358C56.6921 18.6506 56.7702 19.1364 56.7702 19.6932V20.1918H51.2433V19.0668H55.0614C55.0614 18.8054 55.0046 18.5739 54.891 18.3722C54.7773 18.1705 54.6197 18.0128 54.418 17.8991C54.2191 17.7827 53.9876 17.7244 53.7234 17.7244C53.4478 17.7244 53.2035 17.7884 52.9904 17.9162C52.7802 18.0412 52.6154 18.2102 52.4961 18.4233C52.3768 18.6335 52.3157 18.8679 52.3129 19.1264V20.196C52.3129 20.5199 52.3725 20.7997 52.4918 21.0355C52.614 21.2713 52.7859 21.4531 53.0075 21.581C53.229 21.7088 53.4918 21.7727 53.7958 21.7727C53.9975 21.7727 54.1822 21.7443 54.3498 21.6875C54.5174 21.6307 54.6609 21.5455 54.7802 21.4318C54.8995 21.3182 54.9904 21.179 55.0529 21.0142L56.7319 21.125C56.6467 21.5284 56.4719 21.8807 56.2077 22.1818C55.9464 22.4801 55.6083 22.7131 55.1935 22.8807C54.7816 23.0455 54.3058 23.1278 53.766 23.1278Z" fill="white"/>
</svg>
