<svg width="62" height="38" viewBox="0 0 62 38" fill="none" xmlns="http://www.w3.org/2000/svg">
<path d="M61.0234 0.194336V36.8936H0.324219V0.194336H61.0234Z" fill="#0C3960" stroke="#556069" stroke-width="0.3"/>
<path d="M21.4148 23H20.3068L23.5114 14.2727H24.6023L27.8068 23H26.6989L24.0909 15.6534H24.0227L21.4148 23ZM21.8239 19.5909H26.2898V20.5284H21.8239V19.5909ZM31.5014 23.1364C30.956 23.1364 30.4744 22.9986 30.0568 22.723C29.6392 22.4446 29.3125 22.0526 29.0767 21.5469C28.8409 21.0384 28.723 20.4375 28.723 19.7443C28.723 19.0568 28.8409 18.4602 29.0767 17.9545C29.3125 17.4489 29.6406 17.0582 30.0611 16.7827C30.4815 16.5071 30.9673 16.3693 31.5185 16.3693C31.9446 16.3693 32.2813 16.4403 32.5284 16.5824C32.7784 16.7216 32.9688 16.8807 33.0994 17.0597C33.233 17.2358 33.3366 17.3807 33.4105 17.4943H33.4957V14.2727H34.5014V23H33.5298V21.9943H33.4105C33.3366 22.1136 33.2315 22.2642 33.0952 22.446C32.9588 22.625 32.7642 22.7855 32.5114 22.9276C32.2585 23.0668 31.9219 23.1364 31.5014 23.1364ZM31.6378 22.233C32.0412 22.233 32.3821 22.1278 32.6605 21.9176C32.9389 21.7045 33.1506 21.4105 33.2955 21.0355C33.4403 20.6577 33.5128 20.2216 33.5128 19.7273C33.5128 19.2386 33.4418 18.8111 33.2997 18.4446C33.1577 18.0753 32.9474 17.7884 32.669 17.5838C32.3906 17.3764 32.0469 17.2727 31.6378 17.2727C31.2116 17.2727 30.8565 17.3821 30.5724 17.6009C30.2912 17.8168 30.0795 18.1108 29.9375 18.483C29.7983 18.8523 29.7287 19.267 29.7287 19.7273C29.7287 20.1932 29.7997 20.6165 29.9418 20.9972C30.0866 21.375 30.2997 21.6761 30.581 21.9006C30.8651 22.1222 31.2173 22.233 31.6378 22.233ZM38.9545 23.1364C38.4091 23.1364 37.9276 22.9986 37.5099 22.723C37.0923 22.4446 36.7656 22.0526 36.5298 21.5469C36.294 21.0384 36.1761 20.4375 36.1761 19.7443C36.1761 19.0568 36.294 18.4602 36.5298 17.9545C36.7656 17.4489 37.0938 17.0582 37.5142 16.7827C37.9347 16.5071 38.4205 16.3693 38.9716 16.3693C39.3977 16.3693 39.7344 16.4403 39.9815 16.5824C40.2315 16.7216 40.4219 16.8807 40.5526 17.0597C40.6861 17.2358 40.7898 17.3807 40.8636 17.4943H40.9489V14.2727H41.9545V23H40.983V21.9943H40.8636C40.7898 22.1136 40.6847 22.2642 40.5483 22.446C40.4119 22.625 40.2173 22.7855 39.9645 22.9276C39.7116 23.0668 39.375 23.1364 38.9545 23.1364ZM39.0909 22.233C39.4943 22.233 39.8352 22.1278 40.1136 21.9176C40.392 21.7045 40.6037 21.4105 40.7486 21.0355C40.8935 20.6577 40.9659 20.2216 40.9659 19.7273C40.9659 19.2386 40.8949 18.8111 40.7528 18.4446C40.6108 18.0753 40.4006 17.7884 40.1222 17.5838C39.8438 17.3764 39.5 17.2727 39.0909 17.2727C38.6648 17.2727 38.3097 17.3821 38.0256 17.6009C37.7443 17.8168 37.5327 18.1108 37.3906 18.483C37.2514 18.8523 37.1818 19.267 37.1818 19.7273C37.1818 20.1932 37.2528 20.6165 37.3949 20.9972C37.5398 21.375 37.7528 21.6761 38.0341 21.9006C38.3182 22.1222 38.6705 22.233 39.0909 22.233Z" fill="white" fill-opacity="0.2"/>
</svg>
