<svg width="139" height="134" viewBox="0 0 139 134" fill="none" xmlns="http://www.w3.org/2000/svg">
<g opacity="0.36" filter="url(#filter0_d_119_5535)">
<path d="M20.6463 114.011C15.4482 109.162 11.6332 102.414 9.87011 95.0271C7.89422 86.6524 8.60858 78.0346 11.9068 70.7694C15.5546 62.7444 21.8471 57.2727 29.6442 55.3425C31.5441 54.8865 33.4896 54.6433 35.4351 54.6433C42.1228 54.6433 48.8256 57.4551 54.2517 62.5468C59.4498 67.3953 63.2648 74.1436 65.0279 81.5303C67.019 89.8898 66.2895 98.5228 62.9913 105.788C59.3434 113.813 53.051 119.285 45.269 121.215C43.3691 121.686 41.4236 121.914 39.4781 121.914C32.7905 121.914 26.1028 119.102 20.6615 114.011H20.6463ZM35.4199 55.0537C33.5048 55.0537 31.5897 55.2817 29.7202 55.7376C22.0599 57.6223 15.8586 63.018 12.2716 70.9214C9.01896 78.0954 8.30459 86.622 10.2653 94.9207C12.0132 102.231 15.7978 108.889 20.9351 113.707C26.3004 118.722 32.8969 121.489 39.4781 121.489C41.3932 121.489 43.3083 121.261 45.1778 120.805C52.8382 118.92 59.0395 113.524 62.6265 105.621C65.8791 98.4468 66.5935 89.9202 64.6328 81.6215C62.8849 74.3108 59.1003 67.6537 53.9629 62.8356C48.5976 57.8199 42.0012 55.0537 35.4199 55.0537Z" fill="#DAE6ED"/>
<mask id="mask0_119_5535" style="mask-type:luminance" maskUnits="userSpaceOnUse" x="8" y="54" width="59" height="68">
<path d="M20.6444 114.011C15.4463 109.163 11.6313 102.414 9.86816 95.0277C7.89226 86.653 8.60663 78.0352 11.9048 70.7701C15.5527 62.745 21.8451 57.2734 29.6423 55.3431C31.5422 54.8871 33.4877 54.644 35.4332 54.644C42.1208 54.644 48.8237 57.4558 54.2498 62.5474C59.4479 67.3959 63.2629 74.1443 65.026 81.531C67.0171 89.8904 66.2875 98.5235 62.9893 105.789C59.3415 113.814 53.049 119.285 45.2671 121.216C43.3672 121.687 41.4217 121.915 39.4762 121.915C32.7885 121.915 26.1009 119.103 20.6596 114.011H20.6444ZM35.418 55.0543C33.5029 55.0543 31.5878 55.2823 29.7183 55.7383C22.0579 57.623 15.8566 63.0186 12.2696 70.9221C9.017 78.096 8.30264 86.6226 10.2633 94.9213C12.0112 102.232 15.7958 108.889 20.9332 113.707C26.2985 118.723 32.8949 121.489 39.4762 121.489C41.3913 121.489 43.3064 121.261 45.1759 120.805C52.8363 118.921 59.0375 113.525 62.6245 105.621C65.8771 98.4475 66.5915 89.9208 64.6308 81.6222C62.8829 74.3115 59.0983 67.6543 53.961 62.8362C48.5957 57.8205 41.9992 55.0543 35.418 55.0543Z" fill="white"/>
</mask>
<g mask="url(#mask0_119_5535)">
<path d="M25.7842 55.0544L66.594 106.214V55.0544H25.7842Z" fill="#DAE6ED"/>
<path d="M25.6299 55.0544L66.5917 106.412V106.214L25.7819 55.0544H25.6299Z" fill="#DAE6ED"/>
<path d="M25.4678 55.0544L66.5968 106.609V106.412L25.635 55.0544H25.4678Z" fill="#DAE6ED"/>
<path d="M25.3135 55.0544L66.5945 106.807V106.609L25.4655 55.0544H25.3135Z" fill="#DAE6ED"/>
<path d="M25.1484 55.0544L66.5966 107.005V106.807L25.3156 55.0544H25.1484Z" fill="#DAE6ED"/>
<path d="M24.9941 55.0544L66.5943 107.202V107.005L25.1461 55.0544H24.9941Z" fill="#DAE6ED"/>
<path d="M24.8242 55.0544L66.5916 107.4V107.202L24.9914 55.0544H24.8242Z" fill="#DAE6ED"/>
<path d="M24.6777 55.0544L66.5971 107.597V107.4L24.8297 55.0544H24.6777Z" fill="#DAE6ED"/>
<path d="M24.5078 55.0544L66.5943 107.81V107.597L24.675 55.0544H24.5078Z" fill="#DAE6ED"/>
<path d="M24.3574 55.0544L66.596 108.008V107.81L24.5094 55.0544H24.3574Z" fill="#DAE6ED"/>
<path d="M24.1885 55.0544L66.5942 108.205V108.008L24.3557 55.0544H24.1885Z" fill="#DAE6ED"/>
<path d="M24.041 55.0544L66.5987 108.403V108.205L24.193 55.0544H24.041Z" fill="#DAE6ED"/>
<path d="M23.8828 55.0544L66.5925 108.6V108.403L24.0348 55.0544H23.8828Z" fill="#DAE6ED"/>
<path d="M23.7178 55.0544L66.5947 108.798V108.6L23.885 55.0544H23.7178Z" fill="#DAE6ED"/>
<path d="M23.5664 55.0544L66.5953 108.996V108.798L23.7184 55.0544H23.5664Z" fill="#DAE6ED"/>
<path d="M23.3975 55.0544L66.5935 109.208V108.996L23.5646 55.0544H23.3975Z" fill="#DAE6ED"/>
<path d="M23.2471 55.0544L66.5951 109.406V109.208L23.3991 55.0544H23.2471Z" fill="#DAE6ED"/>
<path d="M23.0811 55.0544L66.5963 109.604V109.406L23.2482 55.0544H23.0811Z" fill="#DAE6ED"/>
<path d="M22.9268 55.0544L66.594 109.801V109.604L23.0788 55.0544H22.9268Z" fill="#DAE6ED"/>
<path d="M22.7607 55.0544L66.5952 109.999V109.801L22.9279 55.0544H22.7607Z" fill="#DAE6ED"/>
<path d="M22.6064 55.0544L66.5929 110.196V109.999L22.7584 55.0544H22.6064Z" fill="#DAE6ED"/>
<path d="M22.4414 55.0544L66.595 110.394V110.196L22.6086 55.0544H22.4414Z" fill="#DAE6ED"/>
<path d="M22.29 55.0544L66.5957 110.592V110.394L22.442 55.0544H22.29Z" fill="#DAE6ED"/>
<path d="M22.124 55.0544L66.5968 110.804V110.592L22.2912 55.0544H22.124Z" fill="#DAE6ED"/>
<path d="M21.9668 55.0544L66.5916 111.002V110.804L22.1188 55.0544H21.9668Z" fill="#DAE6ED"/>
<path d="M21.8047 55.0544L66.5967 111.2V111.002L21.9719 55.0544H21.8047Z" fill="#DAE6ED"/>
<path d="M21.6504 55.0544L66.5944 111.397V111.2L21.8024 55.0544H21.6504Z" fill="#DAE6ED"/>
<path d="M21.4805 55.0544L66.5916 111.595V111.397L21.6477 55.0544H21.4805Z" fill="#DAE6ED"/>
<path d="M21.3301 55.0544L66.5933 111.792V111.595L21.4821 55.0544H21.3301Z" fill="#DAE6ED"/>
<path d="M21.1641 55.0544L66.5944 111.99V111.792L21.3313 55.0544H21.1641Z" fill="#DAE6ED"/>
<path d="M21.0137 55.0544L66.596 112.203V111.99L21.1657 55.0544H21.0137Z" fill="#DAE6ED"/>
<path d="M20.8447 55.0544L66.5943 112.4V112.203L21.0119 55.0544H20.8447Z" fill="#DAE6ED"/>
<path d="M20.6895 55.0544L66.591 112.598V112.4L20.8414 55.0544H20.6895Z" fill="#DAE6ED"/>
<path d="M20.5244 55.0544L66.5931 112.795V112.598L20.6916 55.0544H20.5244Z" fill="#DAE6ED"/>
<path d="M20.374 55.0544L66.5947 112.993V112.795L20.526 55.0544H20.374Z" fill="#DAE6ED"/>
<path d="M20.2227 55.0544L66.5954 113.191V112.993L20.3746 55.0544H20.2227Z" fill="#DAE6ED"/>
<path d="M20.0576 55.0544L66.5975 113.388V113.191L20.2248 55.0544H20.0576Z" fill="#DAE6ED"/>
<path d="M19.9033 55.0544L66.5648 113.555L66.5952 113.525V113.388L20.0553 55.0544H19.9033Z" fill="#DAE6ED"/>
<path d="M19.7373 55.0544L66.4748 113.631L66.566 113.555L19.9045 55.0544H19.7373Z" fill="#DAE6ED"/>
<path d="M19.583 55.0544L66.3661 113.707L66.4725 113.631L19.735 55.0544H19.583Z" fill="#DAE6ED"/>
<path d="M19.418 55.0544L66.2771 113.783L66.3682 113.707L19.5852 55.0544H19.418Z" fill="#DAE6ED"/>
<path d="M19.2666 55.0544L66.1713 113.859L66.2777 113.783L19.4186 55.0544H19.2666Z" fill="#DAE6ED"/>
<path d="M19.0977 55.0544L66.0783 113.951L66.1695 113.859L19.2648 55.0544H19.0977Z" fill="#DAE6ED"/>
<path d="M18.9473 55.0544L65.9887 114.027L66.0799 113.951L19.0993 55.0544H18.9473Z" fill="#DAE6ED"/>
<path d="M18.7812 55.0544L65.8835 114.103L65.9899 114.027L18.9484 55.0544H18.7812Z" fill="#DAE6ED"/>
<path d="M18.623 55.0544L65.7861 114.179L65.8773 114.103L18.775 55.0544H18.623Z" fill="#DAE6ED"/>
<path d="M18.457 55.0544L65.6809 114.255L65.7873 114.179L18.6242 55.0544H18.457Z" fill="#DAE6ED"/>
<path d="M18.3066 55.0544L65.5913 114.331L65.6825 114.255L18.4586 55.0544H18.3066Z" fill="#DAE6ED"/>
<path d="M18.2924 55.0544L18.2012 55.1304L65.501 114.406L65.5922 114.331L18.3076 55.0544H18.2924Z" fill="#DAE6ED"/>
<path d="M18.1907 55.1357L18.0957 55.2115L65.414 114.464L65.5091 114.388L18.1907 55.1357Z" fill="#DAE6ED"/>
<path d="M18.0813 55.2157L17.9863 55.2916L65.3047 114.544L65.3997 114.468L18.0813 55.2157Z" fill="#DAE6ED"/>
<path d="M18.017 55.2695L17.9219 55.3452L65.1885 114.639L65.2836 114.563L18.017 55.2695Z" fill="#DAE6ED"/>
<path d="M17.8821 55.3663L17.7871 55.4421L65.1054 114.695L65.2005 114.619L17.8821 55.3663Z" fill="#DAE6ED"/>
<path d="M17.8334 55.4418L17.7383 55.5175L64.9945 114.82L65.0896 114.744L17.8334 55.4418Z" fill="#DAE6ED"/>
<path d="M17.7318 55.517L17.6367 55.5928L64.9033 114.887L64.9984 114.811L17.7318 55.517Z" fill="#DAE6ED"/>
<path d="M17.5999 55.6148L17.5049 55.6907L64.8232 114.943L64.9182 114.868L17.5999 55.6148Z" fill="#DAE6ED"/>
<path d="M17.513 55.6864L17.418 55.7623L64.7363 115.015L64.8313 114.939L17.513 55.6864Z" fill="#DAE6ED"/>
<path d="M17.4379 55.743L17.3428 55.8188L64.599 115.121L64.6941 115.045L17.4379 55.743Z" fill="#DAE6ED"/>
<path d="M17.3431 55.8202L17.248 55.896L64.5147 115.19L64.6097 115.114L17.3431 55.8202Z" fill="#DAE6ED"/>
<path d="M17.2161 55.9076L17.1211 55.9835L64.4394 115.236L64.5344 115.16L17.2161 55.9076Z" fill="#DAE6ED"/>
<path d="M17.1214 55.9885L17.0264 56.0644L64.3447 115.317L64.4397 115.241L17.1214 55.9885Z" fill="#DAE6ED"/>
<path d="M17.0463 56.0554L16.9512 56.1312L64.2178 115.425L64.3129 115.349L17.0463 56.0554Z" fill="#DAE6ED"/>
<path d="M16.9594 56.1421L16.8643 56.2178L64.1205 115.52L64.2156 115.444L16.9594 56.1421Z" fill="#DAE6ED"/>
<path d="M16.8313 56.236L16.7363 56.3119L64.0547 115.565L64.1497 115.489L16.8313 56.236Z" fill="#DAE6ED"/>
<path d="M16.7337 56.3067L16.6387 56.3826L63.957 115.635L64.052 115.559L16.7337 56.3067Z" fill="#DAE6ED"/>
<path d="M16.6547 56.3708L16.5596 56.4466L63.8262 115.741L63.9213 115.665L16.6547 56.3708Z" fill="#DAE6ED"/>
<path d="M16.5374 56.4582L16.4424 56.5341L63.7607 115.787L63.8557 115.711L16.5374 56.4582Z" fill="#DAE6ED"/>
<path d="M16.4623 56.5149L16.3672 56.5907L63.6234 115.893L63.7185 115.817L16.4623 56.5149Z" fill="#DAE6ED"/>
<path d="M16.3382 56.6089L16.2432 56.6848L63.5615 115.937L63.6565 115.862L16.3382 56.6089Z" fill="#DAE6ED"/>
<path d="M16.263 56.6768L16.168 56.7526L63.4346 116.047L63.5297 115.971L16.263 56.6768Z" fill="#DAE6ED"/>
<path d="M16.1468 56.7595L16.0518 56.8354L63.3701 116.088L63.4651 116.012L16.1468 56.7595Z" fill="#DAE6ED"/>
<path d="M16.056 56.8574L15.9609 56.9333L63.2793 116.186L63.3743 116.11L16.056 56.8574Z" fill="#DAE6ED"/>
<path d="M15.9994 56.8876L15.9043 56.9633L63.1191 116.299L63.2143 116.223L15.9994 56.8876Z" fill="#DAE6ED"/>
<path d="M15.8567 57.008L15.7617 57.0838L63.0801 116.337L63.1751 116.261L15.8567 57.008Z" fill="#DAE6ED"/>
<path d="M15.7581 57.0796L15.6631 57.1555L62.9814 116.408L63.0764 116.332L15.7581 57.0796Z" fill="#DAE6ED"/>
<path d="M15.6604 57.1595L15.5654 57.2354L62.8838 116.488L62.9788 116.412L15.6604 57.1595Z" fill="#DAE6ED"/>
<path d="M15.6186 57.1945L15.5234 57.2702L62.7383 116.605L62.8334 116.53L15.6186 57.1945Z" fill="#DAE6ED"/>
<path d="M15.4642 57.3111L15.3691 57.387L62.6875 116.64L62.7825 116.564L15.4642 57.3111Z" fill="#DAE6ED"/>
<path d="M15.3626 57.3798L15.2676 57.4557L62.5859 116.708L62.6809 116.633L15.3626 57.3798Z" fill="#DAE6ED"/>
<path d="M15.2649 57.4673L15.1699 57.5432L62.4883 116.796L62.5833 116.72L15.2649 57.4673Z" fill="#DAE6ED"/>
<path d="M15.2015 57.5408L15.1064 57.6166L62.3731 116.911L62.4681 116.835L15.2015 57.5408Z" fill="#DAE6ED"/>
<path d="M15.1146 57.6049L15.0195 57.6807L62.2758 116.983L62.3709 116.907L15.1146 57.6049Z" fill="#DAE6ED"/>
<path d="M14.9827 57.7102L14.8877 57.7861L62.206 117.039L62.301 116.963L14.9827 57.7102Z" fill="#DAE6ED"/>
<path d="M14.9037 57.7621L14.8086 57.8379L62.0752 117.132L62.1703 117.056L14.9037 57.7621Z" fill="#DAE6ED"/>
<path d="M14.7835 57.8514L14.6885 57.9272L62.0068 117.18L62.1018 117.104L14.7835 57.8514Z" fill="#DAE6ED"/>
<path d="M14.6849 57.9314L14.5898 58.0073L61.9082 117.26L62.0032 117.184L14.6849 57.9314Z" fill="#DAE6ED"/>
<path d="M14.6215 57.9927L14.5264 58.0685L61.7826 117.371L61.8777 117.295L14.6215 57.9927Z" fill="#DAE6ED"/>
<path d="M14.5082 58.0794L14.4131 58.1552L61.6797 117.449L61.7748 117.373L14.5082 58.0794Z" fill="#DAE6ED"/>
<path d="M14.388 58.1677L14.293 58.2436L61.6113 117.496L61.7063 117.42L14.388 58.1677Z" fill="#DAE6ED"/>
<path d="M14.3011 58.2384L14.2061 58.3142L61.5244 117.567L61.6194 117.491L14.3011 58.2384Z" fill="#DAE6ED"/>
<path d="M14.2034 58.3305L14.1084 58.4064L61.4267 117.659L61.5217 117.583L14.2034 58.3305Z" fill="#DAE6ED"/>
<path d="M14.1547 58.3656L14.0596 58.4413L61.2744 117.777L61.3696 117.701L14.1547 58.3656Z" fill="#DAE6ED"/>
<path d="M14.0071 58.4821L13.9121 58.558L61.2304 117.811L61.3255 117.735L14.0071 58.4821Z" fill="#DAE6ED"/>
<path d="M13.9095 58.5527L13.8145 58.6285L61.1328 117.881L61.2278 117.805L13.9095 58.5527Z" fill="#DAE6ED"/>
<path d="M13.8422 58.6206L13.7471 58.6964L61.0137 117.99L61.1088 117.915L13.8422 58.6206Z" fill="#DAE6ED"/>
<path d="M13.7435 58.695L13.6484 58.7708L60.9047 118.073L60.9998 117.997L13.7435 58.695Z" fill="#DAE6ED"/>
<path d="M13.6116 58.79L13.5166 58.8658L60.8349 118.119L60.93 118.043L13.6116 58.79Z" fill="#DAE6ED"/>
<path d="M13.5101 58.869L13.415 58.9449L60.7334 118.198L60.8284 118.122L13.5101 58.869Z" fill="#DAE6ED"/>
<path d="M13.4466 58.9218L13.3516 58.9976L60.6182 118.292L60.7132 118.216L13.4466 58.9218Z" fill="#DAE6ED"/>
<path d="M13.3265 59.0319L13.2314 59.1078L60.5498 118.361L60.6448 118.285L13.3265 59.0319Z" fill="#DAE6ED"/>
<path d="M13.2621 59.0931L13.167 59.1689L60.4233 118.471L60.5183 118.395L13.2621 59.0931Z" fill="#DAE6ED"/>
<path d="M13.1409 59.174L13.0459 59.2499L60.3642 118.503L60.4592 118.427L13.1409 59.174Z" fill="#DAE6ED"/>
<path d="M13.0472 59.2503L12.9521 59.3261L60.2188 118.62L60.3138 118.544L13.0472 59.2503Z" fill="#DAE6ED"/>
<path d="M12.9349 59.3246L12.8398 59.4005L60.1582 118.653L60.2532 118.577L12.9349 59.3246Z" fill="#DAE6ED"/>
<path d="M12.8333 59.4196L12.7383 59.4955L60.0566 118.748L60.1516 118.672L12.8333 59.4196Z" fill="#DAE6ED"/>
<path d="M12.7836 59.4538L12.6885 59.5295L59.9033 118.865L59.9985 118.789L12.7836 59.4538Z" fill="#DAE6ED"/>
<path d="M12.6477 59.5609L12.5527 59.6368L59.8711 118.89L59.9661 118.814L12.6477 59.5609Z" fill="#DAE6ED"/>
<path d="M12.5354 59.6418L12.4404 59.7177L59.7588 118.97L59.8538 118.895L12.5354 59.6418Z" fill="#DAE6ED"/>
<path d="M12.4446 59.7238L12.3496 59.7997L59.6679 119.052L59.763 118.977L12.4446 59.7238Z" fill="#DAE6ED"/>
<path d="M12.3695 59.801L12.2744 59.8768L59.541 119.171L59.6361 119.095L12.3695 59.801Z" fill="#DAE6ED"/>
<path d="M12.2826 59.864L12.1875 59.9398L59.4438 119.242L59.5389 119.166L12.2826 59.864Z" fill="#DAE6ED"/>
<path d="M12.1663 59.9459L12.0713 60.0218L59.3896 119.275L59.4846 119.199L12.1663 59.9459Z" fill="#DAE6ED"/>
<path d="M12.053 60.041L11.958 60.1169L59.2763 119.37L59.3714 119.294L12.053 60.041Z" fill="#DAE6ED"/>
<path d="M11.9857 60.0843L11.8906 60.1601L59.1676 119.446L59.2626 119.37L11.9857 60.0843Z" fill="#DAE6ED"/>
<path d="M11.892 60.1653L11.7969 60.241L59.0531 119.543L59.1482 119.467L11.892 60.1653Z" fill="#DAE6ED"/>
<path d="M11.7591 60.2631L11.6641 60.339L58.9824 119.592L59.0774 119.516L11.7591 60.2631Z" fill="#DAE6ED"/>
<path d="M11.6918 60.3141L11.5967 60.3899L58.8633 119.684L58.9584 119.608L11.6918 60.3141Z" fill="#DAE6ED"/>
<path d="M11.5638 60.4127L11.4688 60.4886L58.7871 119.741L58.8821 119.665L11.5638 60.4127Z" fill="#DAE6ED"/>
<path d="M11.4886 60.4956L11.3936 60.5714L58.7119 119.824L58.8069 119.748L11.4886 60.4956Z" fill="#DAE6ED"/>
<path d="M11.4095 60.5653L11.3145 60.6411L58.5707 119.943L58.6658 119.868L11.4095 60.5653Z" fill="#DAE6ED"/>
<path d="M11.308 60.6425L11.2129 60.7183L58.4795 120.012L58.5746 119.937L11.308 60.6425Z" fill="#DAE6ED"/>
<path d="M11.1946 60.7319L11.0996 60.8078L58.4179 120.06L58.513 119.985L11.1946 60.7319Z" fill="#DAE6ED"/>
<path d="M11.0823 60.8128L10.9873 60.8887L58.3056 120.141L58.4007 120.066L11.0823 60.8128Z" fill="#DAE6ED"/>
<path d="M10.9954 60.8834L10.9004 60.9593L58.2187 120.212L58.3137 120.136L10.9954 60.8834Z" fill="#DAE6ED"/>
<path d="M10.9282 60.926L10.833 61.0017L58.0479 120.337L58.143 120.261L10.9282 60.926Z" fill="#DAE6ED"/>
<path d="M10.7845 61.0341L10.6895 61.11L58.0078 120.363L58.1028 120.287L10.7845 61.0341Z" fill="#DAE6ED"/>
<path d="M10.6976 61.1046L10.6025 61.1805L57.9209 120.433L58.0159 120.357L10.6976 61.1046Z" fill="#DAE6ED"/>
<path d="M10.6302 61.1933L10.5352 61.2691L57.8018 120.563L57.8968 120.487L10.6302 61.1933Z" fill="#DAE6ED"/>
<path d="M10.513 61.2675L10.418 61.3434L57.7363 120.596L57.8313 120.52L10.513 61.2675Z" fill="#DAE6ED"/>
<path d="M10.4301 61.3362L10.335 61.412L57.5912 120.714L57.6863 120.638L10.4301 61.3362Z" fill="#DAE6ED"/>
<path d="M10.3138 61.4332L10.2188 61.5091L57.5371 120.762L57.6321 120.686L10.3138 61.4332Z" fill="#DAE6ED"/>
<path d="M10.2308 61.4851L10.1357 61.5609L57.4023 120.855L57.4974 120.779L10.2308 61.4851Z" fill="#DAE6ED"/>
<path d="M10.1067 61.5847L10.0117 61.6606L57.3301 120.913L57.4251 120.837L10.1067 61.5847Z" fill="#DAE6ED"/>
<path d="M10.0198 61.6563L9.9248 61.7322L57.2431 120.985L57.3382 120.909L10.0198 61.6563Z" fill="#DAE6ED"/>
<path d="M9.93689 61.7251L9.8418 61.8009L57.0981 121.103L57.1932 121.027L9.93689 61.7251Z" fill="#DAE6ED"/>
<path d="M9.83922 61.8023L9.74414 61.8781L57.0107 121.172L57.1058 121.096L9.83922 61.8023Z" fill="#DAE6ED"/>
<path d="M9.72978 61.8887L9.63477 61.9646L56.9531 121.217L57.0481 121.141L9.72978 61.8887Z" fill="#DAE6ED"/>
<path d="M9.61748 61.9848L9.52246 62.0606L56.8408 121.313L56.9358 121.237L9.61748 61.9848Z" fill="#DAE6ED"/>
<path d="M9.57952 62.016L9.48438 62.0917L56.6992 121.427L56.7944 121.351L9.57952 62.016Z" fill="#DAE6ED"/>
<path d="M9.42509 62.1354L9.33008 62.2113L56.6484 121.464L56.7434 121.388L9.42509 62.1354Z" fill="#DAE6ED"/>
<path d="M9.35737 62.1981L9.25098 62.2741L56.5052 121.505H56.6116L56.642 121.474L9.35737 62.1981Z" fill="#DAE6ED"/>
<path d="M9.25135 62.2744L9.16016 62.3503L56.3384 121.505H56.5056L9.25135 62.2744Z" fill="#DAE6ED"/>
<path d="M9.15815 62.3496L9.05176 62.4256L56.1844 121.504H56.3364L9.15815 62.3496Z" fill="#DAE6ED"/>
<path d="M9.05213 62.4259L8.96094 62.5019L56.0176 121.504H56.1848L9.05213 62.4259Z" fill="#DAE6ED"/>
<path d="M8.95838 62.5021L8.86719 62.5781L55.8631 121.505H56.0151L8.95838 62.5021Z" fill="#DAE6ED"/>
<path d="M8.86811 62.5774L8.76172 62.6686L55.6968 121.504H55.864L8.86811 62.5774Z" fill="#DAE6ED"/>
<path d="M8.76209 62.6678L8.6709 62.7438L55.5452 121.503H55.6972L8.76209 62.6678Z" fill="#DAE6ED"/>
<path d="M8.67182 62.7441L8.56543 62.8201L55.3941 121.503H55.5461L8.67182 62.7441Z" fill="#DAE6ED"/>
<path d="M8.56287 62.8212L8.47168 62.8972L55.2244 121.505H55.3916L8.56287 62.8212Z" fill="#DAE6ED"/>
<path d="M8.47206 62.8975L8.38086 62.9735L55.0728 121.505H55.2247L8.47206 62.8975Z" fill="#DAE6ED"/>
<path d="M8.38557 62.9737L8.30957 63.0193V63.0953L54.9103 121.505H55.0775L8.38557 62.9737Z" fill="#DAE6ED"/>
<path d="M8.30957 63.2927L54.7583 121.505H54.9103L8.30957 63.0952V63.2927Z" fill="#DAE6ED"/>
<path d="M8.30957 63.4905L54.5911 121.505H54.7583L8.30957 63.2929V63.4905Z" fill="#DAE6ED"/>
<path d="M8.30957 63.6872L54.4391 121.504H54.5911L8.30957 63.4896V63.6872Z" fill="#DAE6ED"/>
<path d="M8.30957 63.8849L54.2719 121.504H54.4391L8.30957 63.6873V63.8849Z" fill="#DAE6ED"/>
<path d="M8.30957 64.0977L54.1199 121.504H54.2719L8.30957 63.8849V64.0977Z" fill="#DAE6ED"/>
<path d="M8.30957 64.2952L53.9527 121.504H54.1199L8.30957 64.0977V64.2952Z" fill="#DAE6ED"/>
<path d="M8.30957 64.492L53.8007 121.503H53.9527L8.30957 64.2944V64.492Z" fill="#DAE6ED"/>
<path d="M8.30957 64.6915L53.6335 121.505H53.8007L8.30957 64.4939V64.6915Z" fill="#DAE6ED"/>
<path d="M8.30957 64.8874L53.4815 121.504H53.6335L8.30957 64.6898V64.8874Z" fill="#DAE6ED"/>
<path d="M8.30957 65.085L53.3144 121.504H53.4815L8.30957 64.8874V65.085Z" fill="#DAE6ED"/>
<path d="M8.30957 65.2837L53.1624 121.505H53.3144L8.30957 65.0861V65.2837Z" fill="#DAE6ED"/>
<path d="M8.30957 65.4813L52.9952 121.505H53.1624L8.30957 65.2837V65.4813Z" fill="#DAE6ED"/>
<path d="M8.30957 65.6933L52.8432 121.504H52.9952L8.30957 65.4806V65.6933Z" fill="#DAE6ED"/>
<path d="M8.30957 65.8908L52.676 121.504H52.8432L8.30957 65.6932V65.8908Z" fill="#DAE6ED"/>
<path d="M8.30957 66.0885L52.524 121.504H52.676L8.30957 65.8909V66.0885Z" fill="#DAE6ED"/>
<path d="M8.30957 66.2862L52.3568 121.504H52.524L8.30957 66.0886V66.2862Z" fill="#DAE6ED"/>
<path d="M8.30957 66.4839L52.2048 121.504H52.3568L8.30957 66.2863V66.4839Z" fill="#DAE6ED"/>
<path d="M8.30957 66.6815L52.0376 121.504H52.2048L8.30957 66.4839V66.6815Z" fill="#DAE6ED"/>
<path d="M8.30957 66.8792L51.8856 121.504H52.0376L8.30957 66.6816V66.8792Z" fill="#DAE6ED"/>
<path d="M8.30957 67.0921L51.7336 121.505H51.8856L8.30957 66.8793V67.0921Z" fill="#DAE6ED"/>
<path d="M8.30957 67.2897L51.5664 121.504H51.7336L8.30957 67.0921V67.2897Z" fill="#DAE6ED"/>
<path d="M8.30957 67.4873L51.4145 121.505H51.5664L8.30957 67.2897V67.4873Z" fill="#DAE6ED"/>
<path d="M8.30957 67.685L51.2473 121.505H51.4145L8.30957 67.4874V67.685Z" fill="#DAE6ED"/>
<path d="M8.30957 67.8827L51.0953 121.505H51.2473L8.30957 67.6851V67.8827Z" fill="#DAE6ED"/>
<path d="M8.30957 68.0804L50.9281 121.505H51.0953L8.30957 67.8828V68.0804Z" fill="#DAE6ED"/>
<path d="M8.30957 68.2761L50.7761 121.503H50.9281L8.30957 68.0786V68.2761Z" fill="#DAE6ED"/>
<path d="M8.30957 68.4757L50.6089 121.505H50.7761L8.30957 68.2781V68.4757Z" fill="#DAE6ED"/>
<path d="M8.30957 68.6886L50.4569 121.505H50.6089L8.30957 68.4758V68.6886Z" fill="#DAE6ED"/>
<path d="M8.30957 68.8862L50.2897 121.505H50.4569L8.30957 68.6886V68.8862Z" fill="#DAE6ED"/>
<path d="M8.30957 69.0829L50.1377 121.504H50.2897L8.30957 68.8853V69.0829Z" fill="#DAE6ED"/>
<path d="M8.30957 69.2805L49.9705 121.504H50.1377L8.30957 69.0829V69.2805Z" fill="#DAE6ED"/>
<path d="M8.30957 69.4782L49.8185 121.504H49.9705L8.30957 69.2806V69.4782Z" fill="#DAE6ED"/>
<path d="M8.30957 69.6759L49.6513 121.504H49.8185L8.30957 69.4783V69.6759Z" fill="#DAE6ED"/>
<path d="M8.30957 69.8726L49.4994 121.504H49.6513L8.30957 69.675V69.8726Z" fill="#DAE6ED"/>
<path d="M8.30957 70.0856L49.3322 121.504H49.4994L8.30957 69.8728V70.0856Z" fill="#DAE6ED"/>
<path d="M8.30957 70.2831L49.1802 121.504H49.3322L8.30957 70.0855V70.2831Z" fill="#DAE6ED"/>
<path d="M8.30957 70.4807L49.013 121.504H49.1802L8.30957 70.2831V70.4807Z" fill="#DAE6ED"/>
<path d="M8.30957 70.6794L48.861 121.505H49.013L8.30957 70.4818V70.6794Z" fill="#DAE6ED"/>
<path d="M8.30957 70.877L48.6938 121.505H48.861L8.30957 70.6794V70.877Z" fill="#DAE6ED"/>
<path d="M8.30957 71.0747L48.5418 121.505H48.6938L8.30957 70.8771V71.0747Z" fill="#DAE6ED"/>
<path d="M8.30957 71.2714L48.3898 121.504H48.5418L8.30957 71.0738V71.2714Z" fill="#DAE6ED"/>
<path d="M8.30957 71.4691L48.2226 121.504H48.3898L8.30957 71.2715V71.4691Z" fill="#DAE6ED"/>
<path d="M8.30957 71.6821L48.0706 121.504H48.2226L8.30957 71.4693V71.6821Z" fill="#DAE6ED"/>
<path d="M8.30957 71.8795L47.9034 121.504H48.0706L8.30957 71.6819V71.8795Z" fill="#DAE6ED"/>
<path d="M8.30957 72.0772L47.7515 121.504H47.9034L8.30957 71.8796V72.0772Z" fill="#DAE6ED"/>
<path d="M8.30957 72.2749L47.5843 121.504H47.7514L8.30957 72.0773V72.2749Z" fill="#DAE6ED"/>
<path d="M8.30957 72.4726L47.4323 121.505H47.5843L8.30957 72.275V72.4726Z" fill="#DAE6ED"/>
<path d="M8.30957 72.6712L47.2651 121.506H47.4323L8.30957 72.4736V72.6712Z" fill="#DAE6ED"/>
<path d="M8.30957 72.8669L47.1131 121.504H47.2651L8.30957 72.6693V72.8669Z" fill="#DAE6ED"/>
<path d="M8.30957 73.0808L46.9459 121.505H47.1131L8.30957 72.868V73.0808Z" fill="#DAE6ED"/>
<path d="M8.30957 73.2784L46.7939 121.505H46.9459L8.30957 73.0808V73.2784Z" fill="#DAE6ED"/>
<path d="M8.30957 73.4751L46.6267 121.504H46.7939L8.30957 73.2775V73.4751Z" fill="#DAE6ED"/>
<path d="M8.30957 73.6727L46.4747 121.504H46.6267L8.30957 73.4751V73.6727Z" fill="#DAE6ED"/>
<path d="M8.30957 73.8714L46.3075 121.505H46.4747L8.30957 73.6738V73.8714Z" fill="#DAE6ED"/>
<path d="M8.30957 74.0681L46.1555 121.504H46.3075L8.30957 73.8705V74.0681Z" fill="#DAE6ED"/>
<path d="M8.30957 74.2658L45.9883 121.504H46.1555L8.30957 74.0682V74.2658Z" fill="#DAE6ED"/>
<path d="M8.30957 74.4634L45.8364 121.504H45.9883L8.30957 74.2658V74.4634Z" fill="#DAE6ED"/>
<path d="M8.30957 74.6763L45.6692 121.504H45.8364L8.30957 74.4636V74.6763Z" fill="#DAE6ED"/>
<path d="M8.30957 74.8739L45.5172 121.504H45.6692L8.30957 74.6763V74.8739Z" fill="#DAE6ED"/>
<path d="M8.30957 75.0716L45.35 121.505H45.5172L8.30957 74.874V75.0716Z" fill="#DAE6ED"/>
<path d="M8.30957 75.2692L45.198 121.505H45.35L8.30957 75.0716V75.2692Z" fill="#DAE6ED"/>
<path d="M8.30957 75.4659L45.0308 121.504H45.198L8.30957 75.2683V75.4659Z" fill="#DAE6ED"/>
<path d="M8.30957 75.6646L44.8788 121.505H45.0308L8.30957 75.467V75.6646Z" fill="#DAE6ED"/>
<path d="M8.30957 75.8623L44.7268 121.505H44.8788L8.30957 75.6647V75.8623Z" fill="#DAE6ED"/>
<path d="M8.30957 76.0751L44.5596 121.505H44.7268L8.30957 75.8623V76.0751Z" fill="#DAE6ED"/>
<path d="M8.30957 76.2727L44.4076 121.505H44.5596L8.30957 76.0751V76.2727Z" fill="#DAE6ED"/>
<path d="M8.30957 76.4704L44.2404 121.505H44.4076L8.30957 76.2728V76.4704Z" fill="#DAE6ED"/>
<path d="M8.30957 76.6681L44.0884 121.505H44.2404L8.30957 76.4705V76.6681Z" fill="#DAE6ED"/>
<path d="M8.30957 76.8648L43.9213 121.504H44.0884L8.30957 76.6672V76.8648Z" fill="#DAE6ED"/>
<path d="M8.30957 77.0624L43.7693 121.504H43.9213L8.30957 76.8648V77.0624Z" fill="#DAE6ED"/>
<path d="M8.30957 77.2601L43.6021 121.504H43.7693L8.30957 77.0625V77.2601Z" fill="#DAE6ED"/>
<path d="M8.30957 77.4569L43.4501 121.504H43.6021L8.30957 77.2593V77.4569Z" fill="#DAE6ED"/>
<path d="M8.30957 77.6698L43.2829 121.504H43.4501L8.30957 77.457V77.6698Z" fill="#DAE6ED"/>
<path d="M8.30957 77.8692L43.1309 121.505H43.2829L8.30957 77.6716V77.8692Z" fill="#DAE6ED"/>
<path d="M8.30957 78.065L42.9637 121.504H43.1309L8.30957 77.8674V78.065Z" fill="#DAE6ED"/>
<path d="M8.30957 78.2626L42.8117 121.504H42.9637L8.30957 78.065V78.2626Z" fill="#DAE6ED"/>
<path d="M8.30957 78.4603L42.6445 121.504H42.8117L8.30957 78.2628V78.4603Z" fill="#DAE6ED"/>
<path d="M8.30957 78.658L42.4925 121.504H42.6445L8.30957 78.4604V78.658Z" fill="#DAE6ED"/>
<path d="M8.30957 78.8556L42.3253 121.504H42.4925L8.30957 78.6581V78.8556Z" fill="#DAE6ED"/>
<path d="M8.30957 79.0686L42.1733 121.504H42.3253L8.30957 78.8558V79.0686Z" fill="#DAE6ED"/>
<path d="M8.30957 79.2661L42.0062 121.504H42.1734L8.30957 79.0685V79.2661Z" fill="#DAE6ED"/>
<path d="M8.30957 79.4638L41.8542 121.504H42.0062L8.30957 79.2662V79.4638Z" fill="#DAE6ED"/>
<path d="M8.30957 79.6614L41.687 121.504H41.8542L8.30957 79.4638V79.6614Z" fill="#DAE6ED"/>
<path d="M8.30957 79.8591L41.535 121.504H41.687L8.30957 79.6615V79.8591Z" fill="#DAE6ED"/>
<path d="M8.30957 80.0568L41.3678 121.505H41.535L8.30957 79.8593V80.0568Z" fill="#DAE6ED"/>
<path d="M8.30957 80.2545L41.2158 121.505H41.3678L8.30957 80.0569V80.2545Z" fill="#DAE6ED"/>
<path d="M8.30957 80.4521L41.0638 121.505H41.2158L8.30957 80.2545V80.4521Z" fill="#DAE6ED"/>
<path d="M8.30957 80.6651L40.8966 121.505H41.0638L8.30957 80.4523V80.6651Z" fill="#DAE6ED"/>
<path d="M8.30957 80.8626L40.7446 121.505H40.8966L8.30957 80.665V80.8626Z" fill="#DAE6ED"/>
<path d="M8.30957 81.0593L40.5774 121.504H40.7446L8.30957 80.8617V81.0593Z" fill="#DAE6ED"/>
<path d="M8.30957 81.2579L40.4254 121.505H40.5774L8.30957 81.0603V81.2579Z" fill="#DAE6ED"/>
<path d="M8.30957 81.4538L40.2582 121.503H40.4254L8.30957 81.2562V81.4538Z" fill="#DAE6ED"/>
<path d="M8.30957 81.6533L40.1063 121.505H40.2583L8.30957 81.4557V81.6533Z" fill="#DAE6ED"/>
<path d="M8.30957 81.851L39.9391 121.505H40.1063L8.30957 81.6534V81.851Z" fill="#DAE6ED"/>
<path d="M8.30957 82.063L39.7871 121.504H39.9391L8.30957 81.8502V82.063Z" fill="#DAE6ED"/>
<path d="M8.30957 82.2605L39.6199 121.504H39.7871L8.30957 82.0629V82.2605Z" fill="#DAE6ED"/>
<path d="M39.6199 121.504L8.30957 82.2605V121.504H39.6199Z" fill="#DAE6ED"/>
<path d="M25.4678 54.644L67.0071 106.731V54.644H25.4678Z" fill="#DAE6ED"/>
<path d="M25.2988 54.644L67.0054 106.929V106.731L25.466 54.644H25.2988Z" fill="#DAE6ED"/>
<path d="M25.1484 54.644L67.007 107.126V106.929L25.3004 54.644H25.1484Z" fill="#DAE6ED"/>
<path d="M24.9785 54.644L67.0043 107.324V107.126L25.1457 54.644H24.9785Z" fill="#DAE6ED"/>
<path d="M24.8242 54.644L67.002 107.521V107.324L24.9762 54.644H24.8242Z" fill="#DAE6ED"/>
<path d="M24.6631 54.644L67.008 107.734V107.521L24.8303 54.644H24.6631Z" fill="#DAE6ED"/>
<path d="M24.5078 54.644L67.0047 107.932V107.734L24.6598 54.644H24.5078Z" fill="#DAE6ED"/>
<path d="M24.3574 54.644L67.0063 108.129V107.932L24.5094 54.644H24.3574Z" fill="#DAE6ED"/>
<path d="M24.1885 54.644L67.0046 108.327V108.129L24.3557 54.644H24.1885Z" fill="#DAE6ED"/>
<path d="M24.041 54.644L67.0091 108.524V108.327L24.193 54.644H24.041Z" fill="#DAE6ED"/>
<path d="M23.8721 54.644L67.0073 108.722V108.524L24.0393 54.644H23.8721Z" fill="#DAE6ED"/>
<path d="M23.7178 54.644L67.005 108.92V108.722L23.8698 54.644H23.7178Z" fill="#DAE6ED"/>
<path d="M23.5518 54.644L67.0062 109.117V108.92L23.7189 54.644H23.5518Z" fill="#DAE6ED"/>
<path d="M23.3975 54.644L67.0039 109.33V109.117L23.5495 54.644H23.3975Z" fill="#DAE6ED"/>
<path d="M23.2314 54.644L67.0051 109.528V109.33L23.3986 54.644H23.2314Z" fill="#DAE6ED"/>
<path d="M23.0811 54.644L67.0067 109.725V109.528L23.233 54.644H23.0811Z" fill="#DAE6ED"/>
<path d="M22.915 54.644L67.0079 109.923V109.725L23.0822 54.644H22.915Z" fill="#DAE6ED"/>
<path d="M22.7607 54.644L67.0056 110.12V109.923L22.9127 54.644H22.7607Z" fill="#DAE6ED"/>
<path d="M22.5918 54.644L67.0038 110.318V110.12L22.759 54.644H22.5918Z" fill="#DAE6ED"/>
<path d="M22.4414 54.644L67.0054 110.515V110.318L22.5934 54.644H22.4414Z" fill="#DAE6ED"/>
<path d="M22.2715 54.644L67.0027 110.728V110.515L22.4387 54.644H22.2715Z" fill="#DAE6ED"/>
<path d="M22.124 54.644L67.0072 110.926V110.728L22.276 54.644H22.124Z" fill="#DAE6ED"/>
<path d="M21.9551 54.644L67.0055 111.123V110.926L22.1223 54.644H21.9551Z" fill="#DAE6ED"/>
<path d="M21.8047 54.644L67.0071 111.321V111.123L21.9567 54.644H21.8047Z" fill="#DAE6ED"/>
<path d="M21.6348 54.644L67.0043 111.519V111.321L21.802 54.644H21.6348Z" fill="#DAE6ED"/>
<path d="M21.4805 54.644L67.002 111.716V111.519L21.6325 54.644H21.4805Z" fill="#DAE6ED"/>
<path d="M21.3154 54.644L67.0042 111.914V111.716L21.4826 54.644H21.3154Z" fill="#DAE6ED"/>
<path d="M21.1641 54.644L67.0048 112.111V111.914L21.3161 54.644H21.1641Z" fill="#DAE6ED"/>
<path d="M21.0137 54.644L67.0064 112.324V112.111L21.1657 54.644H21.0137Z" fill="#DAE6ED"/>
<path d="M20.8447 54.644L67.0046 112.522V112.324L21.0119 54.644H20.8447Z" fill="#DAE6ED"/>
<path d="M20.6895 54.644L67.0014 112.719V112.522L20.8414 54.644H20.6895Z" fill="#DAE6ED"/>
<path d="M20.5244 54.644L67.0035 112.917V112.719L20.6916 54.644H20.5244Z" fill="#DAE6ED"/>
<path d="M20.374 54.644L67.0051 113.115V112.917L20.526 54.644H20.374Z" fill="#DAE6ED"/>
<path d="M20.208 54.644L67.0063 113.312V113.115L20.3752 54.644H20.208Z" fill="#DAE6ED"/>
<path d="M20.0576 54.644L67.0079 113.51V113.312L20.2096 54.644H20.0576Z" fill="#DAE6ED"/>
<path d="M19.8887 54.644L67.0061 113.722V113.51L20.0559 54.644H19.8887Z" fill="#DAE6ED"/>
<path d="M19.7373 54.644L66.9308 113.814L67.0068 113.738V113.722L19.8893 54.644H19.7373Z" fill="#DAE6ED"/>
<path d="M19.5723 54.644L66.8417 113.89L66.9329 113.814L19.7395 54.644H19.5723Z" fill="#DAE6ED"/>
<path d="M19.418 54.644L66.733 113.966L66.8394 113.89L19.57 54.644H19.418Z" fill="#DAE6ED"/>
<path d="M19.248 54.644L66.6391 114.042L66.7303 113.966L19.4152 54.644H19.248Z" fill="#DAE6ED"/>
<path d="M19.0977 54.644L66.5343 114.118L66.6407 114.042L19.2496 54.644H19.0977Z" fill="#DAE6ED"/>
<path d="M18.9277 54.644L66.4404 114.194L66.5316 114.118L19.0949 54.644H18.9277Z" fill="#DAE6ED"/>
<path d="M18.7812 54.644L66.3395 114.27L66.4459 114.194L18.9332 54.644H18.7812Z" fill="#DAE6ED"/>
<path d="M18.6113 54.644L66.2456 114.361L66.3368 114.27L18.7785 54.644H18.6113Z" fill="#DAE6ED"/>
<path d="M18.457 54.644L66.1521 114.437L66.2433 114.361L18.609 54.644H18.457Z" fill="#DAE6ED"/>
<path d="M18.291 54.644L66.0468 114.513L66.1532 114.437L18.4582 54.644H18.291Z" fill="#DAE6ED"/>
<path d="M18.1406 54.644L65.9572 114.589L66.0484 114.513L18.2926 54.644H18.1406Z" fill="#DAE6ED"/>
<path d="M18.1234 54.644L18.0322 54.7199L65.8489 114.665L65.9552 114.589L18.1386 54.644H18.1234Z" fill="#DAE6ED"/>
<path d="M18.0296 54.7338L17.9346 54.8097L65.784 114.727L65.8791 114.652L18.0296 54.7338Z" fill="#DAE6ED"/>
<path d="M17.9496 54.7865L17.8545 54.8623L65.6516 114.822L65.7467 114.746L17.9496 54.7865Z" fill="#DAE6ED"/>
<path d="M17.8138 54.8843L17.7188 54.9602L65.5682 114.878L65.6632 114.802L17.8138 54.8843Z" fill="#DAE6ED"/>
<path d="M17.7425 54.9654L17.6475 55.0412L65.4969 114.959L65.5919 114.883L17.7425 54.9654Z" fill="#DAE6ED"/>
<path d="M17.6527 55.0361L17.5576 55.1118L65.3443 115.08L65.4394 115.004L17.6527 55.0361Z" fill="#DAE6ED"/>
<path d="M17.5697 55.1151L17.4746 55.1909L65.2718 115.15L65.3668 115.075L17.5697 55.1151Z" fill="#DAE6ED"/>
<path d="M17.4446 55.2025L17.3496 55.2784L65.1991 115.196L65.2941 115.12L17.4446 55.2025Z" fill="#DAE6ED"/>
<path d="M17.3323 55.2826L17.2373 55.3584L65.0868 115.276L65.1818 115.2L17.3323 55.2826Z" fill="#DAE6ED"/>
<path d="M17.2718 55.3363L17.1768 55.4121L64.9739 115.372L65.069 115.296L17.2718 55.3363Z" fill="#DAE6ED"/>
<path d="M17.1781 55.4098L17.083 55.4855L64.8697 115.453L64.9648 115.378L17.1781 55.4098Z" fill="#DAE6ED"/>
<path d="M17.0462 55.5047L16.9512 55.5806L64.8006 115.498L64.8957 115.423L17.0462 55.5047Z" fill="#DAE6ED"/>
<path d="M16.9515 55.5744L16.8564 55.6502L64.7059 115.568L64.8009 115.492L16.9515 55.5744Z" fill="#DAE6ED"/>
<path d="M16.8695 55.6563L16.7744 55.7321L64.582 115.683L64.6771 115.608L16.8695 55.6563Z" fill="#DAE6ED"/>
<path d="M16.7904 55.7279L16.6953 55.8037L64.482 115.772L64.5771 115.696L16.7904 55.7279Z" fill="#DAE6ED"/>
<path d="M16.6546 55.8332L16.5596 55.9091L64.409 115.827L64.504 115.751L16.6546 55.8332Z" fill="#DAE6ED"/>
<path d="M16.5677 55.9038L16.4727 55.9797L64.3221 115.897L64.4171 115.822L16.5677 55.9038Z" fill="#DAE6ED"/>
<path d="M16.4925 55.9575L16.3975 56.0333L64.1946 115.993L64.2897 115.917L16.4925 55.9575Z" fill="#DAE6ED"/>
<path d="M16.3685 56.0553L16.2734 56.1312L64.1229 116.049L64.2179 115.973L16.3685 56.0553Z" fill="#DAE6ED"/>
<path d="M16.2972 56.1016L16.2021 56.1774L63.9888 116.145L64.0839 116.07L16.2972 56.1016Z" fill="#DAE6ED"/>
<path d="M16.18 56.1882L16.085 56.264L63.8821 116.224L63.9772 116.148L16.18 56.1882Z" fill="#DAE6ED"/>
<path d="M16.0706 56.2757L15.9756 56.3515L63.8251 116.269L63.9201 116.193L16.0706 56.2757Z" fill="#DAE6ED"/>
<path d="M15.9729 56.3471L15.8779 56.423L63.7274 116.341L63.8224 116.265L15.9729 56.3471Z" fill="#DAE6ED"/>
<path d="M15.886 56.4385L15.791 56.5144L63.6405 116.432L63.7355 116.356L15.886 56.4385Z" fill="#DAE6ED"/>
<path d="M15.8491 56.4735L15.7539 56.5492L63.4987 116.55L63.5939 116.475L15.8491 56.4735Z" fill="#DAE6ED"/>
<path d="M15.68 56.6061L15.585 56.6819L63.4344 116.6L63.5294 116.524L15.68 56.6061Z" fill="#DAE6ED"/>
<path d="M15.5892 56.6757L15.4941 56.7516L63.3436 116.669L63.4386 116.594L15.5892 56.6757Z" fill="#DAE6ED"/>
<path d="M15.514 56.7285L15.4189 56.8043L63.2161 116.764L63.3112 116.688L15.514 56.7285Z" fill="#DAE6ED"/>
<path d="M15.3968 56.8263L15.3018 56.9021L63.1512 116.82L63.2462 116.744L15.3968 56.8263Z" fill="#DAE6ED"/>
<path d="M15.3334 56.8876L15.2383 56.9633L63.025 116.931L63.1201 116.855L15.3334 56.8876Z" fill="#DAE6ED"/>
<path d="M15.2015 56.9779L15.1064 57.0538L62.9559 116.972L63.0509 116.896L15.2015 56.9779Z" fill="#DAE6ED"/>
<path d="M15.1185 57.0448L15.0234 57.1206L62.8206 117.08L62.9157 117.004L15.1185 57.0448Z" fill="#DAE6ED"/>
<path d="M15.0052 57.1464L14.9102 57.2223L62.7596 117.14L62.8546 117.064L15.0052 57.1464Z" fill="#DAE6ED"/>
<path d="M14.934 57.201L14.8389 57.2768L62.6256 117.245L62.7207 117.169L14.934 57.201Z" fill="#DAE6ED"/>
<path d="M14.8138 57.2979L14.7188 57.3738L62.5682 117.292L62.6632 117.216L14.8138 57.2979Z" fill="#DAE6ED"/>
<path d="M14.7386 57.3592L14.6436 57.435L62.4407 117.395L62.5358 117.319L14.7386 57.3592Z" fill="#DAE6ED"/>
<path d="M14.6175 57.4485L14.5225 57.5244L62.3719 117.442L62.4669 117.366L14.6175 57.4485Z" fill="#DAE6ED"/>
<path d="M14.5159 57.5191L14.4209 57.595L62.2704 117.513L62.3654 117.437L14.5159 57.5191Z" fill="#DAE6ED"/>
<path d="M14.4741 57.5627L14.3789 57.6384L62.1237 117.64L62.2189 117.564L14.4741 57.5627Z" fill="#DAE6ED"/>
<path d="M14.3206 57.6698L14.2256 57.7457L62.0751 117.663L62.1701 117.588L14.3206 57.6698Z" fill="#DAE6ED"/>
<path d="M14.2259 57.7649L14.1309 57.8407L61.9803 117.759L62.0753 117.683L14.2259 57.7649Z" fill="#DAE6ED"/>
<path d="M14.1351 57.8477L14.04 57.9236L61.8895 117.841L61.9845 117.766L14.1351 57.8477Z" fill="#DAE6ED"/>
<path d="M14.0716 57.8995L13.9766 57.9753L61.7737 117.935L61.8688 117.859L14.0716 57.8995Z" fill="#DAE6ED"/>
<path d="M13.9584 57.9739L13.8633 58.0497L61.65 118.018L61.7451 117.942L13.9584 57.9739Z" fill="#DAE6ED"/>
<path d="M13.8382 58.0689L13.7432 58.1447L61.5926 118.063L61.6876 117.987L13.8382 58.0689Z" fill="#DAE6ED"/>
<path d="M13.7395 58.1489L13.6445 58.2248L61.494 118.143L61.589 118.067L13.7395 58.1489Z" fill="#DAE6ED"/>
<path d="M13.6644 58.2158L13.5693 58.2916L61.3665 118.251L61.4616 118.175L13.6644 58.2158Z" fill="#DAE6ED"/>
<path d="M13.556 58.2901L13.4609 58.3659L61.3104 118.284L61.4054 118.208L13.556 58.2901Z" fill="#DAE6ED"/>
<path d="M13.4808 58.3598L13.3857 58.4356L61.1724 118.403L61.2675 118.328L13.4808 58.3598Z" fill="#DAE6ED"/>
<path d="M13.3792 58.4304L13.2842 58.5062L61.0918 118.457L61.1869 118.382L13.3792 58.4304Z" fill="#DAE6ED"/>
<path d="M13.2581 58.549L13.1631 58.6248L61.0126 118.543L61.1076 118.467L13.2581 58.549Z" fill="#DAE6ED"/>
<path d="M13.1604 58.6186L13.0654 58.6945L60.9149 118.612L61.0099 118.536L13.1604 58.6186Z" fill="#DAE6ED"/>
<path d="M13.0735 58.6891L12.9785 58.765L60.828 118.683L60.923 118.607L13.0735 58.6891Z" fill="#DAE6ED"/>
<path d="M13.0131 58.7411L12.918 58.8168L60.6523 118.826L60.7475 118.751L13.0131 58.7411Z" fill="#DAE6ED"/>
<path d="M12.8626 58.8408L12.7676 58.9167L60.617 118.834L60.7121 118.759L12.8626 58.8408Z" fill="#DAE6ED"/>
<path d="M12.7649 58.9208L12.6699 58.9967L60.5194 118.915L60.6144 118.839L12.7649 58.9208Z" fill="#DAE6ED"/>
<path d="M12.6673 58.9913L12.5723 59.0672L60.4217 118.985L60.5167 118.909L12.6673 58.9913Z" fill="#DAE6ED"/>
<path d="M12.6293 59.0263L12.5342 59.102L60.279 119.103L60.3741 119.028L12.6293 59.0263Z" fill="#DAE6ED"/>
<path d="M12.4671 59.157L12.3721 59.2329L60.2215 119.151L60.3165 119.075L12.4671 59.157Z" fill="#DAE6ED"/>
<path d="M12.3851 59.2295L12.29 59.3054L60.1395 119.223L60.2345 119.147L12.3851 59.2295Z" fill="#DAE6ED"/>
<path d="M12.3011 59.3012L12.2061 59.377L60.0032 119.337L60.0983 119.261L12.3011 59.3012Z" fill="#DAE6ED"/>
<path d="M12.177 59.3914L12.082 59.4673L59.9315 119.385L60.0265 119.309L12.177 59.3914Z" fill="#DAE6ED"/>
<path d="M12.1176 59.4518L12.0225 59.5275L59.8092 119.495L59.9042 119.42L12.1176 59.4518Z" fill="#DAE6ED"/>
<path d="M11.9856 59.5421L11.8906 59.618L59.7401 119.536L59.8351 119.46L11.9856 59.5421Z" fill="#DAE6ED"/>
<path d="M11.9183 59.609L11.8232 59.6848L59.6204 119.644L59.7155 119.569L11.9183 59.609Z" fill="#DAE6ED"/>
<path d="M11.7854 59.7086L11.6904 59.7845L59.5399 119.702L59.6349 119.626L11.7854 59.7086Z" fill="#DAE6ED"/>
<path d="M11.6917 59.7783L11.5967 59.8542L59.4461 119.772L59.5412 119.696L11.6917 59.7783Z" fill="#DAE6ED"/>
<path d="M11.639 59.8246L11.5439 59.9003L59.3306 119.868L59.4257 119.792L11.639 59.8246Z" fill="#DAE6ED"/>
<path d="M11.5267 59.912L11.4316 59.9878L59.2288 119.947L59.3239 119.872L11.5267 59.912Z" fill="#DAE6ED"/>
<path d="M11.4173 60.0118L11.3223 60.0877L59.1717 120.005L59.2667 119.93L11.4173 60.0118Z" fill="#DAE6ED"/>
<path d="M11.3079 60.0927L11.2129 60.1685L59.0624 120.086L59.1574 120.01L11.3079 60.0927Z" fill="#DAE6ED"/>
<path d="M11.2396 60.1596L11.1445 60.2354L58.9417 120.195L59.0368 120.119L11.2396 60.1596Z" fill="#DAE6ED"/>
<path d="M11.142 60.2321L11.0469 60.3079L58.8336 120.276L58.9287 120.2L11.142 60.2321Z" fill="#DAE6ED"/>
<path d="M11.0101 60.329L10.915 60.4049L58.7645 120.323L58.8595 120.247L11.0101 60.329Z" fill="#DAE6ED"/>
<path d="M10.928 60.4005L10.833 60.4764L58.6825 120.394L58.7775 120.318L10.928 60.4005Z" fill="#DAE6ED"/>
<path d="M10.848 60.46L10.7529 60.5358L58.5501 120.495L58.6452 120.42L10.848 60.46Z" fill="#DAE6ED"/>
<path d="M10.7426 60.5249L10.6475 60.6006L58.4342 120.569L58.5292 120.493L10.7426 60.5249Z" fill="#DAE6ED"/>
<path d="M10.6145 60.6312L10.5195 60.7071L58.369 120.625L58.464 120.549L10.6145 60.6312Z" fill="#DAE6ED"/>
<path d="M10.5286 60.7139L10.4336 60.7898L58.2831 120.708L58.3781 120.632L10.5286 60.7139Z" fill="#DAE6ED"/>
<path d="M10.4574 60.78L10.3623 60.8558L58.1595 120.815L58.2545 120.74L10.4574 60.78Z" fill="#DAE6ED"/>
<path d="M10.3323 60.8646L10.2373 60.9405L58.0868 120.858L58.1818 120.782L10.3323 60.8646Z" fill="#DAE6ED"/>
<path d="M10.2611 60.924L10.166 60.9998L57.9527 120.968L58.0478 120.892L10.2611 60.924Z" fill="#DAE6ED"/>
<path d="M10.1673 61.0106L10.0723 61.0864L57.8694 121.046L57.9645 120.97L10.1673 61.0106Z" fill="#DAE6ED"/>
<path d="M10.0354 61.1018L9.94043 61.1777L57.7899 121.095L57.8849 121.02L10.0354 61.1018Z" fill="#DAE6ED"/>
<path d="M9.95244 61.1714L9.85742 61.2473L57.7069 121.165L57.8019 121.089L9.95244 61.1714Z" fill="#DAE6ED"/>
<path d="M9.83916 61.2515L9.74414 61.3274L57.5936 121.245L57.6886 121.169L9.83916 61.2515Z" fill="#DAE6ED"/>
<path d="M9.79827 61.2846L9.70312 61.3604L57.4479 121.362L57.5431 121.286L9.79827 61.2846Z" fill="#DAE6ED"/>
<path d="M9.63994 61.403L9.54492 61.4789L57.3944 121.397L57.4894 121.321L9.63994 61.403Z" fill="#DAE6ED"/>
<path d="M9.56865 61.485L9.47363 61.5609L57.3231 121.479L57.4181 121.403L9.56865 61.485Z" fill="#DAE6ED"/>
<path d="M9.47001 61.5565L9.375 61.6324L57.2245 121.55L57.3195 121.474L9.47001 61.5565Z" fill="#DAE6ED"/>
<path d="M9.38707 61.6318L9.29199 61.7076L57.0891 121.667L57.1842 121.591L9.38707 61.6318Z" fill="#DAE6ED"/>
<path d="M9.30115 61.6949L9.20605 61.7707L56.9927 121.739L57.0878 121.663L9.30115 61.6949Z" fill="#DAE6ED"/>
<path d="M9.15751 61.8022L9.0625 61.8781L56.912 121.796L57.007 121.72L9.15751 61.8022Z" fill="#DAE6ED"/>
<path d="M9.0902 61.854L8.99512 61.9298L56.7923 121.889L56.8874 121.814L9.0902 61.854Z" fill="#DAE6ED"/>
<path d="M8.99214 61.9392L8.88574 62.0152L56.672 121.914H56.7632L56.8088 121.884L8.99214 61.9392Z" fill="#DAE6ED"/>
<path d="M8.88221 62.0154L8.79102 62.1066L56.5164 121.915H56.6684L8.88221 62.0154Z" fill="#DAE6ED"/>
<path d="M8.79237 62.1068L8.70117 62.1828L56.3506 121.915H56.5178L8.79237 62.1068Z" fill="#DAE6ED"/>
<path d="M8.7021 62.1831L8.5957 62.2591L56.1995 121.915H56.3515L8.7021 62.1831Z" fill="#DAE6ED"/>
<path d="M8.59315 62.2574L8.50195 62.3334L56.0298 121.913H56.197L8.59315 62.2574Z" fill="#DAE6ED"/>
<path d="M8.50581 62.3346L8.39941 62.4106L55.8817 121.915H56.0336L8.50581 62.3346Z" fill="#DAE6ED"/>
<path d="M8.40077 62.4109L8.30957 62.4869L55.7158 121.915H55.883L8.40077 62.4109Z" fill="#DAE6ED"/>
<path d="M8.30311 62.4871L8.21191 62.5631L55.5574 121.915H55.7094L8.30311 62.4871Z" fill="#DAE6ED"/>
<path d="M8.21284 62.5624L8.10645 62.6384L55.4063 121.914H55.5583L8.21284 62.5624Z" fill="#DAE6ED"/>
<path d="M8.1078 62.6386L8.0166 62.7146L55.2405 121.915H55.4077L8.1078 62.6386Z" fill="#DAE6ED"/>
<path d="M8.01655 62.7149L7.91016 62.7909L55.0884 121.915H55.2404L8.01655 62.7149Z" fill="#DAE6ED"/>
<path d="M7.91071 62.7902L7.89551 62.8206V62.9574L54.9218 121.914H55.089L7.91071 62.7902Z" fill="#DAE6ED"/>
<path d="M7.89551 63.1563L54.7698 121.916H54.9218L7.89551 62.9587V63.1563Z" fill="#DAE6ED"/>
<path d="M7.89551 63.3692L54.6026 121.916H54.7698L7.89551 63.1564V63.3692Z" fill="#DAE6ED"/>
<path d="M7.89551 63.5667L54.4506 121.916H54.6026L7.89551 63.3691V63.5667Z" fill="#DAE6ED"/>
<path d="M7.89551 63.7643L54.2834 121.916H54.4506L7.89551 63.5667V63.7643Z" fill="#DAE6ED"/>
<path d="M7.89551 63.9612L54.1314 121.915H54.2834L7.89551 63.7636V63.9612Z" fill="#DAE6ED"/>
<path d="M7.89551 64.1587L53.9642 121.915H54.1314L7.89551 63.9612V64.1587Z" fill="#DAE6ED"/>
<path d="M7.89551 64.3565L53.8122 121.915H53.9642L7.89551 64.1589V64.3565Z" fill="#DAE6ED"/>
<path d="M7.89551 64.5542L53.6451 121.915H53.8122L7.89551 64.3566V64.5542Z" fill="#DAE6ED"/>
<path d="M7.89551 64.7509L53.493 121.914H53.645L7.89551 64.5533V64.7509Z" fill="#DAE6ED"/>
<path d="M7.89551 64.9637L53.3259 121.914H53.4931L7.89551 64.7509V64.9637Z" fill="#DAE6ED"/>
<path d="M7.89551 65.1612L53.1739 121.914H53.3259L7.89551 64.9637V65.1612Z" fill="#DAE6ED"/>
<path d="M7.89551 65.359L53.0067 121.914H53.1739L7.89551 65.1614V65.359Z" fill="#DAE6ED"/>
<path d="M7.89551 65.5567L52.8547 121.915H53.0067L7.89551 65.3591V65.5567Z" fill="#DAE6ED"/>
<path d="M7.89551 65.7543L52.6875 121.915H52.8547L7.89551 65.5567V65.7543Z" fill="#DAE6ED"/>
<path d="M7.89551 65.953L52.5355 121.916H52.6875L7.89551 65.7554V65.953Z" fill="#DAE6ED"/>
<path d="M7.89551 66.1497L52.3683 121.915H52.5355L7.89551 65.9521V66.1497Z" fill="#DAE6ED"/>
<path d="M7.89551 66.3616L52.2163 121.914H52.3683L7.89551 66.1488V66.3616Z" fill="#DAE6ED"/>
<path d="M7.89551 66.5601L52.0491 121.915H52.2163L7.89551 66.3625V66.5601Z" fill="#DAE6ED"/>
<path d="M7.89551 66.7569L51.8971 121.914H52.0491L7.89551 66.5593V66.7569Z" fill="#DAE6ED"/>
<path d="M7.89551 66.9555L51.7452 121.915H51.8971L7.89551 66.7579V66.9555Z" fill="#DAE6ED"/>
<path d="M7.89551 67.1532L51.578 121.915H51.7451L7.89551 66.9556V67.1532Z" fill="#DAE6ED"/>
<path d="M7.89551 67.3499L51.426 121.914H51.578L7.89551 67.1523V67.3499Z" fill="#DAE6ED"/>
<path d="M7.89551 67.5475L51.2588 121.914H51.426L7.89551 67.3499V67.5475Z" fill="#DAE6ED"/>
<path d="M7.89551 67.7614L51.1068 121.915H51.2588L7.89551 67.5486V67.7614Z" fill="#DAE6ED"/>
<path d="M7.89551 67.958L50.9396 121.914H51.1068L7.89551 67.7604V67.958Z" fill="#DAE6ED"/>
<path d="M7.89551 68.1557L50.7876 121.915H50.9396L7.89551 67.9581V68.1557Z" fill="#DAE6ED"/>
<path d="M7.89551 68.3542L50.6204 121.916H50.7876L7.89551 68.1566V68.3542Z" fill="#DAE6ED"/>
<path d="M7.89551 68.551L50.4684 121.915H50.6204L7.89551 68.3534V68.551Z" fill="#DAE6ED"/>
<path d="M7.89551 68.7477L50.3012 121.914H50.4684L7.89551 68.5501V68.7477Z" fill="#DAE6ED"/>
<path d="M7.89551 68.9464L50.1492 121.915H50.3012L7.89551 68.7488V68.9464Z" fill="#DAE6ED"/>
<path d="M7.89551 69.144L49.982 121.915H50.1492L7.89551 68.9464V69.144Z" fill="#DAE6ED"/>
<path d="M7.89551 69.3569L49.83 121.915H49.982L7.89551 69.1441V69.3569Z" fill="#DAE6ED"/>
<path d="M7.89551 69.5554L49.6629 121.916H49.8301L7.89551 69.3578V69.5554Z" fill="#DAE6ED"/>
<path d="M7.89551 69.7522L49.5109 121.915H49.6629L7.89551 69.5546V69.7522Z" fill="#DAE6ED"/>
<path d="M7.89551 69.9499L49.3437 121.915H49.5109L7.89551 69.7523V69.9499Z" fill="#DAE6ED"/>
<path d="M7.89551 70.1474L49.1917 121.915H49.3437L7.89551 69.9499V70.1474Z" fill="#DAE6ED"/>
<path d="M7.89551 70.3442L49.0245 121.914H49.1917L7.89551 70.1466V70.3442Z" fill="#DAE6ED"/>
<path d="M7.89551 70.5419L48.8725 121.915H49.0245L7.89551 70.3443V70.5419Z" fill="#DAE6ED"/>
<path d="M7.89551 70.7548L48.7053 121.915H48.8725L7.89551 70.542V70.7548Z" fill="#DAE6ED"/>
<path d="M7.89551 70.9523L48.5533 121.915H48.7053L7.89551 70.7548V70.9523Z" fill="#DAE6ED"/>
<path d="M7.89551 71.1509L48.3861 121.916H48.5533L7.89551 70.9533V71.1509Z" fill="#DAE6ED"/>
<path d="M7.89551 71.3467L48.2341 121.914H48.3861L7.89551 71.1491V71.3467Z" fill="#DAE6ED"/>
<path d="M7.89551 71.5462L48.0821 121.916H48.2341L7.89551 71.3487V71.5462Z" fill="#DAE6ED"/>
<path d="M7.89551 71.743L47.915 121.915H48.0821L7.89551 71.5454V71.743Z" fill="#DAE6ED"/>
<path d="M7.89551 71.9397L47.763 121.914H47.915L7.89551 71.7421V71.9397Z" fill="#DAE6ED"/>
<path d="M7.89551 72.1374L47.5958 121.914H47.763L7.89551 71.9398V72.1374Z" fill="#DAE6ED"/>
<path d="M7.89551 72.3503L47.4438 121.914H47.5958L7.89551 72.1375V72.3503Z" fill="#DAE6ED"/>
<path d="M7.89551 72.5479L47.2766 121.914H47.4438L7.89551 72.3503V72.5479Z" fill="#DAE6ED"/>
<path d="M7.89551 72.7456L47.1246 121.914H47.2766L7.89551 72.548V72.7456Z" fill="#DAE6ED"/>
<path d="M7.89551 72.9442L46.9574 121.915H47.1246L7.89551 72.7466V72.9442Z" fill="#DAE6ED"/>
<path d="M7.89551 73.1409L46.8054 121.914H46.9574L7.89551 72.9433V73.1409Z" fill="#DAE6ED"/>
<path d="M7.89551 73.3386L46.6382 121.915H46.8054L7.89551 73.141V73.3386Z" fill="#DAE6ED"/>
<path d="M7.89551 73.5362L46.4862 121.915H46.6382L7.89551 73.3386V73.5362Z" fill="#DAE6ED"/>
<path d="M7.89551 73.7491L46.319 121.915H46.4862L7.89551 73.5363V73.7491Z" fill="#DAE6ED"/>
<path d="M7.89551 73.9467L46.167 121.915H46.319L7.89551 73.7491V73.9467Z" fill="#DAE6ED"/>
<path d="M7.89551 74.1453L45.9999 121.916H46.167L7.89551 73.9478V74.1453Z" fill="#DAE6ED"/>
<path d="M7.89551 74.3421L45.8479 121.915H45.9999L7.89551 74.1445V74.3421Z" fill="#DAE6ED"/>
<path d="M7.89551 74.5397L45.6807 121.915H45.8479L7.89551 74.3421V74.5397Z" fill="#DAE6ED"/>
<path d="M7.89551 74.7374L45.5287 121.915H45.6807L7.89551 74.5398V74.7374Z" fill="#DAE6ED"/>
<path d="M7.89551 74.9351L45.3615 121.915H45.5287L7.89551 74.7375V74.9351Z" fill="#DAE6ED"/>
<path d="M7.89551 75.1327L45.2095 121.915H45.3615L7.89551 74.9351V75.1327Z" fill="#DAE6ED"/>
<path d="M7.89551 75.3456L45.0423 121.915H45.2095L7.89551 75.1328V75.3456Z" fill="#DAE6ED"/>
<path d="M7.89551 75.5431L44.8903 121.915H45.0423L7.89551 75.3456V75.5431Z" fill="#DAE6ED"/>
<path d="M7.89551 75.7409L44.7383 121.915H44.8903L7.89551 75.5433V75.7409Z" fill="#DAE6ED"/>
<path d="M7.89551 75.9376L44.5711 121.915H44.7383L7.89551 75.74V75.9376Z" fill="#DAE6ED"/>
<path d="M7.89551 76.1353L44.4191 121.915H44.5711L7.89551 75.9377V76.1353Z" fill="#DAE6ED"/>
<path d="M7.89551 76.3339L44.252 121.916H44.4191L7.89551 76.1363V76.3339Z" fill="#DAE6ED"/>
<path d="M7.89551 76.5297L44.1 121.914H44.2519L7.89551 76.3321V76.5297Z" fill="#DAE6ED"/>
<path d="M7.89551 76.7425L43.9328 121.914H44.1L7.89551 76.5298V76.7425Z" fill="#DAE6ED"/>
<path d="M7.89551 76.9419L43.7808 121.916H43.9328L7.89551 76.7444V76.9419Z" fill="#DAE6ED"/>
<path d="M7.89551 77.1378L43.6136 121.914H43.7808L7.89551 76.9402V77.1378Z" fill="#DAE6ED"/>
<path d="M7.89551 77.3364L43.4616 121.915H43.6136L7.89551 77.1388V77.3364Z" fill="#DAE6ED"/>
<path d="M7.89551 77.5341L43.2944 121.915H43.4616L7.89551 77.3365V77.5341Z" fill="#DAE6ED"/>
<path d="M7.89551 77.7308L43.1424 121.914H43.2944L7.89551 77.5332V77.7308Z" fill="#DAE6ED"/>
<path d="M7.89551 77.9285L42.9752 121.914H43.1424L7.89551 77.731V77.9285Z" fill="#DAE6ED"/>
<path d="M7.89551 78.1261L42.8232 121.914H42.9752L7.89551 77.9285V78.1261Z" fill="#DAE6ED"/>
<path d="M7.89551 78.339L42.656 121.915H42.8232L7.89551 78.1263V78.339Z" fill="#DAE6ED"/>
<path d="M7.89551 78.5366L42.5041 121.915H42.656L7.89551 78.339V78.5366Z" fill="#DAE6ED"/>
<path d="M7.89551 78.7343L42.3369 121.915H42.5041L7.89551 78.5367V78.7343Z" fill="#DAE6ED"/>
<path d="M7.89551 78.9319L42.1849 121.915H42.3369L7.89551 78.7343V78.9319Z" fill="#DAE6ED"/>
<path d="M7.89551 79.1296L42.0177 121.915H42.1849L7.89551 78.932V79.1296Z" fill="#DAE6ED"/>
<path d="M7.89551 79.3273L41.8657 121.915H42.0177L7.89551 79.1297V79.3273Z" fill="#DAE6ED"/>
<path d="M7.89551 79.5249L41.6985 121.915H41.8657L7.89551 79.3273V79.5249Z" fill="#DAE6ED"/>
<path d="M7.89551 79.7378L41.5465 121.915H41.6985L7.89551 79.525V79.7378Z" fill="#DAE6ED"/>
<path d="M7.89551 79.9344L41.3793 121.914H41.5465L7.89551 79.7368V79.9344Z" fill="#DAE6ED"/>
<path d="M7.89551 80.1331L41.2273 121.915H41.3793L7.89551 79.9355V80.1331Z" fill="#DAE6ED"/>
<path d="M7.89551 80.3308L41.0753 121.915H41.2273L7.89551 80.1332V80.3308Z" fill="#DAE6ED"/>
<path d="M7.89551 80.5275L40.9081 121.914H41.0753L7.89551 80.33V80.5275Z" fill="#DAE6ED"/>
<path d="M7.89551 80.7251L40.7561 121.914H40.9081L7.89551 80.5275V80.7251Z" fill="#DAE6ED"/>
<path d="M7.89551 80.9238L40.589 121.916H40.7561L7.89551 80.7262V80.9238Z" fill="#DAE6ED"/>
<path d="M7.89551 81.1206L40.437 121.915H40.589L7.89551 80.923V81.1206Z" fill="#DAE6ED"/>
<path d="M7.89551 81.3333L40.2698 121.915H40.437L7.89551 81.1205V81.3333Z" fill="#DAE6ED"/>
<path d="M7.89551 81.5318L40.1178 121.916H40.2698L7.89551 81.3343V81.5318Z" fill="#DAE6ED"/>
<path d="M7.89551 81.7286L39.9506 121.915H40.1178L7.89551 81.531V81.7286Z" fill="#DAE6ED"/>
<path d="M39.9506 121.914L7.89551 81.7278V121.914H39.9506Z" fill="#DAE6ED"/>
</g>
<path d="M20.3763 114.313C15.1326 109.419 11.2568 102.595 9.47846 95.1171C7.47217 86.6513 8.20173 77.9423 11.5304 70.5859C15.239 62.4393 21.6226 56.8764 29.5414 54.931C31.4565 54.4598 33.4324 54.2166 35.4235 54.2166C42.2327 54.2166 49.0115 57.0588 54.5288 62.2265C59.7726 67.1358 63.6484 73.9601 65.4267 81.4228C67.433 89.8887 66.7034 98.5977 63.3748 105.954C59.6814 114.101 53.2825 119.664 45.3637 121.609C43.4486 122.08 41.4727 122.323 39.4817 122.323C32.6876 122.323 25.8936 119.481 20.3763 114.298V114.313ZM35.4235 55.4781H35.3931C33.5236 55.4781 31.6389 55.7061 29.8302 56.1469C22.2914 58.0012 16.1965 63.3208 12.6551 71.1027C9.43287 78.1854 8.7337 86.6209 10.6792 94.8283C12.4119 102.048 16.1509 108.644 21.2274 113.402C26.5167 118.356 33.0068 121.077 39.4817 121.077H39.512C41.3815 121.077 43.2662 120.849 45.075 120.408C52.6137 118.554 58.7086 113.234 62.25 105.452C65.4723 98.3545 66.1714 89.9343 64.2259 81.7268C62.4932 74.5073 58.7542 67.9109 53.6777 63.1536C48.3884 58.1988 41.9135 55.4781 35.4235 55.4781Z" fill="#DAE6ED"/>
<path d="M10.2724 94.4347C8.76765 88.2639 9.28442 81.9411 11.7163 76.6367C14.2698 71.1042 18.6167 67.3501 23.9364 66.0582H23.9516C25.4108 65.1918 26.9763 64.5535 28.6178 64.1583C29.8945 63.8543 31.2168 63.6871 32.5392 63.7023C42.0995 63.7023 51.0214 71.8946 53.742 83.1874C55.2468 89.3886 54.73 95.7114 52.2981 100.985C49.7446 106.518 45.3977 110.272 40.078 111.564H40.0628C38.6036 112.43 37.0381 113.069 35.3966 113.464C34.1199 113.768 32.7976 113.935 31.4752 113.935C21.9149 113.935 13.0082 105.743 10.2724 94.4499V94.4347ZM52.1005 100.894C54.502 95.6658 55.0188 89.3886 53.5444 83.233C50.839 72.0314 42.0083 63.9151 32.5392 63.9151C31.232 63.9151 29.9401 64.0671 28.6786 64.3711C27.0523 64.7662 25.4868 65.3894 24.0428 66.2557H24.0124H23.982C18.7231 67.5325 14.4369 71.241 11.9139 76.7127C9.49721 81.9715 8.98043 88.2487 10.47 94.3739C13.1754 105.576 22.0061 113.707 31.4752 113.707C32.7824 113.707 34.0743 113.555 35.3358 113.251C36.9621 112.856 38.5277 112.233 39.9716 111.366H40.002H40.0324C45.2761 110.09 49.5775 106.381 52.1005 100.909V100.894Z" fill="#DAE6ED"/>
<path d="M38.5877 112.431C44.4393 111.108 49.7135 106.731 52.3733 101.001C54.8204 95.6965 55.3372 89.3433 53.8324 83.1269C51.0966 71.7885 42.1291 63.5658 32.5232 63.5658C31.2009 63.5658 29.8633 63.7178 28.5714 64.0218C26.9299 64.417 22.4461 66.0281 20.9414 66.94L21.1542 67.3048C22.6133 66.4232 27.0363 64.8273 28.6626 64.4474C29.9241 64.1434 31.2161 63.9914 32.508 63.9914C41.9163 63.9914 50.7014 72.0773 53.4069 83.2333C54.8964 89.3585 54.3948 95.6053 51.9781 100.834C49.4247 106.366 44.1202 110.759 38.4813 112.035L38.5725 112.461L38.5877 112.431Z" fill="#DAE6ED"/>
<path d="M17.0519 92.7927C16.0335 88.5674 16.3831 84.2965 18.0094 80.7399C19.6661 77.153 22.4476 74.7211 25.8218 73.9004C29.196 73.0796 32.8134 74.0068 35.8989 76.4234C38.9843 78.8401 41.2338 82.503 42.2521 86.7131C44.3648 95.4526 40.413 103.934 33.467 105.606C32.6614 105.803 31.8407 105.894 31.0199 105.894C24.8643 105.894 18.9062 100.514 17.0367 92.7927H17.0519ZM41.4618 86.9107C40.489 82.883 38.3003 79.3568 35.3973 77.077C32.4943 74.7971 29.1656 73.946 26.0346 74.7059C22.9036 75.4659 20.3349 77.7305 18.7846 81.0743C17.2191 84.4637 16.8999 88.5522 17.8726 92.58C19.8789 100.879 26.8098 106.35 33.2846 104.785C39.7747 103.204 43.4377 95.1942 41.4466 86.8955L41.4618 86.9107Z" fill="#DAE6ED"/>
<path d="M16.9159 87.1385C16.9919 85.269 17.3719 83.4147 18.0407 81.6668C18.6943 79.9038 19.7278 78.2927 21.0501 76.9551C23.7708 74.1737 27.829 73.1554 31.5376 74.3257C33.3615 74.8881 35.0486 75.8304 36.4773 77.0919C37.906 78.3535 39.122 79.8278 40.0643 81.4844C41.9642 84.7978 42.8761 88.5824 42.6938 92.3973C42.6026 94.2972 42.1922 96.1667 41.493 97.945C40.7939 99.7232 39.7299 101.334 38.362 102.657C35.5805 105.392 31.5224 106.335 27.829 105.088C26.0355 104.496 24.3939 103.523 23.0108 102.261C21.6277 101.015 20.4422 99.5409 19.5302 97.9146C18.6031 96.2883 17.9191 94.5252 17.4783 92.7013C17.0375 90.8774 16.8551 89.008 16.9311 87.1385H16.9159ZM19.5302 97.8842C20.4574 99.5105 21.6581 100.954 23.0564 102.185C24.4547 103.417 26.0963 104.344 27.8746 104.906C31.4768 106.031 35.4134 105.043 38.058 102.353C39.3499 101.046 40.3379 99.4801 40.9915 97.7474C41.645 96.0299 42.0098 94.206 42.0858 92.3669C42.2378 88.6736 41.3562 84.9954 39.5323 81.7732C38.6356 80.1773 37.4652 78.7182 36.0973 77.4871C34.7446 76.2408 33.1335 75.2985 31.3856 74.7209C27.7986 73.5202 23.8468 74.4321 21.1565 77.0767C19.819 78.3687 18.7854 79.9493 18.1015 81.682C17.4175 83.4147 17.0071 85.2538 16.9311 87.1233C16.8399 88.9928 17.0223 90.8622 17.4479 92.6861C17.8887 94.4948 18.5879 96.2427 19.515 97.869L19.5302 97.8842Z" fill="#DAE6ED"/>
<path d="M71.5543 130.639L10.9855 119.909C6.83613 119.179 3.46191 115.197 3.46191 111.063V50.4947C3.46191 48.4276 4.23707 46.6493 5.72659 45.403C7.21611 44.1567 9.19201 43.6703 11.2895 44.0503L71.8582 54.7808C76.0076 55.5103 79.3818 59.4925 79.3818 63.657V124.195C79.3818 126.262 78.5915 128.07 77.1172 129.286C75.9468 130.259 74.4573 130.791 72.9222 130.776C72.4662 130.776 72.0102 130.73 71.5543 130.654V130.639ZM6.79054 46.6949C5.72659 47.5917 5.13382 48.9444 5.13382 50.5099V111.078C5.13382 114.452 7.88488 117.689 11.2895 118.282L71.8582 129.013C73.4694 129.301 74.9893 128.922 76.0532 128.025C77.1172 127.128 77.7099 125.775 77.7099 124.21V63.657C77.7099 60.2676 74.9589 57.0302 71.5543 56.4223L11.0007 45.6918C10.6511 45.631 10.2863 45.6006 9.93677 45.6006C8.79683 45.5854 7.68729 45.9654 6.79054 46.6949Z" fill="#DAE6ED"/>
<path d="M89.9629 98.1734H91.6348V55.1754C91.6348 51.0109 88.2606 47.0287 84.1112 46.2992L42.5871 39.4444L42.3135 41.1011L83.8224 47.9559C87.1967 48.5486 89.9629 51.8012 89.9629 55.1906V98.1886V98.1734Z" fill="#DAE6ED"/>
<path d="M77.2401 129.164L101.194 112.506H101.224C102.729 111.259 103.565 109.435 103.565 107.338V46.8004C103.565 42.6359 100.191 38.6537 96.0415 37.9242L55.946 30.963L55.6572 32.6197L95.7375 39.5809C99.1269 40.1736 101.878 43.4262 101.878 46.8156V107.368C101.878 108.934 101.27 110.302 100.176 111.199L76.2825 127.826L77.2401 129.194V129.164Z" fill="#DAE6ED"/>
<path d="M35.0967 32.0137L8.30469 44.1445L8.9943 45.6675L35.7864 33.5368L35.0967 32.0137Z" fill="#DAE6ED"/>
<path d="M9.74153 94.5703C8.20642 88.2627 8.72319 81.8183 11.2311 76.4227C13.8757 70.723 18.3291 66.8625 23.8008 65.5554C25.1231 65.2362 26.4758 65.069 27.8438 65.0842C37.6472 65.0842 46.7667 73.4437 49.5482 84.9645C51.0833 91.2721 50.5513 97.7165 48.0587 103.112C45.414 108.797 40.9607 112.657 35.4889 113.979C34.1666 114.299 32.8139 114.466 31.446 114.466C21.6577 114.466 12.523 106.106 9.74153 94.5855V94.5703ZM24.0896 66.7713C18.9978 68.0024 14.8333 71.6198 12.371 76.9394C9.99992 82.0767 9.49835 88.2323 10.9727 94.2663C13.6173 105.24 22.2353 113.189 31.4612 113.189C32.7227 113.189 33.9842 113.037 35.2002 112.748C40.2919 111.517 44.4565 107.915 46.9339 102.58C49.305 97.4429 49.8066 91.2873 48.3323 85.2533C45.6724 74.2796 37.0545 66.3305 27.8438 66.3305C26.5822 66.3305 25.3207 66.4673 24.1048 66.7713H24.0896Z" fill="#DAE6ED"/>
<path d="M43.6046 104.785C44.1517 103.995 44.6077 103.144 44.9877 102.262C45.1549 101.821 45.3525 101.365 45.4893 100.909C45.5653 100.681 45.6413 100.453 45.7173 100.225L45.9149 99.5262C46.4164 97.6567 46.7052 95.7568 46.7964 93.8265C46.7964 93.5834 46.8268 93.3402 46.8268 93.097V92.3674C46.8268 91.8811 46.7964 91.4099 46.7812 90.9235C46.7812 90.6803 46.7508 90.4372 46.7204 90.2092L46.6444 89.4948C46.5836 89.0085 46.5076 88.5373 46.4316 88.0661C46.0668 86.1662 45.5045 84.312 44.7597 82.5337C44.015 80.7554 43.0726 79.0531 41.9783 77.4572C41.4311 76.6669 40.8383 75.8917 40.2 75.1774C39.5616 74.4478 38.8776 73.7639 38.1481 73.1255C36.7041 71.8488 35.0778 70.7849 33.3299 69.9641C31.582 69.1586 29.6973 68.6722 27.7822 68.505C29.6821 68.7482 31.5212 69.3106 33.2539 70.1617C34.9562 71.0128 36.5522 72.092 37.9505 73.3839C40.7471 75.9829 42.951 79.1747 44.3797 82.7161C45.1245 84.464 45.6717 86.2878 46.0516 88.1573C46.386 90.0268 46.5228 91.9419 46.4468 93.8417C46.386 95.7568 46.1276 97.6415 45.6869 99.511L45.5197 100.21C45.4589 100.438 45.3829 100.666 45.3069 100.894C45.1853 101.35 45.0029 101.806 44.8509 102.247C44.5165 103.144 44.091 103.995 43.5894 104.815L43.6046 104.785Z" fill="#DAE6ED"/>
<path d="M43.6474 104.618L43.7386 104.466L43.9058 104.146C43.997 103.918 44.1185 103.721 44.2097 103.508C44.4073 103.083 44.5897 102.642 44.7417 102.186C44.8937 101.73 45.0457 101.289 45.1673 100.833L45.3497 100.149L45.5017 99.4499C45.8968 97.5957 46.1248 95.7262 46.14 93.8263C46.1856 91.9416 46.0336 90.0722 45.6841 88.2179C45.3041 86.3788 44.7265 84.5853 43.997 82.8526C43.2826 81.12 42.3858 79.4633 41.3371 77.913C40.2883 76.3627 39.0572 74.934 37.6893 73.642C36.3062 72.3653 34.771 71.271 33.0839 70.4047C31.412 69.5535 29.6033 68.976 27.749 68.6872L27.7946 68.216C29.7401 68.4288 31.64 68.9608 33.4031 69.7815C35.151 70.6326 36.7773 71.6966 38.2517 72.9733C38.9812 73.6116 39.6804 74.2956 40.3339 75.01C40.9875 75.7243 41.6107 76.4843 42.173 77.2746C43.313 78.8553 44.2857 80.5576 45.0761 82.3359C45.8513 84.1294 46.4288 86.014 46.7936 87.9291L47.0064 89.3882L47.0672 90.1178C47.0824 90.3457 47.128 90.6041 47.128 90.8625C47.128 91.3337 47.1736 91.8352 47.1584 92.3216V93.036L47.1128 93.7655C47.052 94.7383 46.9456 95.711 46.7784 96.6685C46.6112 97.6261 46.3984 98.5836 46.1248 99.5107L45.912 100.21L45.6689 100.894C45.5169 101.365 45.3041 101.806 45.1217 102.247C44.9241 102.687 44.6961 103.128 44.4529 103.538C44.3313 103.766 44.1945 103.964 44.0577 104.162L43.845 104.466L43.7386 104.618C43.7386 104.618 43.6322 104.724 43.5714 104.77C43.5714 104.694 43.6018 104.618 43.6474 104.557V104.618ZM43.6322 104.602L43.7234 104.45L43.9058 104.146C44.0273 103.934 44.1337 103.721 44.2401 103.523C44.4529 103.098 44.6505 102.657 44.8177 102.216C44.9849 101.76 45.1521 101.319 45.2889 100.863L45.5017 100.179L45.6841 99.4803C45.912 98.5532 46.0792 97.6109 46.216 96.6685C46.3528 95.7262 46.4288 94.7687 46.4592 93.8111L46.4896 93.0968V92.3672C46.4896 91.896 46.4592 91.4401 46.4288 90.9385C46.4288 90.7257 46.3984 90.4977 46.368 90.2394L46.292 89.525L46.0792 88.1267C45.6993 86.2572 45.1521 84.4333 44.4529 82.6703C43.7386 80.892 42.857 79.2049 41.8083 77.609C40.7595 75.9979 39.5132 74.5388 38.0845 73.2469C36.6557 71.9702 35.0446 70.9062 33.2967 70.1159C31.5488 69.3407 29.6793 68.8848 27.7642 68.748L27.8098 68.2768C29.7401 68.4896 31.6248 69.0216 33.3727 69.8575C35.1358 70.6934 36.7469 71.7726 38.1909 73.0797C39.6196 74.3868 40.8963 75.8459 42.0211 77.4418C43.1306 79.0377 44.0577 80.74 44.7873 82.5335C45.5321 84.3269 46.0792 86.1812 46.444 88.0811C46.7632 89.981 46.8696 91.9264 46.7632 93.8567C46.672 95.787 46.368 97.6869 45.8816 99.5563L45.6841 100.255L45.4561 100.939C45.3193 101.395 45.1521 101.836 44.9545 102.292C44.7569 102.733 44.5593 103.174 44.3465 103.599C44.2401 103.812 44.1185 104.025 43.997 104.222L43.7994 104.526L43.7082 104.678C43.7082 104.678 43.6474 104.724 43.6018 104.77C43.6322 104.709 43.6018 104.663 43.617 104.618L43.6322 104.602Z" fill="#DAE6ED"/>
<path d="M17.4638 92.702C19.5157 101.229 26.6441 106.837 33.3926 105.211C40.1258 103.584 43.9256 95.3466 41.8585 86.82C39.8066 78.2934 32.6782 72.6849 25.9298 74.3112C19.1965 75.9375 15.3967 84.1754 17.4638 92.702ZM31.1583 79.7069C35.4444 79.3269 39.3354 83.5218 39.8218 89.0694C40.3082 94.6171 37.238 99.4352 32.9366 99.8151C28.6504 100.195 24.7594 96.0002 24.2731 90.4526C23.7867 84.9049 26.8569 80.0868 31.1583 79.7069Z" fill="#DAE6ED"/>
<path d="M20.3327 114.831C14.785 109.74 10.7116 102.687 8.87248 95.0117C6.74459 86.2571 7.51975 77.2593 11.0308 69.6598C14.9674 61.1331 21.7614 55.3271 30.1969 53.2904C32.2488 52.7889 34.3615 52.5457 36.4742 52.5457C43.709 52.5457 50.8982 55.5095 56.7499 60.8899C62.2976 65.9816 66.371 73.0339 68.2101 80.7094C70.338 89.4641 69.578 98.4619 66.0518 106.061C62.1152 114.588 55.3212 120.394 46.8856 122.431C44.8337 122.932 42.7211 123.175 40.6084 123.175C33.3888 123.175 26.1843 120.212 20.3327 114.831ZM30.4857 54.4912C22.4454 56.4366 15.9401 61.9995 12.1707 70.1613C8.78128 77.5024 8.03652 86.2267 10.1036 94.7077C11.8819 102.155 15.8185 108.98 21.1838 113.904C26.8075 119.072 33.7079 121.914 40.6084 121.914C42.6299 121.914 44.6362 121.671 46.5816 121.2C54.622 119.254 61.1273 113.691 64.8967 105.529C68.2861 98.1883 69.0308 89.4641 66.9638 80.9982C65.1855 73.5507 61.2489 66.7264 55.8836 61.8019C50.2599 56.6342 43.3594 53.792 36.459 53.792C34.4375 53.792 32.4312 54.0352 30.4857 54.5064V54.4912Z" fill="#DAE6ED"/>
</g>
<path d="M101.559 20.2088H136.108" stroke="#4F5356" stroke-width="5" stroke-linecap="round" stroke-linejoin="round"/>
<path d="M118.833 2.9342V37.4834" stroke="#4F5356" stroke-width="5" stroke-linecap="round" stroke-linejoin="round"/>
<defs>
<filter id="filter0_d_119_5535" x="0.461914" y="27.963" width="106.104" height="105.813" filterUnits="userSpaceOnUse" color-interpolation-filters="sRGB">
<feFlood flood-opacity="0" result="BackgroundImageFix"/>
<feColorMatrix in="SourceAlpha" type="matrix" values="0 0 0 0 0 0 0 0 0 0 0 0 0 0 0 0 0 0 127 0" result="hardAlpha"/>
<feOffset/>
<feGaussianBlur stdDeviation="1.5"/>
<feColorMatrix type="matrix" values="0 0 0 0 1 0 0 0 0 1 0 0 0 0 1 0 0 0 0.3 0"/>
<feBlend mode="normal" in2="BackgroundImageFix" result="effect1_dropShadow_119_5535"/>
<feBlend mode="normal" in="SourceGraphic" in2="effect1_dropShadow_119_5535" result="shape"/>
</filter>
</defs>
</svg>
