<svg width="91" height="91" viewBox="0 0 91 91" fill="none" xmlns="http://www.w3.org/2000/svg">
<path d="M15.2483 75.4172C10.5175 70.9889 7.0208 64.8142 5.41643 58.0481C3.60638 50.3881 4.26458 42.5081 7.26763 35.852C10.6135 28.4808 16.3728 23.4475 23.517 21.6872C25.2448 21.2609 27.0274 21.0409 28.8237 21.0409C34.967 21.0409 41.0828 23.6126 46.0604 28.2883C50.7912 32.7303 54.2879 38.905 55.8923 45.6574C57.7024 53.3173 57.0442 61.1974 54.0411 67.8534C50.709 75.2246 44.936 80.2579 37.7917 82.0182C36.064 82.4445 34.2813 82.6646 32.485 82.6646C26.3555 82.6646 20.226 80.0929 15.2483 75.4034V75.4172ZM28.8375 22.1823H28.81C27.1234 22.1823 25.423 22.3886 23.7912 22.7874C16.9898 24.4652 11.4911 29.2785 8.29607 36.3196C5.38901 42.7281 4.75823 50.3606 6.51344 57.7868C8.07667 64.3191 11.45 70.2876 16.0299 74.592C20.8019 79.0753 26.6572 81.5369 32.4987 81.5369H32.5261C34.2128 81.5369 35.9131 81.3306 37.5449 80.9318C44.3463 79.254 49.8451 74.4408 53.0401 67.3996C55.9472 60.9773 56.5779 53.3586 54.8227 45.9324C53.2595 39.4001 49.8862 33.4316 45.3062 29.1272C40.5343 24.644 34.6927 22.1823 28.8375 22.1823Z" fill="white" fill-opacity="0.25"/>
<path d="M6.12954 57.443C4.77199 51.8596 5.23822 46.1387 7.43223 41.3391C9.73594 36.3333 13.6577 32.9365 18.4571 31.7676H18.4708C19.7872 30.9837 21.1996 30.4061 22.6806 30.0486C23.8324 29.7735 25.0254 29.6222 26.2184 29.636C34.8436 29.636 42.8929 37.0484 45.3474 47.2663C46.705 52.8772 46.2387 58.5982 44.0447 63.3702C41.741 68.376 37.8192 71.7728 33.0198 72.9417H33.0061C31.6897 73.7256 30.2773 74.3032 28.7964 74.6608C27.6445 74.9358 26.4515 75.0871 25.2585 75.0871C16.6333 75.0871 8.59779 67.6746 6.12954 57.4567V57.443ZM43.8802 63.2877C46.0467 58.5569 46.513 52.8772 45.1829 47.3076C42.742 37.1722 34.775 29.8285 26.2321 29.8285C25.0528 29.8285 23.8873 29.966 22.7491 30.2411C21.2819 30.5987 19.8695 31.1625 18.5668 31.9464H18.5394H18.512C13.7674 33.1016 9.90049 36.4571 7.6242 41.4079C5.44391 46.1662 4.97768 51.8458 6.32151 57.388C8.76235 67.5234 16.7293 74.8808 25.2722 74.8808C26.4515 74.8808 27.6171 74.7433 28.7552 74.4682C30.2225 74.1107 31.6349 73.5468 32.9376 72.763H32.965H32.9924C37.7232 71.6078 41.6039 68.2522 43.8802 63.3014V63.2877Z" fill="white" fill-opacity="0.25"/>
<path d="M31.6897 73.7258C36.969 72.5293 41.7273 68.5687 44.1269 63.3841C46.3347 58.5846 46.8009 52.8362 45.4434 47.2115C42.9751 36.9523 34.8847 29.5124 26.2184 29.5124C25.0254 29.5124 23.8187 29.6499 22.6531 29.925C21.1722 30.2825 17.127 31.7403 15.7694 32.5654L15.9614 32.8954C17.2778 32.0978 21.2681 30.6538 22.7354 30.31C23.8735 30.035 25.0391 29.8975 26.2047 29.8975C34.6927 29.8975 42.6186 37.2136 45.0594 47.3078C46.4032 52.8499 45.9507 58.5021 43.7704 63.2328C41.4667 68.2386 36.681 72.213 31.5937 73.3682L31.676 73.7533L31.6897 73.7258Z" fill="white" fill-opacity="0.25"/>
<path d="M12.259 55.9579C11.3402 52.1348 11.6556 48.2705 13.1229 45.0524C14.6175 41.8069 17.1269 39.6066 20.1711 38.8639C23.2153 38.1213 26.4789 38.9602 29.2625 41.1468C32.0462 43.3334 34.0756 46.6477 34.9944 50.4571C36.9004 58.3646 33.3352 66.0383 27.0685 67.5511C26.3418 67.7298 25.6013 67.8124 24.8608 67.8124C19.3072 67.8124 13.9319 62.9441 12.2453 55.9579H12.259ZM34.2813 50.6358C33.4037 46.9915 31.4291 43.801 28.81 41.7382C26.1909 39.6753 23.1879 38.9052 20.3631 39.5928C17.5383 40.2804 15.2209 42.3295 13.8222 45.355C12.4098 48.4217 12.1219 52.1211 12.9995 55.7654C14.8095 63.2741 21.0624 68.2249 26.904 66.8085C32.7592 65.3782 36.064 58.1308 34.2676 50.6221L34.2813 50.6358Z" fill="white" fill-opacity="0.25"/>
<path d="M12.1357 50.8282C12.2043 49.1367 12.5471 47.459 13.1504 45.8774C13.7401 44.2822 14.6725 42.8245 15.8655 41.6143C18.3201 39.0976 21.9813 38.1762 25.3272 39.2351C26.9727 39.744 28.4948 40.5966 29.7838 41.738C31.0727 42.8795 32.1697 44.2134 33.0199 45.7124C34.734 48.7104 35.5567 52.1347 35.3922 55.5865C35.3099 57.3055 34.9397 58.9971 34.3089 60.6061C33.6781 62.2151 32.7182 63.6728 31.4841 64.8693C28.9747 67.3447 25.3135 68.1973 21.9813 67.0696C20.3632 66.5333 18.8823 65.6531 17.6344 64.5117C16.3866 63.384 15.317 62.0501 14.4943 60.5786C13.6578 59.1071 13.0407 57.5118 12.6431 55.8616C12.2454 54.2113 12.0809 52.5198 12.1494 50.8282H12.1357ZM14.4943 60.5511C15.3307 62.0226 16.414 63.329 17.6756 64.4429C18.9371 65.5569 20.4181 66.3958 22.0225 66.9046C25.2723 67.9223 28.8239 67.0284 31.2099 64.5942C32.3754 63.4115 33.2667 61.995 33.8564 60.4273C34.446 58.8733 34.7751 57.223 34.8437 55.559C34.9808 52.2172 34.1855 48.8892 32.54 45.9737C31.7309 44.5297 30.6751 43.2095 29.4409 42.0956C28.2205 40.9679 26.767 40.1153 25.1901 39.5927C21.9539 38.5063 18.3886 39.3314 15.9615 41.7243C14.7548 42.8932 13.8224 44.3234 13.2053 45.8912C12.5882 47.459 12.218 49.123 12.1494 50.8145C12.0671 52.506 12.2317 54.1975 12.6156 55.8478C13.0133 57.4843 13.6441 59.0658 14.4806 60.5373L14.4943 60.5511Z" fill="white" fill-opacity="0.25"/>
<path d="M61.4322 90.2007L6.78771 80.4917C3.04418 79.8316 0 76.2285 0 72.4879V17.6853C0 15.815 0.69934 14.206 2.04317 13.0783C3.387 11.9506 5.16963 11.5106 7.06196 11.8544L61.7064 21.5634C65.45 22.2235 68.4942 25.8266 68.4942 29.5947V84.3698C68.4942 86.2401 67.7811 87.8766 66.451 88.9768C65.3951 89.8569 64.0513 90.3383 62.6663 90.3245C62.2549 90.3245 61.8436 90.2832 61.4322 90.2145V90.2007ZM3.00305 14.2335C2.04317 15.0449 1.50838 16.2688 1.50838 17.6853V72.4879C1.50838 75.5409 3.99035 78.4701 7.06196 79.0064L61.7064 88.7155C63.16 88.9768 64.5312 88.633 65.4911 87.8216C66.451 87.0102 66.9858 85.7863 66.9858 84.3698V29.581C66.9858 26.5142 64.5038 23.585 61.4322 23.0349L6.80142 13.3396C6.48603 13.2846 6.15693 13.2571 5.84154 13.2571C4.8131 13.2433 3.81209 13.5871 3.00305 14.2472V14.2335Z" fill="white" fill-opacity="0.25"/>
<path d="M78.0381 60.8261H79.5465V21.9211C79.5465 18.153 76.5023 14.5499 72.7587 13.8898L35.2961 7.68756L35.0493 9.18655L72.4982 15.3888C75.5424 15.9251 78.0381 18.8681 78.0381 21.9349V60.8399V60.8261Z" fill="white" fill-opacity="0.25"/>
<path d="M66.5607 88.8668L88.1717 73.7944H88.1991C89.5567 72.6667 90.3108 71.0165 90.3108 69.1186V14.3298C90.3108 10.5617 87.2667 6.95862 83.5231 6.29852L47.3357 0L47.0752 1.49899L83.2352 7.79751C86.2931 8.33384 88.775 11.2768 88.775 14.3436V69.1324C88.775 70.5489 88.2265 71.7866 87.2392 72.598L65.6831 87.6429L66.547 88.8806L66.5607 88.8668Z" fill="white" fill-opacity="0.25"/>
<path d="M28.5358 0.941469L4.36432 11.9175L4.98648 13.2955L29.158 2.31954L28.5358 0.941469Z" fill="white" fill-opacity="0.25"/>
<path d="M5.66326 57.5669C4.27829 51.8597 4.74451 46.0288 7.00708 41.1467C9.39307 35.9897 13.4108 32.4966 18.3474 31.3139C19.5403 31.0251 20.7608 30.8738 21.9949 30.8876C30.8395 30.8876 39.067 38.4513 41.5764 48.8755C42.9614 54.5827 42.4814 60.4136 40.2326 65.2956C37.8466 70.439 33.8288 73.932 28.8923 75.1285C27.6993 75.4173 26.4789 75.5685 25.2448 75.5685C16.4139 75.5685 8.17265 68.0048 5.66326 57.5806V57.5669ZM18.6079 32.4003C14.0142 33.5143 10.257 36.7873 8.03553 41.6006C5.89637 46.2488 5.44385 51.8185 6.77397 57.2781C9.15995 67.2072 16.935 74.3996 25.2585 74.3996C26.3966 74.3996 27.5348 74.2621 28.6318 74.0008C33.2255 72.8869 36.9827 69.6276 39.2178 64.8005C41.357 60.1523 41.8095 54.5827 40.4794 49.123C38.0797 39.1939 30.3047 32.0015 21.9949 32.0015C20.8568 32.0015 19.7186 32.1253 18.6216 32.4003H18.6079Z" fill="white" fill-opacity="0.25"/>
<path d="M36.201 66.8082C36.6947 66.0931 37.1061 65.323 37.4489 64.5254C37.5997 64.1265 37.778 63.714 37.9014 63.3014C37.9699 63.0951 38.0385 62.8889 38.1071 62.6826L38.2853 62.05C38.7378 60.3584 38.9984 58.6394 39.0807 56.8929C39.0807 56.6728 39.1081 56.4528 39.1081 56.2328V55.5727C39.1081 55.1326 39.0807 54.7063 39.0669 54.2662C39.0669 54.0462 39.0395 53.8261 39.0121 53.6199L38.9435 52.9735C38.8887 52.5334 38.8201 52.1071 38.7516 51.6808C38.4225 49.9618 37.9151 48.284 37.2432 46.675C36.5713 45.066 35.7211 43.5257 34.7338 42.0817C34.2401 41.3666 33.7053 40.6653 33.1294 40.0189C32.5535 39.3588 31.9364 38.74 31.2782 38.1624C29.9755 37.0072 28.5083 36.0445 26.9313 35.3019C25.3544 34.573 23.654 34.133 21.9263 33.9817C23.6403 34.2017 25.2996 34.7106 26.8628 35.4807C28.3986 36.2508 29.8384 37.2272 31.1 38.3962C33.6231 40.7478 35.6114 43.6357 36.9004 46.84C37.5723 48.4215 38.0659 50.0718 38.4087 51.7633C38.7104 53.4548 38.8338 55.1876 38.7653 56.9066C38.7104 58.6394 38.4773 60.3447 38.0796 62.0362L37.9288 62.6688C37.874 62.8751 37.8054 63.0814 37.7368 63.2877C37.6271 63.7002 37.4626 64.1128 37.3255 64.5116C37.0238 65.323 36.6398 66.0931 36.1873 66.8357L36.201 66.8082Z" fill="white" fill-opacity="0.25"/>
<path d="M36.2422 66.6433L36.3245 66.5058L36.4753 66.217C36.5576 66.0107 36.6673 65.8319 36.7495 65.6394C36.9278 65.2543 37.0924 64.8555 37.2295 64.4429C37.3666 64.0304 37.5037 63.6316 37.6134 63.219L37.778 62.6001L37.9151 61.9675C38.2716 60.2898 38.4773 58.5982 38.491 56.8792C38.5322 55.1739 38.3951 53.4824 38.0797 51.8046C37.7369 50.1406 37.2158 48.5179 36.5576 46.9501C35.9131 45.3824 35.104 43.8834 34.1579 42.4806C33.2117 41.0779 32.101 39.7852 30.8669 38.6163C29.619 37.4611 28.2341 36.4709 26.712 35.687C25.2036 34.9169 23.5718 34.3943 21.8989 34.133L21.94 33.7067C23.6952 33.8993 25.4093 34.3806 26.9999 35.1232C28.5769 35.8933 30.0441 36.856 31.3742 38.0112C32.0324 38.5888 32.6632 39.2076 33.2529 39.854C33.8425 40.5003 34.4047 41.1879 34.9121 41.903C35.9405 43.3333 36.8181 44.8735 37.5312 46.4825C38.2305 48.1053 38.7516 49.8106 39.0807 51.5434L39.2727 52.8636L39.3275 53.5237C39.3412 53.73 39.3824 53.9637 39.3824 54.1975C39.3824 54.6238 39.4235 55.0777 39.4098 55.5177V56.1641L39.3686 56.8242C39.3138 57.7043 39.2178 58.5845 39.067 59.4509C38.9161 60.3173 38.7242 61.1837 38.4773 62.0225L38.2854 62.6551L38.066 63.274C37.9288 63.7003 37.7369 64.0991 37.5723 64.4979C37.394 64.8968 37.1883 65.2956 36.9689 65.6669C36.8592 65.8732 36.7358 66.0519 36.6124 66.2307L36.4204 66.5058L36.3245 66.6433C36.3245 66.6433 36.2285 66.7396 36.1736 66.7808C36.1736 66.7121 36.201 66.6433 36.2422 66.5883V66.6433ZM36.2422 66.6433L36.3245 66.5058L36.489 66.2307C36.5987 66.0382 36.6947 65.8457 36.7907 65.6669C36.9827 65.2818 37.1609 64.883 37.3118 64.4842C37.4626 64.0716 37.6134 63.6728 37.7369 63.2602L37.9288 62.6414L38.0934 62.0088C38.2991 61.1699 38.4499 60.3173 38.5733 59.4646C38.6967 58.612 38.7653 57.7456 38.7927 56.8792L38.8201 56.2329V55.5728C38.8201 55.1464 38.7927 54.7339 38.7653 54.28C38.7653 54.0875 38.7379 53.8812 38.7104 53.6474L38.6419 53.0011L38.4499 51.7359C38.1071 50.0444 37.6134 48.3941 36.9827 46.7988C36.3382 45.1898 35.5428 43.6633 34.5967 42.2193C33.6505 40.7616 32.5261 39.4414 31.2371 38.2725C29.9481 37.1173 28.4946 36.1546 26.9177 35.4395C25.3407 34.7381 23.6541 34.3256 21.9263 34.2018L21.9674 33.7755C23.7089 33.968 25.4093 34.4493 26.9862 35.2057C28.5769 35.9621 30.0304 36.9385 31.3331 38.1212C32.6221 39.3039 33.7739 40.6241 34.7887 42.0681C35.7897 43.5121 36.6261 45.0523 37.2843 46.6751C37.9563 48.2978 38.4499 49.9756 38.779 51.6946C39.067 53.4137 39.163 55.1739 39.067 56.9205C38.9847 58.667 38.7104 60.386 38.2716 62.0776L38.0934 62.7102L37.8877 63.329C37.7643 63.7416 37.6134 64.1404 37.4352 64.5529C37.2569 64.9518 37.0786 65.3506 36.8867 65.7356C36.7907 65.9282 36.681 66.1207 36.5713 66.2995L36.393 66.5745L36.3107 66.712C36.3107 66.712 36.2559 66.7533 36.2148 66.7946C36.2422 66.7396 36.2148 66.6983 36.2285 66.657L36.2422 66.6433Z" fill="white" fill-opacity="0.25"/>
<path d="M12.6292 55.8751C14.4804 63.5901 20.9115 68.6646 26.9999 67.1931C33.0746 65.7217 36.5027 58.2679 34.6378 50.553C32.7866 42.838 26.3554 37.7634 20.2671 39.2349C14.1924 40.7064 10.7643 48.1601 12.6292 55.8751ZM24.9842 44.1169C28.8511 43.7731 32.3615 47.5687 32.8003 52.5883C33.2391 57.6078 30.4692 61.9673 26.5885 62.3111C22.7216 62.6549 19.2112 58.8593 18.7724 53.8397C18.3336 48.8202 21.1035 44.4607 24.9842 44.1169Z" fill="white" fill-opacity="0.25"/>
<path d="M15.2209 75.8847C10.2158 71.2777 6.54085 64.8966 4.88163 57.9518C2.96188 50.0305 3.66122 41.8892 6.82882 35.0131C10.3804 27.2981 16.5099 22.0447 24.1203 20.2019C25.9715 19.7481 27.8776 19.5281 29.7836 19.5281C36.3108 19.5281 42.7968 22.2098 48.0761 27.078C53.0812 31.685 56.7562 38.0661 58.4154 45.0109C60.3352 52.9322 59.6495 61.0735 56.4682 67.9496C52.9167 75.6646 46.7872 80.918 39.1767 82.7608C37.3255 83.2146 35.4195 83.4346 33.5134 83.4346C27 83.4346 20.5002 80.7529 15.2209 75.8847ZM24.3809 21.3021C17.1269 23.0624 11.258 28.0957 7.85726 35.4806C4.79936 42.123 4.12744 50.0167 5.99235 57.6905C7.59672 64.4291 11.1483 70.6038 15.9888 75.0595C21.0624 79.7353 27.2879 82.3069 33.5134 82.3069C35.3372 82.3069 37.1472 82.0869 38.9025 81.6606C46.1564 79.9003 52.0254 74.867 55.4261 67.4821C58.484 60.8397 59.1559 52.946 57.291 45.286C55.6866 38.5474 52.1351 32.3726 47.2945 27.9169C42.2209 23.2412 35.9954 20.6695 29.7699 20.6695C27.9461 20.6695 26.1361 20.8895 24.3809 21.3159V21.3021Z" fill="white" fill-opacity="0.25"/>
</svg>
