<svg width="92" height="91" viewBox="0 0 92 91" fill="none" xmlns="http://www.w3.org/2000/svg">
<path d="M15.95 75.6886C11.2192 71.2604 7.72246 65.0857 6.11809 58.3196C4.30804 50.6596 4.96624 42.7796 7.96929 36.1235C11.3151 28.7523 17.0744 23.719 24.2186 21.9587C25.9464 21.5324 27.7291 21.3123 29.5254 21.3123C35.6686 21.3123 41.7844 23.884 46.7621 28.5598C51.4929 33.0017 54.9896 39.1765 56.594 45.9288C58.404 53.5888 57.7458 61.4688 54.7428 68.1249C51.4106 75.4961 45.6376 80.5294 38.4934 82.2897C36.7656 82.716 34.983 82.936 33.1867 82.936C27.0571 82.936 20.9276 80.3644 15.95 75.6749V75.6886ZM29.5391 22.4538H29.5117C27.8251 22.4538 26.1247 22.6601 24.4929 23.0589C17.6915 24.7366 12.1928 29.5499 8.99773 36.5911C6.09067 42.9996 5.45989 50.6321 7.2151 58.0583C8.77833 64.5906 12.1516 70.559 16.7316 74.8635C21.5036 79.3467 27.3588 81.8084 33.2004 81.8084H33.2278C34.9144 81.8084 36.6148 81.6021 38.2466 81.2033C45.048 79.5255 50.5467 74.7122 53.7418 67.6711C56.6488 61.2488 57.2796 53.6301 55.5244 46.2039C53.9612 39.6716 50.5879 33.7031 46.0079 29.3987C41.2359 24.9154 35.3944 22.4538 29.5391 22.4538Z" fill="white"/>
<path d="M6.8312 57.7145C5.47365 52.1311 5.93988 46.4101 8.13389 41.6106C10.4376 36.6048 14.3594 33.208 19.1588 32.0391H19.1725C20.4889 31.2552 21.9013 30.6776 23.3822 30.32C24.5341 30.045 25.7271 29.8937 26.9201 29.9075C35.5453 29.9075 43.5945 37.3199 46.0491 47.5378C47.4066 53.1487 46.9404 58.8697 44.7464 63.6417C42.4427 68.6475 38.5209 72.0443 33.7215 73.2132H33.7078C32.3914 73.9971 30.979 74.5747 29.498 74.9322C28.3462 75.2073 27.1532 75.3586 25.9602 75.3586C17.335 75.3586 9.29945 67.9461 6.8312 57.7282V57.7145ZM44.5818 63.5592C46.7484 58.8284 47.2146 53.1487 45.8845 47.5791C43.4437 37.4437 35.4767 30.1 26.9338 30.1C25.7545 30.1 24.5889 30.2375 23.4508 30.5126C21.9836 30.8701 20.5712 31.434 19.2685 32.2179H19.241H19.2136C14.4691 33.373 10.6021 36.7286 8.32586 41.6794C6.14557 46.4376 5.67934 52.1173 7.02317 57.6595C9.46401 67.7948 17.431 75.1523 25.9739 75.1523C27.1532 75.1523 28.3188 75.0148 29.4569 74.7397C30.9241 74.3822 32.3365 73.8183 33.6392 73.0344H33.6666H33.6941C38.4249 71.8792 42.3055 68.5237 44.5818 63.5729V63.5592Z" fill="white"/>
<path d="M32.3913 73.9973C37.6707 72.8008 42.4289 68.8402 44.8286 63.6556C47.0363 58.8561 47.5026 53.1076 46.145 47.483C43.6768 37.2238 35.5864 29.7839 26.92 29.7839C25.727 29.7839 24.5203 29.9214 23.3548 30.1964C21.8738 30.554 17.8286 32.0117 16.4711 32.8369L16.663 33.1669C17.9794 32.3693 21.9698 30.9253 23.437 30.5815C24.5752 30.3065 25.7407 30.1689 26.9063 30.1689C35.3944 30.1689 43.3202 37.4851 45.7611 47.5792C47.1049 53.1214 46.6524 58.7736 44.4721 63.5043C42.1684 68.5101 37.3827 72.4845 32.2953 73.6397L32.3776 74.0248L32.3913 73.9973Z" fill="white"/>
<path d="M12.9606 56.2295C12.0419 52.4063 12.3573 48.542 13.8245 45.324C15.3192 42.0784 17.8286 39.8781 20.8728 39.1355C23.917 38.3928 27.1806 39.2317 29.9642 41.4183C32.7478 43.6049 34.7773 46.9192 35.696 50.7286C37.6021 58.6361 34.0368 66.3098 27.7702 67.8226C27.0434 68.0014 26.3029 68.0839 25.5625 68.0839C20.0089 68.0839 14.6336 63.2156 12.9469 56.2295H12.9606ZM34.983 50.9074C34.1054 47.263 32.1308 44.0725 29.5117 42.0097C26.8926 39.9468 23.8895 39.1767 21.0648 39.8643C18.24 40.5519 15.9226 42.601 14.5239 45.6265C13.1115 48.6932 12.8235 52.3926 13.7011 56.0369C15.5112 63.5456 21.7641 68.4964 27.6056 67.08C33.4609 65.6497 36.7656 58.4023 34.9693 50.8936L34.983 50.9074Z" fill="white"/>
<path d="M12.8374 51.0998C12.9059 49.4082 13.2487 47.7305 13.8521 46.149C14.4417 44.5537 15.3742 43.096 16.5672 41.8858C19.0217 39.3691 22.683 38.4477 26.0288 39.5066C27.6743 40.0155 29.1964 40.8681 30.4854 42.0095C31.7744 43.151 32.8714 44.4849 33.7216 45.9839C35.4356 48.9819 36.2584 52.4062 36.0938 55.858C36.0116 57.5771 35.6413 59.2686 35.0106 60.8776C34.3798 62.4866 33.4199 63.9443 32.1858 65.1408C29.6764 67.6162 26.0151 68.4688 22.683 67.3411C21.0649 66.8048 19.5839 65.9247 18.3361 64.7832C17.0883 63.6555 16.0187 62.3216 15.1959 60.8501C14.3595 59.3786 13.7424 57.7833 13.3447 56.1331C12.9471 54.4828 12.7825 52.7913 12.8511 51.0998H12.8374ZM15.1959 60.8226C16.0324 62.2941 17.1157 63.6005 18.3772 64.7145C19.6388 65.8284 21.1197 66.6673 22.7241 67.1761C25.974 68.1938 29.5255 67.2999 31.9115 64.8657C33.0771 63.683 33.9684 62.2666 34.558 60.6988C35.1477 59.1448 35.4768 57.4945 35.5453 55.8305C35.6825 52.4887 34.8871 49.1607 33.2416 46.2452C32.4326 44.8012 31.3767 43.481 30.1426 42.3671C28.9222 41.2394 27.4687 40.3868 25.8917 39.8642C22.6556 38.7778 19.0903 39.6029 16.6632 41.9958C15.4565 43.1647 14.524 44.595 13.9069 46.1627C13.2899 47.7305 12.9196 49.3945 12.8511 51.086C12.7688 52.7775 12.9334 54.4691 13.3173 56.1193C13.715 57.7558 14.3457 59.3373 15.1822 60.8088L15.1959 60.8226Z" fill="white"/>
<path d="M62.1339 90.4722L7.48937 80.7632C3.74584 80.1031 0.70166 76.5 0.70166 72.7594V17.9568C0.70166 16.0865 1.401 14.4775 2.74483 13.3498C4.08866 12.2221 5.87129 11.782 7.76362 12.1258L62.4081 21.8349C66.1516 22.495 69.1958 26.0981 69.1958 29.8662V84.6413C69.1958 86.5116 68.4828 88.1481 67.1526 89.2483C66.0968 90.1284 64.753 90.6097 63.368 90.596C62.9566 90.596 62.5452 90.5547 62.1339 90.486V90.4722ZM3.70471 14.505C2.74483 15.3164 2.21004 16.5403 2.21004 17.9568V72.7594C2.21004 75.8124 4.69201 78.7416 7.76362 79.2779L62.4081 88.987C63.8616 89.2483 65.2329 88.9045 66.1928 88.0931C67.1526 87.2817 67.6874 86.0578 67.6874 84.6413V29.8525C67.6874 26.7857 65.2055 23.8565 62.1339 23.3064L7.50308 13.6111C7.18769 13.5561 6.85859 13.5286 6.5432 13.5286C5.51476 13.5148 4.51375 13.8586 3.70471 14.5187V14.505Z" fill="white"/>
<path d="M78.7397 61.0976H80.2481V22.1926C80.2481 18.4245 77.2039 14.8214 73.4604 14.1613L35.9977 7.95905L35.7509 9.45804L73.1999 15.6603C76.2441 16.1966 78.7397 19.1396 78.7397 22.2063V61.1114V61.0976Z" fill="white"/>
<path d="M67.2624 89.1383L88.8734 74.0659H88.9008C90.2583 72.9382 91.0125 71.2879 91.0125 69.3901V14.6013C91.0125 10.8332 87.9683 7.23011 84.2248 6.57L48.0374 0.271484L47.7769 1.77048L83.9368 8.06899C86.9947 8.60533 89.4767 11.5483 89.4767 14.615V69.4039C89.4767 70.8204 88.9282 72.0581 87.9409 72.8694L66.3848 87.9144L67.2487 89.1521L67.2624 89.1383Z" fill="white"/>
<path d="M29.2375 1.21295L5.06598 12.189L5.68814 13.567L29.8597 2.59102L29.2375 1.21295Z" fill="white"/>
<path d="M6.36492 57.8383C4.97995 52.1312 5.44618 46.3002 7.70874 41.4182C10.0947 36.2611 14.1125 32.768 19.049 31.5854C20.242 31.2966 21.4624 31.1453 22.6966 31.159C31.5411 31.159 39.7687 38.7228 42.2781 49.1469C43.663 54.8541 43.1831 60.685 40.9342 65.5671C38.5483 70.7104 34.5305 74.2035 29.594 75.3999C28.401 75.6887 27.1806 75.84 25.9464 75.84C17.1155 75.84 8.87431 68.2763 6.36492 57.8521V57.8383ZM19.3096 32.6718C14.7159 33.7857 10.9586 37.0587 8.73719 41.872C6.59803 46.5203 6.14551 52.0899 7.47563 57.5495C9.86161 67.4786 17.6366 74.671 25.9601 74.671C27.0983 74.671 28.2364 74.5335 29.3334 74.2722C33.9271 73.1583 37.6844 69.899 39.9195 65.072C42.0587 60.4238 42.5112 54.8541 41.1811 49.3945C38.7814 39.4654 31.0064 32.273 22.6966 32.273C21.5584 32.273 20.4203 32.3967 19.3233 32.6718H19.3096Z" fill="white"/>
<path d="M36.9027 67.0797C37.3963 66.3646 37.8077 65.5944 38.1505 64.7968C38.3014 64.398 38.4796 63.9854 38.603 63.5729C38.6716 63.3666 38.7402 63.1603 38.8087 62.954L38.987 62.3214C39.4395 60.6299 39.7 58.9109 39.7823 57.1643C39.7823 56.9443 39.8097 56.7243 39.8097 56.5042V55.8441C39.8097 55.4041 39.7823 54.9777 39.7686 54.5377C39.7686 54.3176 39.7412 54.0976 39.7138 53.8913L39.6452 53.245C39.5903 52.8049 39.5218 52.3786 39.4532 51.9523C39.1241 50.2332 38.6168 48.5554 37.9448 46.9464C37.2729 45.3374 36.4227 43.7972 35.4354 42.3532C34.9418 41.6381 34.407 40.9367 33.8311 40.2904C33.2552 39.6303 32.6381 39.0114 31.9799 38.4338C30.6772 37.2786 29.2099 36.316 27.633 35.5734C26.0561 34.8445 24.3557 34.4044 22.6279 34.2531C24.342 34.4732 26.0012 34.982 27.5644 35.7521C29.1003 36.5223 30.5401 37.4987 31.8016 38.6676C34.3247 41.0192 36.313 43.9072 37.602 47.1115C38.2739 48.693 38.7676 50.3432 39.1104 52.0348C39.4121 53.7263 39.5355 55.4591 39.4669 57.1781C39.4121 58.9109 39.179 60.6161 38.7813 62.3077L38.6305 62.9403C38.5756 63.1466 38.5071 63.3528 38.4385 63.5591C38.3288 63.9717 38.1642 64.3843 38.0271 64.7831C37.7254 65.5944 37.3415 66.3646 36.889 67.1072L36.9027 67.0797Z" fill="white"/>
<path d="M36.9438 66.9148L37.0261 66.7773L37.177 66.4885C37.2592 66.2822 37.3689 66.1034 37.4512 65.9109C37.6295 65.5258 37.794 65.127 37.9311 64.7144C38.0683 64.3019 38.2054 63.903 38.3151 63.4905L38.4796 62.8716L38.6168 62.239C38.9733 60.5613 39.179 58.8697 39.1927 57.1507C39.2338 55.4454 39.0967 53.7539 38.7813 52.0761C38.4385 50.4121 37.9174 48.7893 37.2592 47.2216C36.6147 45.6538 35.8057 44.1549 34.8595 42.7521C33.9134 41.3494 32.8027 40.0567 31.5685 38.8878C30.3207 37.7326 28.9357 36.7424 27.4136 35.9585C25.9052 35.1884 24.2735 34.6658 22.6005 34.4045L22.6417 33.9782C24.3969 34.1707 26.1109 34.6521 27.7016 35.3947C29.2785 36.1648 30.7458 37.1275 32.0759 38.2827C32.7341 38.8602 33.3649 39.4791 33.9545 40.1255C34.5441 40.7718 35.1064 41.4594 35.6137 42.1745C36.6422 43.6048 37.5198 45.145 38.2328 46.754C38.9322 48.3768 39.4532 50.0821 39.7823 51.8148L39.9743 53.135L40.0292 53.7952C40.0429 54.0014 40.084 54.2352 40.084 54.469C40.084 54.8953 40.1252 55.3492 40.1114 55.7892V56.4356L40.0703 57.0957C40.0155 57.9758 39.9195 58.856 39.7686 59.7224C39.6178 60.5888 39.4258 61.4551 39.179 62.294L38.987 62.9266L38.7676 63.5455C38.6305 63.9718 38.4385 64.3706 38.274 64.7694C38.0957 65.1682 37.89 65.5671 37.6706 65.9384C37.5609 66.1446 37.4375 66.3234 37.3141 66.5022L37.1221 66.7773L37.0261 66.9148C37.0261 66.9148 36.9301 67.011 36.8753 67.0523C36.8753 66.9835 36.9027 66.9148 36.9438 66.8598V66.9148ZM36.9438 66.9148L37.0261 66.7773L37.1907 66.5022C37.3004 66.3097 37.3964 66.1171 37.4923 65.9384C37.6843 65.5533 37.8626 65.1545 38.0134 64.7557C38.1643 64.3431 38.3151 63.9443 38.4385 63.5317L38.6305 62.9129L38.795 62.2803C39.0007 61.4414 39.1516 60.5888 39.275 59.7361C39.3984 58.8835 39.467 58.0171 39.4944 57.1507L39.5218 56.5043V55.8442C39.5218 55.4179 39.4944 55.0054 39.467 54.5515C39.467 54.359 39.4395 54.1527 39.4121 53.9189L39.3435 53.2726L39.1516 52.0074C38.8088 50.3158 38.3151 48.6656 37.6843 47.0703C37.0398 45.4613 36.2445 43.9348 35.2983 42.4908C34.3522 41.0331 33.2277 39.7129 31.9388 38.5439C30.6498 37.3888 29.1963 36.4261 27.6193 35.711C26.0424 35.0096 24.3557 34.5971 22.6279 34.4733L22.6691 34.047C24.4106 34.2395 26.1109 34.7208 27.6879 35.4772C29.2785 36.2336 30.7321 37.21 32.0348 38.3927C33.3237 39.5754 34.4756 40.8956 35.4903 42.3396C36.4913 43.7835 37.3278 45.3238 37.986 46.9466C38.6579 48.5693 39.1516 50.2471 39.4807 51.9661C39.7686 53.6851 39.8646 55.4454 39.7686 57.192C39.6864 58.9385 39.4121 60.6575 38.9733 62.349L38.795 62.9816L38.5893 63.6005C38.4659 64.0131 38.3151 64.4119 38.1368 64.8244C37.9586 65.2232 37.7803 65.6221 37.5883 66.0071C37.4923 66.1997 37.3826 66.3922 37.2729 66.571L37.0947 66.846L37.0124 66.9835C37.0124 66.9835 36.9576 67.0248 36.9164 67.066C36.9438 67.011 36.9164 66.9698 36.9301 66.9285L36.9438 66.9148Z" fill="white"/>
<path d="M13.3308 56.1466C15.182 63.8615 21.6132 68.9361 27.7016 67.4646C33.7762 65.9931 37.2044 58.5394 35.3395 50.8244C33.4883 43.1094 27.0571 38.0349 20.9687 39.5064C14.8941 40.9779 11.4659 48.4316 13.3308 56.1466ZM25.6858 44.3884C29.5528 44.0446 33.0632 47.8402 33.502 52.8598C33.9408 57.8793 31.1708 62.2388 27.2902 62.5826C23.4233 62.9264 19.9128 59.1308 19.474 54.1112C19.0352 49.0917 21.8052 44.7322 25.6858 44.3884Z" fill="white"/>
<path d="M15.9226 76.1561C10.9175 71.5492 7.24251 65.1681 5.58329 58.2233C3.66354 50.302 4.36288 42.1607 7.53048 35.2846C11.082 27.5696 17.2115 22.3162 24.822 20.4734C26.6732 20.0196 28.5792 19.7996 30.4853 19.7996C37.0124 19.7996 43.4985 22.4812 48.7778 27.3495C53.7829 31.9565 57.4578 38.3375 59.1171 45.2824C61.0368 53.2037 60.3512 61.345 57.1699 68.2211C53.6183 75.9361 47.4888 81.1895 39.8784 83.0323C38.0272 83.4861 36.1211 83.7061 34.2151 83.7061C27.7016 83.7061 21.2019 81.0244 15.9226 76.1561ZM25.0825 21.5736C17.8286 23.3339 11.9596 28.3672 8.55892 35.7521C5.50102 42.3945 4.8291 50.2882 6.69401 57.962C8.29838 64.7006 11.8499 70.8753 16.6905 75.331C21.7641 80.0068 27.9896 82.5784 34.2151 82.5784C36.0389 82.5784 37.8489 82.3584 39.6041 81.9321C46.8581 80.1718 52.727 75.1385 56.1277 67.7535C59.1856 61.1112 59.8575 53.2174 57.9926 45.5575C56.3883 38.8189 52.8367 32.6441 47.9962 28.1884C42.9226 23.5127 36.6971 20.941 30.4716 20.941C28.6478 20.941 26.8377 21.161 25.0825 21.5873V21.5736Z" fill="white"/>
</svg>
