<svg width="90" height="90" viewBox="0 0 90 90" fill="none" xmlns="http://www.w3.org/2000/svg">
<path d="M71.9318 14.726L37.159 9.27148L35.1136 10.2942L71.5909 16.4306C74.659 17.1124 77.0454 19.8397 77.0454 22.9078V60.7488L78.409 59.726V22.9078C78.409 19.1578 75.3409 15.7488 71.9318 15.0669V14.726Z" fill="white" fill-opacity="0.25"/>
<path d="M77.0453 60.7508V22.569C77.0453 19.8417 74.659 17.1144 71.9317 16.4326L34.4317 10.2963L37.4999 8.93262L72.2726 14.3872C76.0226 15.069 79.0908 18.819 79.0908 22.569V59.3872L77.0453 60.7508ZM36.4772 9.95535L71.9317 15.7508C74.9999 16.4326 77.7272 19.1599 77.7272 22.2281V59.3872L78.7499 58.7054V21.8872C78.7499 18.4781 76.0226 15.069 72.2726 14.3872L37.4999 8.93262H36.4772V9.95535Z" fill="white" fill-opacity="0.25"/>
<path d="M26.5909 65.5209C27.2728 65.5209 27.9546 65.5209 28.6364 65.5209C34.0909 64.1572 37.1591 57.68 35.4546 50.8618C34.7728 47.4527 33.0682 44.7254 30.6819 43.0209C28.2955 40.9754 25.5682 40.2936 22.8409 40.9754C20.1137 41.6572 18.0682 43.3618 16.7046 46.43C15.3409 49.1572 15 52.5663 16.0228 55.6345C17.3864 61.7709 22.1591 65.8618 26.9319 65.8618L26.5909 65.5209ZM26.9319 45.4072C30.3409 45.4072 33.4091 48.4754 33.75 52.5663C34.0909 56.9981 31.7046 60.7481 28.2955 60.7481C24.8864 60.7481 21.8182 57.68 21.4773 53.589C21.1364 49.1572 23.5228 45.4072 26.9319 45.4072Z" fill="white" fill-opacity="0.25"/>
<path d="M55.9091 46.0898C54.5455 39.9534 51.1364 34.4989 47.0455 30.4079C42.6136 26.317 36.8182 23.9307 31.0227 23.9307C25.2273 23.9307 27.6136 23.9307 26.25 24.6125C19.7727 26.317 14.3182 30.7488 11.25 37.567C8.52273 43.3625 7.84091 50.5216 9.54546 57.3398C10.9091 63.4761 14.3182 68.9307 18.4091 73.0216C20.4545 75.067 22.8409 76.4307 25.5682 77.7943C25.9091 77.7943 28.9773 79.4988 34.7727 79.4988C34.7727 79.4988 35.1136 79.4988 35.4546 79.4988C36.4773 79.4988 37.5 79.4989 38.5227 79.1579C45 77.4534 50.4546 73.0216 53.5227 66.2034C56.25 60.4079 56.9318 53.2488 55.2273 46.4307L55.9091 46.0898ZM12.6136 43.3625C14.6591 39.2716 17.7273 36.5443 21.4773 35.5216C22.5 35.5216 23.1818 35.5216 24.2045 35.5216C31.3636 35.5216 37.8409 41.6579 39.8864 49.8398C40.9091 54.6125 40.5682 59.0443 38.8636 63.1352C36.8182 67.2261 33.75 69.9534 30 70.9761C28.9773 70.9761 28.2955 70.9761 27.2727 70.9761C20.1136 70.9761 13.6364 64.8398 11.5909 56.6579C10.5682 51.8852 10.9091 47.4534 12.6136 43.3625ZM41.25 49.1579C39.2045 40.2943 32.3864 34.1579 24.8864 33.4761C25.9091 33.4761 26.5909 33.4761 27.6136 33.4761C34.7727 33.4761 41.5909 39.6125 43.6364 48.1352C44.6591 52.9079 44.3182 57.6807 42.6136 61.7716C41.5909 64.1579 39.5455 66.5443 37.1591 67.9079C38.1818 66.5443 39.2046 65.1807 39.8864 63.817C41.9318 59.7261 42.2727 54.6125 40.9091 49.4988L41.25 49.1579ZM37.5 76.7716C36.1364 77.1125 34.7727 77.4534 33.0682 77.4534C27.9545 77.4534 23.1818 75.4079 19.0909 71.6579C18.0682 70.6352 17.3864 69.9534 16.3636 68.9307C19.4318 71.6579 23.1818 73.0216 26.5909 73.0216C30 73.0216 28.6364 73.0216 29.6591 72.6807C31.0227 72.6807 32.3864 71.6579 33.4091 70.9761C35.7955 70.2943 38.1818 68.5898 39.8864 66.5443C41.25 65.1807 41.9318 63.817 42.6136 62.1125C44.6591 58.0216 45 52.9079 43.6364 48.1352C41.5909 39.2716 34.4318 32.7943 26.5909 32.7943C18.75 32.7943 24.5455 32.7943 23.5227 33.1352C22.8409 33.1352 21.4773 33.817 20.1136 34.1579C16.0227 35.1807 12.9545 37.9079 10.9091 41.6579C10.9091 40.6352 11.5909 39.9534 11.9318 38.9307C14.6591 32.7943 19.4318 29.0443 25.2273 27.3398C26.5909 27.3398 27.9545 26.6579 29.6591 26.6579C34.7727 26.6579 39.5455 28.7034 43.6364 32.4534C47.3864 36.2034 50.4546 41.317 51.8182 46.7716C53.1818 53.2489 52.8409 59.7261 50.4546 65.1807C47.7273 71.317 42.9546 75.067 37.1591 76.7716H37.5ZM52.8409 65.1807C51.8182 67.567 50.1136 69.9534 48.4091 71.6579C49.7727 69.9534 51.1364 67.9079 52.1591 65.8625C54.8864 60.067 55.2273 53.2489 53.8636 46.7716C52.5 40.9761 49.4318 35.5216 45.3409 31.7716C42.6136 29.0443 39.2046 27.3398 35.7955 26.317C39.5455 27.3398 42.9546 29.0443 46.0227 31.7716C50.1136 35.5216 53.1818 40.9761 54.5455 46.4307C56.25 52.9079 55.5682 59.7261 52.8409 65.1807Z" fill="white" fill-opacity="0.25"/>
<path d="M88.9773 72.6808C89.6591 72.3399 90 71.658 90 70.9762V16.0899C89.6591 11.999 86.5909 8.58987 82.8409 7.90805L41.5909 0.408047C36.8182 -0.61468 31.7046 0.408047 27.2727 2.11259L5.79545 11.999C5.79545 11.999 5.79546 11.999 5.45455 11.999C3.75 13.0217 2.72727 13.7035 2.04546 14.3853C0.68182 15.408 0 17.1126 0 19.158L0.681818 71.3171C0.681818 75.749 4.09091 79.499 8.18182 80.1808L61.3636 89.3853C61.3636 89.3853 61.7046 89.3853 62.0455 89.3853C62.7273 89.3853 63.0682 89.3853 63.75 89.3853C65.1136 89.3853 67.5 88.0217 67.8409 87.6808L88.9773 72.3399V72.6808ZM28.6364 4.83987C32.3864 3.13532 36.8182 2.4535 41.25 3.13532L82.5 10.6353C84.8864 10.9762 86.9318 13.3626 86.9318 15.749V68.9308C87.2727 69.6126 86.9318 70.2944 86.25 70.6353L68.8636 83.249C68.8636 83.249 68.8636 83.249 68.8636 82.9081L68.1818 30.749C68.1818 25.6353 64.4318 21.5444 59.6591 20.8626C54.8864 20.1808 48.75 19.1581 41.9318 18.1353C35.4545 17.1126 28.6364 16.0899 22.5 15.408L10.5682 13.3626L28.6364 5.18078V4.83987ZM3.75 70.9762L3.06818 19.158C3.06818 18.4762 3.06818 17.7944 3.75 17.1126C4.43182 16.4308 5.11364 16.0899 6.13636 16.0899C7.15909 16.0899 6.47727 16.0899 6.81818 16.0899C10.5682 16.7717 16.0227 17.7944 21.8182 18.4762L58.6364 24.6126C62.3864 25.2944 64.7727 28.3626 64.7727 32.1126V85.2944C64.0909 85.9762 63.0682 86.3171 62.0455 85.9762L8.86364 76.7717C6.13637 76.4308 4.09091 73.7035 3.75 70.9762Z" fill="white" fill-opacity="0.25"/>
</svg>
