<svg width="92" height="92" viewBox="0 0 92 92" fill="none" xmlns="http://www.w3.org/2000/svg">
<path d="M45.8235 2.85803C69.5252 2.85803 88.7999 22.2069 88.7999 46C88.7999 69.7931 69.5252 89.142 45.8235 89.142C22.1217 89.142 2.84706 69.7931 2.84706 46C2.84706 22.2069 22.1217 2.85803 45.8235 2.85803ZM45.8235 0C20.5131 0 0 20.5921 0 46C0 71.4079 20.5131 92 45.8235 92C71.1338 92 91.6469 71.4079 91.6469 46C91.6469 20.5921 71.1338 0 45.8235 0Z" fill="#686F7F"/>
<path d="M45.823 81.1393C65.1555 81.1393 80.8276 65.4068 80.8276 45.9998C80.8276 26.5928 65.1555 10.8604 45.823 10.8604C26.4905 10.8604 10.8184 26.5928 10.8184 45.9998C10.8184 65.4068 26.4905 81.1393 45.823 81.1393Z" fill="#686F7F"/>
</svg>
