<svg width="61" height="37" viewBox="0 0 61 37" fill="none" xmlns="http://www.w3.org/2000/svg">
<path d="M61 0H0V37H61V0Z" fill="#F56323"/>
<path d="M61 0H0V37H61V0Z" fill="black" fill-opacity="0.2"/>
<path d="M24.0795 17H23.0227C22.9602 16.696 22.8509 16.429 22.6946 16.1989C22.5412 15.9688 22.3537 15.7756 22.1321 15.6193C21.9134 15.4602 21.6705 15.3409 21.4034 15.2614C21.1364 15.1818 20.858 15.142 20.5682 15.142C20.0398 15.142 19.5611 15.2756 19.1321 15.5426C18.706 15.8097 18.3665 16.2031 18.1136 16.723C17.8636 17.2429 17.7386 17.8807 17.7386 18.6364C17.7386 19.392 17.8636 20.0298 18.1136 20.5497C18.3665 21.0696 18.706 21.4631 19.1321 21.7301C19.5611 21.9972 20.0398 22.1307 20.5682 22.1307C20.858 22.1307 21.1364 22.0909 21.4034 22.0114C21.6705 21.9318 21.9134 21.8139 22.1321 21.6577C22.3537 21.4986 22.5412 21.304 22.6946 21.0739C22.8509 20.8409 22.9602 20.5739 23.0227 20.2727H24.0795C24 20.7187 23.8551 21.1179 23.6449 21.4702C23.4347 21.8224 23.1733 22.1222 22.8608 22.3693C22.5483 22.6136 22.1974 22.7997 21.8082 22.9276C21.4219 23.0554 21.0085 23.1193 20.5682 23.1193C19.8239 23.1193 19.1619 22.9375 18.5824 22.5739C18.0028 22.2102 17.5469 21.6932 17.2145 21.0227C16.8821 20.3523 16.7159 19.5568 16.7159 18.6364C16.7159 17.7159 16.8821 16.9205 17.2145 16.25C17.5469 15.5795 18.0028 15.0625 18.5824 14.6989C19.1619 14.3352 19.8239 14.1534 20.5682 14.1534C21.0085 14.1534 21.4219 14.2173 21.8082 14.3452C22.1974 14.473 22.5483 14.6605 22.8608 14.9077C23.1733 15.152 23.4347 15.4503 23.6449 15.8026C23.8551 16.152 24 16.5511 24.0795 17ZM26.6566 14.2727V23H25.6509V14.2727H26.6566ZM31.2429 23.1364C30.6122 23.1364 30.0682 22.9972 29.6108 22.7188C29.1562 22.4375 28.8054 22.0455 28.5582 21.5426C28.3139 21.0369 28.1918 20.4489 28.1918 19.7784C28.1918 19.108 28.3139 18.517 28.5582 18.0057C28.8054 17.4915 29.1491 17.0909 29.5895 16.804C30.0327 16.5142 30.5497 16.3693 31.1406 16.3693C31.4815 16.3693 31.8182 16.4261 32.1506 16.5398C32.483 16.6534 32.7855 16.8381 33.0582 17.0938C33.331 17.3466 33.5483 17.6818 33.7102 18.0994C33.8722 18.517 33.9531 19.0312 33.9531 19.642V20.0682H28.9077V19.1989H32.9304C32.9304 18.8295 32.8565 18.5 32.7088 18.2102C32.5639 17.9205 32.3565 17.6918 32.0866 17.5241C31.8196 17.3565 31.5043 17.2727 31.1406 17.2727C30.7401 17.2727 30.3935 17.3722 30.1009 17.571C29.8111 17.767 29.5881 18.0227 29.4318 18.3381C29.2756 18.6534 29.1974 18.9915 29.1974 19.3523V19.9318C29.1974 20.4261 29.2827 20.8452 29.4531 21.1889C29.6264 21.5298 29.8665 21.7898 30.1733 21.9688C30.4801 22.1449 30.8366 22.233 31.2429 22.233C31.5071 22.233 31.7457 22.196 31.9588 22.1222C32.1747 22.0455 32.3608 21.9318 32.517 21.7812C32.6733 21.6278 32.794 21.4375 32.8793 21.2102L33.8509 21.483C33.7486 21.8125 33.5767 22.1023 33.3352 22.3523C33.0938 22.5994 32.7955 22.7926 32.4403 22.9318C32.0852 23.0682 31.6861 23.1364 31.2429 23.1364ZM37.4091 23.1534C36.9943 23.1534 36.6179 23.0753 36.2798 22.919C35.9418 22.7599 35.6733 22.5312 35.4744 22.233C35.2756 21.9318 35.1761 21.5682 35.1761 21.142C35.1761 20.767 35.25 20.4631 35.3977 20.2301C35.5455 19.9943 35.7429 19.8097 35.9901 19.6761C36.2372 19.5426 36.5099 19.4432 36.8082 19.3778C37.1094 19.3097 37.4119 19.2557 37.7159 19.2159C38.1136 19.1648 38.4361 19.1264 38.6832 19.1009C38.9332 19.0724 39.1151 19.0256 39.2287 18.9602C39.3452 18.8949 39.4034 18.7812 39.4034 18.6193V18.5852C39.4034 18.1648 39.2884 17.8381 39.0582 17.6051C38.831 17.3722 38.4858 17.2557 38.0227 17.2557C37.5426 17.2557 37.1662 17.3608 36.8935 17.571C36.6207 17.7812 36.429 18.0057 36.3182 18.2443L35.3636 17.9034C35.5341 17.5057 35.7614 17.196 36.0455 16.9744C36.3324 16.75 36.6449 16.5937 36.983 16.5057C37.3239 16.4148 37.6591 16.3693 37.9886 16.3693C38.1989 16.3693 38.4403 16.3949 38.7131 16.446C38.9886 16.4943 39.2543 16.5952 39.5099 16.7486C39.7685 16.902 39.983 17.1335 40.1534 17.4432C40.3239 17.7528 40.4091 18.1676 40.4091 18.6875V23H39.4034V22.1136H39.3523C39.2841 22.2557 39.1705 22.4077 39.0114 22.5696C38.8523 22.7315 38.6406 22.8693 38.3764 22.983C38.1122 23.0966 37.7898 23.1534 37.4091 23.1534ZM37.5625 22.25C37.9602 22.25 38.2955 22.1719 38.5682 22.0156C38.8438 21.8594 39.0511 21.6577 39.1903 21.4105C39.3324 21.1634 39.4034 20.9034 39.4034 20.6307V19.7102C39.3608 19.7614 39.267 19.8082 39.1222 19.8509C38.9801 19.8906 38.8153 19.9261 38.6278 19.9574C38.4432 19.9858 38.2628 20.0114 38.0866 20.0341C37.9134 20.054 37.7727 20.071 37.6648 20.0852C37.4034 20.1193 37.1591 20.1747 36.9318 20.2514C36.7074 20.3253 36.5256 20.4375 36.3864 20.5881C36.25 20.7358 36.1818 20.9375 36.1818 21.1932C36.1818 21.5426 36.3111 21.8068 36.5696 21.9858C36.831 22.1619 37.1619 22.25 37.5625 22.25ZM42.2447 23V16.4545H43.2163V17.4432H43.2844C43.4038 17.1193 43.6197 16.8565 43.9322 16.6548C44.2447 16.4531 44.5969 16.3523 44.989 16.3523C45.0629 16.3523 45.1552 16.3537 45.266 16.3565C45.3768 16.3594 45.4606 16.3636 45.5174 16.3693V17.392C45.4833 17.3835 45.4052 17.3707 45.283 17.3537C45.1637 17.3338 45.0373 17.3239 44.9038 17.3239C44.5856 17.3239 44.3015 17.3906 44.0515 17.5241C43.8043 17.6548 43.6083 17.8366 43.4634 18.0696C43.3214 18.2997 43.2504 18.5625 43.2504 18.858V23H42.2447Z" fill="white"/>
</svg>
