<svg width="74" height="27" viewBox="0 0 74 27" fill="none" xmlns="http://www.w3.org/2000/svg">
<path d="M74 0H0V27H74V0Z" fill="#224E73"/>
<path d="M19.75 18H17.0568V9.27273H19.8693C20.7159 9.27273 21.4403 9.44744 22.0426 9.79688C22.6449 10.1435 23.1065 10.642 23.4276 11.2926C23.7486 11.9403 23.9091 12.7159 23.9091 13.6193C23.9091 14.5284 23.7472 15.3111 23.4233 15.9673C23.0994 16.6207 22.6278 17.1236 22.0085 17.4759C21.3892 17.8253 20.6364 18 19.75 18ZM18.1136 17.0625H19.6818C20.4034 17.0625 21.0014 16.9233 21.4759 16.6449C21.9503 16.3665 22.304 15.9702 22.5369 15.456C22.7699 14.9418 22.8864 14.3295 22.8864 13.6193C22.8864 12.9148 22.7713 12.3082 22.5412 11.7997C22.3111 11.2884 21.9673 10.8963 21.5099 10.6236C21.0526 10.348 20.483 10.2102 19.8011 10.2102H18.1136V17.0625ZM28.2898 18.1364C27.6591 18.1364 27.1151 17.9972 26.6577 17.7188C26.2031 17.4375 25.8523 17.0455 25.6051 16.5426C25.3608 16.0369 25.2386 15.4489 25.2386 14.7784C25.2386 14.108 25.3608 13.517 25.6051 13.0057C25.8523 12.4915 26.196 12.0909 26.6364 11.804C27.0795 11.5142 27.5966 11.3693 28.1875 11.3693C28.5284 11.3693 28.8651 11.4261 29.1974 11.5398C29.5298 11.6534 29.8324 11.8381 30.1051 12.0938C30.3778 12.3466 30.5952 12.6818 30.7571 13.0994C30.919 13.517 31 14.0312 31 14.642V15.0682H25.9545V14.1989H29.9773C29.9773 13.8295 29.9034 13.5 29.7557 13.2102C29.6108 12.9205 29.4034 12.6918 29.1335 12.5241C28.8665 12.3565 28.5511 12.2727 28.1875 12.2727C27.7869 12.2727 27.4403 12.3722 27.1477 12.571C26.858 12.767 26.6349 13.0227 26.4787 13.3381C26.3224 13.6534 26.2443 13.9915 26.2443 14.3523V14.9318C26.2443 15.4261 26.3295 15.8452 26.5 16.1889C26.6733 16.5298 26.9134 16.7898 27.2202 16.9688C27.527 17.1449 27.8835 17.233 28.2898 17.233C28.554 17.233 28.7926 17.196 29.0057 17.1222C29.2216 17.0455 29.4077 16.9318 29.5639 16.7812C29.7202 16.6278 29.8409 16.4375 29.9261 16.2102L30.8977 16.483C30.7955 16.8125 30.6236 17.1023 30.3821 17.3523C30.1406 17.5994 29.8423 17.7926 29.4872 17.9318C29.1321 18.0682 28.733 18.1364 28.2898 18.1364ZM35.4446 11.4545V12.3068H31.9162V11.4545H35.4446ZM32.973 18V10.5511C32.973 10.1761 33.0611 9.86364 33.2372 9.61364C33.4134 9.36364 33.642 9.17614 33.9233 9.05114C34.2045 8.92614 34.5014 8.86364 34.8139 8.86364C35.0611 8.86364 35.2628 8.88352 35.419 8.9233C35.5753 8.96307 35.6918 9 35.7685 9.03409L35.4787 9.90341C35.4276 9.88636 35.3565 9.86506 35.2656 9.83949C35.1776 9.81392 35.0611 9.80114 34.9162 9.80114C34.5838 9.80114 34.3438 9.88494 34.196 10.0526C34.0511 10.2202 33.9787 10.4659 33.9787 10.7898V18H32.973ZM38.5927 18.1534C38.1779 18.1534 37.8015 18.0753 37.4634 17.919C37.1254 17.7599 36.8569 17.5312 36.658 17.233C36.4592 16.9318 36.3597 16.5682 36.3597 16.142C36.3597 15.767 36.4336 15.4631 36.5813 15.2301C36.729 14.9943 36.9265 14.8097 37.1737 14.6761C37.4208 14.5426 37.6935 14.4432 37.9918 14.3778C38.293 14.3097 38.5955 14.2557 38.8995 14.2159C39.2972 14.1648 39.6197 14.1264 39.8668 14.1009C40.1168 14.0724 40.2987 14.0256 40.4123 13.9602C40.5288 13.8949 40.587 13.7812 40.587 13.6193V13.5852C40.587 13.1648 40.4719 12.8381 40.2418 12.6051C40.0146 12.3722 39.6694 12.2557 39.2063 12.2557C38.7262 12.2557 38.3498 12.3608 38.0771 12.571C37.8043 12.7812 37.6126 13.0057 37.5018 13.2443L36.5472 12.9034C36.7177 12.5057 36.945 12.196 37.229 11.9744C37.516 11.75 37.8285 11.5937 38.1665 11.5057C38.5075 11.4148 38.8427 11.3693 39.1722 11.3693C39.3825 11.3693 39.6239 11.3949 39.8967 11.446C40.1722 11.4943 40.4379 11.5952 40.6935 11.7486C40.9521 11.902 41.1665 12.1335 41.337 12.4432C41.5075 12.7528 41.5927 13.1676 41.5927 13.6875V18H40.587V17.1136H40.5359C40.4677 17.2557 40.354 17.4077 40.195 17.5696C40.0359 17.7315 39.8242 17.8693 39.56 17.983C39.2958 18.0966 38.9734 18.1534 38.5927 18.1534ZM38.7461 17.25C39.1438 17.25 39.479 17.1719 39.7518 17.0156C40.0273 16.8594 40.2347 16.6577 40.3739 16.4105C40.516 16.1634 40.587 15.9034 40.587 15.6307V14.7102C40.5444 14.7614 40.4506 14.8082 40.3058 14.8509C40.1637 14.8906 39.9989 14.9261 39.8114 14.9574C39.6268 14.9858 39.4464 15.0114 39.2702 15.0341C39.0969 15.054 38.9563 15.071 38.8484 15.0852C38.587 15.1193 38.3427 15.1747 38.1154 15.2514C37.891 15.3253 37.7092 15.4375 37.57 15.5881C37.4336 15.7358 37.3654 15.9375 37.3654 16.1932C37.3654 16.5426 37.4947 16.8068 37.7532 16.9858C38.0146 17.1619 38.3455 17.25 38.7461 17.25ZM47.5533 15.3239V11.4545H48.5589V18H47.5533V16.892H47.4851C47.3317 17.2244 47.093 17.5071 46.7692 17.7401C46.4453 17.9702 46.0362 18.0852 45.5419 18.0852C45.1328 18.0852 44.7692 17.9957 44.451 17.8168C44.1328 17.6349 43.8828 17.3622 43.701 16.9986C43.5192 16.6321 43.4283 16.1705 43.4283 15.6136V11.4545H44.4339V15.5455C44.4339 16.0227 44.5675 16.4034 44.8345 16.6875C45.1044 16.9716 45.4482 17.1136 45.8658 17.1136C46.1158 17.1136 46.37 17.0497 46.6286 16.9219C46.8899 16.794 47.1087 16.598 47.2848 16.3338C47.4638 16.0696 47.5533 15.733 47.5533 15.3239ZM51.4066 9.27273V18H50.4009V9.27273H51.4066ZM56.0952 11.4545V12.3068H52.7031V11.4545H56.0952ZM53.6918 9.88636H54.6974V16.125C54.6974 16.4091 54.7386 16.6222 54.821 16.7642C54.9063 16.9034 55.0142 16.9972 55.1449 17.0455C55.2784 17.0909 55.419 17.1136 55.5668 17.1136C55.6776 17.1136 55.7685 17.108 55.8395 17.0966C55.9105 17.0824 55.9673 17.071 56.0099 17.0625L56.2145 17.9659C56.1463 17.9915 56.0511 18.017 55.929 18.0426C55.8068 18.071 55.652 18.0852 55.4645 18.0852C55.1804 18.0852 54.902 18.0241 54.6293 17.902C54.3594 17.7798 54.1349 17.5938 53.956 17.3438C53.7798 17.0938 53.6918 16.7784 53.6918 16.3977V9.88636Z" fill="white"/>
</svg>
