<svg width="62" height="38" viewBox="0 0 62 38" fill="none" xmlns="http://www.w3.org/2000/svg">
<path d="M61.1738 0.0439453H0.173828V37.0439H61.1738V0.0439453Z" fill="#224E73"/>
<path d="M15.75 23H13.0568V14.2727H15.8693C16.7159 14.2727 17.4403 14.4474 18.0426 14.7969C18.6449 15.1435 19.1065 15.642 19.4276 16.2926C19.7486 16.9403 19.9091 17.7159 19.9091 18.6193C19.9091 19.5284 19.7472 20.3111 19.4233 20.9673C19.0994 21.6207 18.6278 22.1236 18.0085 22.4759C17.3892 22.8253 16.6364 23 15.75 23ZM14.1136 22.0625H15.6818C16.4034 22.0625 17.0014 21.9233 17.4759 21.6449C17.9503 21.3665 18.304 20.9702 18.5369 20.456C18.7699 19.9418 18.8864 19.3295 18.8864 18.6193C18.8864 17.9148 18.7713 17.3082 18.5412 16.7997C18.3111 16.2884 17.9673 15.8963 17.5099 15.6236C17.0526 15.348 16.483 15.2102 15.8011 15.2102H14.1136V22.0625ZM24.2898 23.1364C23.6591 23.1364 23.1151 22.9972 22.6577 22.7188C22.2031 22.4375 21.8523 22.0455 21.6051 21.5426C21.3608 21.0369 21.2386 20.4489 21.2386 19.7784C21.2386 19.108 21.3608 18.517 21.6051 18.0057C21.8523 17.4915 22.196 17.0909 22.6364 16.804C23.0795 16.5142 23.5966 16.3693 24.1875 16.3693C24.5284 16.3693 24.8651 16.4261 25.1974 16.5398C25.5298 16.6534 25.8324 16.8381 26.1051 17.0938C26.3778 17.3466 26.5952 17.6818 26.7571 18.0994C26.919 18.517 27 19.0312 27 19.642V20.0682H21.9545V19.1989H25.9773C25.9773 18.8295 25.9034 18.5 25.7557 18.2102C25.6108 17.9205 25.4034 17.6918 25.1335 17.5241C24.8665 17.3565 24.5511 17.2727 24.1875 17.2727C23.7869 17.2727 23.4403 17.3722 23.1477 17.571C22.858 17.767 22.6349 18.0227 22.4787 18.3381C22.3224 18.6534 22.2443 18.9915 22.2443 19.3523V19.9318C22.2443 20.4261 22.3295 20.8452 22.5 21.1889C22.6733 21.5298 22.9134 21.7898 23.2202 21.9688C23.527 22.1449 23.8835 22.233 24.2898 22.233C24.554 22.233 24.7926 22.196 25.0057 22.1222C25.2216 22.0455 25.4077 21.9318 25.5639 21.7812C25.7202 21.6278 25.8409 21.4375 25.9261 21.2102L26.8977 21.483C26.7955 21.8125 26.6236 22.1023 26.3821 22.3523C26.1406 22.5994 25.8423 22.7926 25.4872 22.9318C25.1321 23.0682 24.733 23.1364 24.2898 23.1364ZM29.5355 14.2727V23H28.5298V14.2727H29.5355ZM34.1218 23.1364C33.4911 23.1364 32.9471 22.9972 32.4897 22.7188C32.0352 22.4375 31.6843 22.0455 31.4371 21.5426C31.1928 21.0369 31.0707 20.4489 31.0707 19.7784C31.0707 19.108 31.1928 18.517 31.4371 18.0057C31.6843 17.4915 32.0281 17.0909 32.4684 16.804C32.9116 16.5142 33.4286 16.3693 34.0195 16.3693C34.3604 16.3693 34.6971 16.4261 35.0295 16.5398C35.3619 16.6534 35.6644 16.8381 35.9371 17.0938C36.2099 17.3466 36.4272 17.6818 36.5891 18.0994C36.7511 18.517 36.832 19.0312 36.832 19.642V20.0682H31.7866V19.1989H35.8093C35.8093 18.8295 35.7354 18.5 35.5877 18.2102C35.4428 17.9205 35.2354 17.6918 34.9656 17.5241C34.6985 17.3565 34.3832 17.2727 34.0195 17.2727C33.619 17.2727 33.2724 17.3722 32.9798 17.571C32.69 17.767 32.467 18.0227 32.3107 18.3381C32.1545 18.6534 32.0763 18.9915 32.0763 19.3523V19.9318C32.0763 20.4261 32.1616 20.8452 32.332 21.1889C32.5053 21.5298 32.7454 21.7898 33.0522 21.9688C33.359 22.1449 33.7156 22.233 34.1218 22.233C34.386 22.233 34.6246 22.196 34.8377 22.1222C35.0536 22.0455 35.2397 21.9318 35.396 21.7812C35.5522 21.6278 35.6729 21.4375 35.7582 21.2102L36.7298 21.483C36.6275 21.8125 36.4556 22.1023 36.2141 22.3523C35.9727 22.5994 35.6744 22.7926 35.3192 22.9318C34.9641 23.0682 34.565 23.1364 34.1218 23.1364ZM41.2085 16.4545V17.3068H37.8164V16.4545H41.2085ZM38.805 14.8864H39.8107V21.125C39.8107 21.4091 39.8519 21.6222 39.9343 21.7642C40.0195 21.9034 40.1275 21.9972 40.2582 22.0455C40.3917 22.0909 40.5323 22.1136 40.68 22.1136C40.7908 22.1136 40.8817 22.108 40.9528 22.0966C41.0238 22.0824 41.0806 22.071 41.1232 22.0625L41.3278 22.9659C41.2596 22.9915 41.1644 23.017 41.0423 23.0426C40.9201 23.071 40.7653 23.0852 40.5778 23.0852C40.2937 23.0852 40.0153 23.0241 39.7425 22.902C39.4727 22.7798 39.2482 22.5938 39.0692 22.3438C38.8931 22.0938 38.805 21.7784 38.805 21.3977V14.8864ZM45.3952 23.1364C44.7646 23.1364 44.2205 22.9972 43.7631 22.7188C43.3086 22.4375 42.9577 22.0455 42.7106 21.5426C42.4663 21.0369 42.3441 20.4489 42.3441 19.7784C42.3441 19.108 42.4663 18.517 42.7106 18.0057C42.9577 17.4915 43.3015 17.0909 43.7418 16.804C44.185 16.5142 44.7021 16.3693 45.293 16.3693C45.6339 16.3693 45.9705 16.4261 46.3029 16.5398C46.6353 16.6534 46.9379 16.8381 47.2106 17.0938C47.4833 17.3466 47.7006 17.6818 47.8626 18.0994C48.0245 18.517 48.1055 19.0312 48.1055 19.642V20.0682H43.06V19.1989H47.0827C47.0827 18.8295 47.0089 18.5 46.8612 18.2102C46.7163 17.9205 46.5089 17.6918 46.239 17.5241C45.9719 17.3565 45.6566 17.2727 45.293 17.2727C44.8924 17.2727 44.5458 17.3722 44.2532 17.571C43.9634 17.767 43.7404 18.0227 43.5842 18.3381C43.4279 18.6534 43.3498 18.9915 43.3498 19.3523V19.9318C43.3498 20.4261 43.435 20.8452 43.6055 21.1889C43.7788 21.5298 44.0188 21.7898 44.3256 21.9688C44.6325 22.1449 44.989 22.233 45.3952 22.233C45.6594 22.233 45.8981 22.196 46.1112 22.1222C46.3271 22.0455 46.5131 21.9318 46.6694 21.7812C46.8256 21.6278 46.9464 21.4375 47.0316 21.2102L48.0032 21.483C47.9009 21.8125 47.729 22.1023 47.4876 22.3523C47.2461 22.5994 46.9478 22.7926 46.5927 22.9318C46.2376 23.0682 45.8384 23.1364 45.3952 23.1364Z" fill="white"/>
</svg>
