<svg width="18" height="22" viewBox="0 0 18 22" fill="none" xmlns="http://www.w3.org/2000/svg">
<path d="M17.9972 21.3287V4.95706C17.9972 4.79608 17.9437 4.64117 17.8451 4.51967L14.3989 0.227806C14.2806 0.0820102 14.1117 0 13.9343 0H0.619428C0.275927 0 0 0.297667 0 0.668231V21.3318C0 21.6993 0.275927 22 0.619428 22H17.3806C17.7213 22 18 21.7023 18 21.3318L17.9972 21.3287ZM1.79916 20.0318V8.03396L1.83857 8.00663L1.79916 8.01574V1.94091H12.656V5.56455C12.656 5.93207 12.932 6.23278 13.2755 6.23278H16.198V20.0318" fill="#B6CCD9"/>
</svg>
