<svg width="24" height="24" viewBox="0 0 24 24" fill="none" xmlns="http://www.w3.org/2000/svg">
<path d="M10.9055 18V9.81818H13.1747V18H10.9055ZM12.0455 8.76349C11.7081 8.76349 11.4187 8.65163 11.1772 8.42791C10.9393 8.20064 10.8203 7.92898 10.8203 7.61293C10.8203 7.30043 10.9393 7.03232 11.1772 6.80859C11.4187 6.58132 11.7081 6.46768 12.0455 6.46768C12.3828 6.46768 12.6705 6.58132 12.9084 6.80859C13.1499 7.03232 13.2706 7.30043 13.2706 7.61293C13.2706 7.92898 13.1499 8.20064 12.9084 8.42791C12.6705 8.65163 12.3828 8.76349 12.0455 8.76349Z" fill="#F46223"/>
<path fill-rule="evenodd" clip-rule="evenodd" d="M12 1.84617C17.5385 1.84617 22.1539 6.46156 22.1539 12C22.1539 17.5385 17.5385 22.1539 12 22.1539C6.46153 22.1539 1.84613 17.5385 1.84613 12C1.84613 6.46156 6.46153 1.84617 12 1.84617ZM12 0C5.3846 0 0 5.38464 0 12C0 18.6154 5.3846 24 12 24C18.6154 24 24 18.6154 24 12C24 5.38464 18.6154 0 12 0Z" fill="#F46223"/>
</svg>
