<svg width="44" height="44" viewBox="0 0 44 44" fill="none" xmlns="http://www.w3.org/2000/svg">
<path d="M28.32 17H28V15.77C28 12.59 25.31 10 22 10C18.69 10 16 12.59 16 15.78V17H15.68C13.65 17 12 18.59 12 20.56V27.44C12 29.41 13.65 31 15.68 31H28.32C30.35 31 32 29.41 32 27.44V20.56C32 18.59 30.35 17 28.32 17ZM23.5 25.49C23.5 26.32 22.83 26.99 22 26.99C21.17 26.99 20.5 26.32 20.5 25.49V23C20.5 22.17 21.17 21.5 22 21.5C22.83 21.5 23.5 22.17 23.5 23V25.49ZM26 17H18V15.78C18 13.7 19.79 12 22 12C24.21 12 26 13.69 26 15.77V17Z" fill="white"/>
</svg>
