<svg width="44" height="44" viewBox="0 0 44 44" fill="none" xmlns="http://www.w3.org/2000/svg">
<g transform="translate(10.81, 13.04)">
<path d="M16.78 1V12.65H1V1H16.78ZM17.78 0H0V13.65H17.78V0Z" fill="white"/>
<path d="M21.8798 4.1499H4.2998V17.4199H21.8798V4.1499Z" fill="#003A66"/>
<path d="M21.3798 4.6499V16.9199H4.7998V4.6499H21.3798ZM22.3798 3.6499H3.7998V17.9199H22.3798V3.6499Z" fill="white"/>
<path fill-rule="evenodd" clip-rule="evenodd" d="M15.55 15H18L21 7H18.55L16.9 11.4343L15.4 7H13L10 15H12.45L14.1 10.6114L15.6 15H15.55Z" fill="white"/>
<path fill-rule="evenodd" clip-rule="evenodd" d="M13 7H5.69767L5 8.96568H7.46513L5.37211 15H7.74419L9.8372 8.96568H12.3023L13 7Z" fill="white"/>
</g>
</svg>