<svg width="92" height="92" viewBox="0 0 92 92" fill="none" xmlns="http://www.w3.org/2000/svg">
<path d="M45.8235 2.85803C69.5252 2.85803 88.7999 22.2069 88.7999 46C88.7999 69.7931 69.5252 89.142 45.8235 89.142C22.1217 89.142 2.84706 69.7931 2.84706 46C2.84706 22.2069 22.1217 2.85803 45.8235 2.85803ZM45.8235 0C20.5131 0 0 20.5921 0 46C0 71.4079 20.5131 92 45.8235 92C71.1338 92 91.6469 71.4079 91.6469 46C91.6469 20.5921 71.1338 0 45.8235 0Z" fill="white"/>
<rect x="32" y="28" width="6" height="36" rx="3" ry="3" fill="white"/>
<rect x="54" y="28" width="6" height="36" rx="3" ry="3" fill="white"/>
</svg> 