<svg width="44" height="44" viewBox="0 0 44 44" fill="none" xmlns="http://www.w3.org/2000/svg">
<g transform="translate(10, 10)">
<path d="M21.9396 13.3754C21.995 12.9211 22.0387 12.4435 22.0387 11.9543C22.0387 11.733 22.0329 11.5291 22.0183 11.334C21.9891 10.903 22.2253 10.5012 22.6073 10.3002L23.3858 9.89255C23.8844 9.63046 24.1059 9.0364 23.8989 8.51514L22.9892 6.20295C22.7881 5.69334 22.2457 5.40796 21.7122 5.53318L20.7179 5.76614C20.3039 5.86224 19.884 5.70499 19.607 5.38466C19.3009 5.0323 18.9714 4.70032 18.6186 4.39164C18.2862 4.10044 18.1754 3.63159 18.3066 3.20934L18.5545 2.42017C18.7236 1.88144 18.4582 1.30485 17.9393 1.08062L15.665 0.0963361C15.1635 -0.119157 14.5804 0.0613912 14.2917 0.524411L13.7377 1.41259C13.522 1.75913 13.1342 1.95715 12.726 1.92512C12.4723 1.90473 12.2187 1.896 11.9621 1.896C11.7055 1.896 11.4781 1.90473 11.2448 1.92221C10.8366 1.95133 10.4488 1.75331 10.236 1.40677L9.68783 0.521499C9.39917 0.0555671 8.81313 -0.127893 8.31163 0.093424L6.03738 1.08353C5.5213 1.30776 5.25888 1.88435 5.42508 2.42017L5.6875 3.25593C5.81579 3.66363 5.67 4.09461 5.34928 4.37417C4.99065 4.68576 4.65534 5.02356 4.34336 5.38175C4.06637 5.69916 3.64943 5.8535 3.23831 5.76032L2.26738 5.53318C1.73673 5.40796 1.19441 5.69334 0.993222 6.20004L0.077694 8.50349C-0.12932 9.02766 0.0893596 9.62173 0.590859 9.88381L1.32561 10.2682C1.7134 10.472 1.93791 10.8827 1.91167 11.3166C1.89709 11.5262 1.89126 11.733 1.89126 11.9426C1.89126 12.1698 1.90001 12.4231 1.9175 12.6765C1.94666 13.1162 1.72507 13.5356 1.33436 13.7423L0.590859 14.1325C0.0922753 14.3946 -0.126402 14.9887 0.0806125 15.5128L0.996141 17.8163C1.19732 18.323 1.73964 18.6055 2.27321 18.4803L3.32578 18.2327C3.73398 18.1366 4.14801 18.291 4.425 18.6026C4.72823 18.9433 5.05187 19.2636 5.39884 19.5577C5.7254 19.8373 5.8362 20.2945 5.71082 20.7051L5.43966 21.5816C5.27347 22.1174 5.53588 22.694 6.05196 22.9182L8.32912 23.9084C8.83062 24.1268 9.41667 23.9433 9.70533 23.4803L10.3118 22.5076C10.5305 22.1582 10.9212 21.9369 11.3323 21.966C11.548 21.9806 11.7696 21.9893 11.9912 21.9893C12.2128 21.9893 12.4461 21.9806 12.6764 21.966C13.0817 21.9369 13.4695 22.1349 13.6853 22.4785L14.3092 23.4803C14.5979 23.9433 15.1839 24.1238 15.6854 23.9084L17.9626 22.9182C18.4787 22.694 18.7411 22.1174 18.5749 21.5816L18.2891 20.6614C18.1638 20.2537 18.2716 19.8023 18.5953 19.5228C18.9364 19.2287 19.2571 18.9112 19.5516 18.5734C19.8228 18.2618 20.2339 18.1104 20.6363 18.2036L21.7297 18.4628C22.2632 18.588 22.8055 18.3055 23.0067 17.7988L23.9223 15.4954C24.1293 14.9712 23.9106 14.3771 23.412 14.1151L21.9658 13.355L21.9425 13.3666L21.9396 13.3754ZM18.1638 13.0463H18.1521C17.7177 15.6381 15.6096 17.7289 13.0146 18.1512C8.71982 18.8472 5.07228 15.1896 5.78371 10.903C6.20649 8.31129 8.29996 6.22042 10.9095 5.78361C15.2043 5.07307 18.8781 8.74519 18.1667 13.0463H18.1638Z" fill="white"/>
</g>
</svg>