<svg width="92" height="92" viewBox="0 0 92 92" fill="none" xmlns="http://www.w3.org/2000/svg">
<path d="M46.177 2.85803C69.8788 2.85803 89.1534 22.2069 89.1534 46C89.1534 69.7931 69.8788 89.142 46.177 89.142C22.4752 89.142 3.20058 69.7931 3.20058 46C3.20058 22.2069 22.4752 2.85803 46.177 2.85803ZM46.177 0C20.8666 0 0.353516 20.5921 0.353516 46C0.353516 71.4079 20.8666 92 46.177 92C71.4874 92 92.0004 71.4079 92.0004 46C92.0004 20.5921 71.4874 0 46.177 0Z" fill="white"/>
<path d="M52.8676 31.7529H39.4864C35.3431 31.7529 31.9844 35.1246 31.9844 39.2838V52.7166C31.9844 56.8758 35.3431 60.2475 39.4864 60.2475H52.8676C57.0108 60.2475 60.3696 56.8758 60.3696 52.7166V39.2838C60.3696 35.1246 57.0108 31.7529 52.8676 31.7529Z" fill="#F56323"/>
</svg>
