<svg width="149" height="59" viewBox="0 0 149 59" fill="none" xmlns="http://www.w3.org/2000/svg">
<path d="M50.0483 50.6204C50.0483 54.0204 47.7483 56.7804 44.9383 56.7804H22.8483C20.0283 56.7804 17.7383 54.0204 17.7383 50.6204V24.0604C17.7383 20.6604 20.0383 17.9004 22.8483 17.9004H44.9383C47.7583 17.9004 50.0483 20.6604 50.0483 24.0604" stroke="#F56323" stroke-width="4" stroke-linecap="round" stroke-linejoin="round"/>
<path d="M66.2106 37.29H33.8906" stroke="#F56323" stroke-width="4" stroke-linecap="round" stroke-linejoin="round"/>
<path d="M60.4688 28.25L66.7988 36.1C67.4188 36.84 67.4188 37.94 66.7988 38.68L60.4688 46.72" stroke="#F56323" stroke-width="4" stroke-linecap="round" stroke-linejoin="round"/>
<path d="M15.87 30.24C23.8063 30.24 30.24 23.8063 30.24 15.87C30.24 7.93367 23.8063 1.5 15.87 1.5C7.93367 1.5 1.5 7.93367 1.5 15.87C1.5 23.8063 7.93367 30.24 15.87 30.24Z" fill="white"/>
<path d="M15.87 31.74C7.12 31.74 0 24.62 0 15.87C0 7.12 7.12 0 15.87 0C24.62 0 31.74 7.12 31.74 15.87C31.74 24.62 24.62 31.74 15.87 31.74ZM15.87 3C8.77 3 3 8.77 3 15.87C3 22.97 8.77 28.74 15.87 28.74C22.97 28.74 28.74 22.97 28.74 15.87C28.74 8.77 22.97 3 15.87 3Z" fill="#003A66"/>
<path d="M18.1702 23.67H15.0102V15.02C15.0102 14.78 15.0102 14.49 15.0102 14.14C15.0102 13.79 15.0302 13.43 15.0402 13.06C15.0502 12.69 15.0702 12.35 15.0802 12.05C15.0002 12.14 14.8502 12.29 14.6202 12.51C14.3902 12.73 14.1802 12.92 13.9802 13.09L12.2602 14.47L10.7402 12.57L15.5602 8.73999H18.1602V23.69L18.1702 23.67Z" fill="#003A66"/>
<path fill-rule="evenodd" clip-rule="evenodd" d="M142 29L144.079 29L149 37.5002L144.079 46L142 46L146.921 37.5002L142 29Z" fill="#003A66"/>
</svg>
