<svg width="75" height="72" viewBox="0 0 75 72" fill="none" xmlns="http://www.w3.org/2000/svg">
<path d="M63.5517 48.14V53.19C63.5517 57.25 60.8117 59.14 57.4517 59.14H31.1117C27.7517 59.14 25.0117 57.25 25.0117 53.19V18.59C25.0117 14.53 27.7517 12.79 31.1117 12.79H57.4517C60.8117 12.79 63.5517 14.54 63.5517 18.59" stroke="#F56323" stroke-width="4" stroke-linecap="round" stroke-linejoin="round"/>
<path d="M68.5313 21.0699L50.2913 45.9599C50.1613 46.1399 50.0813 46.3599 50.0713 46.5899L49.9613 50.5399C49.9413 51.3199 50.7113 51.8899 51.4513 51.6299L55.1813 50.3399C55.4013 50.2699 55.5813 50.1299 55.7213 49.9399L73.9613 25.0499C74.3313 24.5499 74.2213 23.8499 73.7213 23.4799L70.0913 20.8199C69.5913 20.4499 68.8913 20.5599 68.5213 21.0599L68.5313 21.0699Z" fill="#F56323"/>
<path d="M33.3984 27.3799H56.7384" stroke="#F56323" stroke-width="4" stroke-linecap="round" stroke-linejoin="round"/>
<path d="M33.3984 35.96H51.2384" stroke="#F56323" stroke-width="4" stroke-linecap="round" stroke-linejoin="round"/>
<path d="M33.3984 44.5498H45.0684" stroke="#F56323" stroke-width="4" stroke-linecap="round" stroke-linejoin="round"/>
<path d="M15.87 30.24C23.8063 30.24 30.24 23.8063 30.24 15.87C30.24 7.93367 23.8063 1.5 15.87 1.5C7.93367 1.5 1.5 7.93367 1.5 15.87C1.5 23.8063 7.93367 30.24 15.87 30.24Z" fill="white"/>
<path d="M15.87 31.74C7.12 31.74 0 24.62 0 15.87C0 7.12 7.12 0 15.87 0C24.62 0 31.74 7.12 31.74 15.87C31.74 24.62 24.62 31.74 15.87 31.74ZM15.87 3C8.77 3 3 8.77 3 15.87C3 22.97 8.77 28.74 15.87 28.74C22.97 28.74 28.74 22.97 28.74 15.87C28.74 8.77 22.97 3 15.87 3Z" fill="#003A66"/>
<path d="M21.3001 12.07C21.3001 12.76 21.1601 13.36 20.8701 13.86C20.5801 14.36 20.2001 14.78 19.7101 15.1C19.2201 15.42 18.6701 15.66 18.0701 15.81V15.87C19.2701 16.02 20.1801 16.39 20.8101 16.97C21.4301 17.56 21.7501 18.34 21.7501 19.32C21.7501 20.19 21.5401 20.97 21.1101 21.66C20.6801 22.35 20.0301 22.89 19.1401 23.29C18.2501 23.69 17.1101 23.88 15.7101 23.88C14.8801 23.88 14.1201 23.81 13.4001 23.68C12.6901 23.55 12.0201 23.34 11.3901 23.07V20.38C12.0301 20.71 12.7001 20.95 13.4001 21.12C14.1001 21.29 14.7601 21.37 15.3601 21.37C16.4901 21.37 17.2801 21.17 17.7401 20.78C18.1901 20.39 18.4201 19.84 18.4201 19.13C18.4201 18.71 18.3101 18.36 18.1001 18.08C17.8901 17.79 17.5201 17.58 17.0001 17.42C16.4801 17.27 15.7501 17.2 14.8201 17.2H13.6901V14.78H14.8501C15.7701 14.78 16.4701 14.69 16.9501 14.52C17.4301 14.35 17.7601 14.11 17.9301 13.8C18.1001 13.5 18.1901 13.15 18.1901 12.76C18.1901 12.23 18.0301 11.81 17.7001 11.51C17.3701 11.21 16.8301 11.06 16.0601 11.06C15.5801 11.06 15.1501 11.12 14.7601 11.24C14.3701 11.36 14.0201 11.5 13.7001 11.67C13.3901 11.84 13.1101 12 12.8701 12.16L11.4101 9.98001C12.0001 9.56001 12.6801 9.21001 13.4701 8.93001C14.2601 8.65001 15.2001 8.51001 16.2901 8.51001C17.8301 8.51001 19.0501 8.82001 19.9501 9.44001C20.8501 10.06 21.3001 10.94 21.3001 12.07Z" fill="#003A66"/>
</svg>
