<svg width="143" height="72" viewBox="0 0 143 72" fill="none" xmlns="http://www.w3.org/2000/svg">
<path fill-rule="evenodd" clip-rule="evenodd" d="M136 29L138.079 29L143 37.5002L138.079 46L136 46L140.921 37.5002L136 29Z" fill="#003A66"/>
<path d="M52.0211 17.8896H25.3311C20.1065 17.8896 15.8711 22.125 15.8711 27.3496V44.5597C15.8711 49.7843 20.1065 54.0196 25.3311 54.0196H52.0211C57.2457 54.0196 61.4811 49.7843 61.4811 44.5597V27.3496C61.4811 22.125 57.2457 17.8896 52.0211 17.8896Z" stroke="#F56323" stroke-width="4" stroke-linecap="round" stroke-linejoin="round"/>
<path d="M57.4584 22.4697L41.0084 38.9197C39.7184 40.2097 37.6284 40.2097 36.3384 38.9197L19.8984 22.4797" stroke="#F56323" stroke-width="4" stroke-linecap="round" stroke-linejoin="round"/>
<path d="M19.0312 49.89L32.9513 35.96" stroke="#F56323" stroke-width="4" stroke-linecap="round" stroke-linejoin="round"/>
<path d="M45.1797 36.7402L57.2697 48.8402" stroke="#F56323" stroke-width="4" stroke-linecap="round" stroke-linejoin="round"/>
<path d="M71.5005 45.2496C70.8705 40.5096 66.8205 36.8496 61.9105 36.8496C57.0005 36.8496 52.9505 40.5096 52.3205 45.2496H52.2305V61.7996C52.2305 67.1496 56.5605 71.4796 61.9105 71.4796C67.2605 71.4796 71.5905 67.1496 71.5905 61.7996V45.2496H71.5005Z" fill="white"/>
<path d="M55.8003 61.9096V46.2996" stroke="#F56323" stroke-width="2" stroke-linecap="round" stroke-linejoin="round"/>
<path d="M59.8804 61.9096V46.2996" stroke="#F56323" stroke-width="2" stroke-linecap="round" stroke-linejoin="round"/>
<path d="M63.9507 61.9096V46.2996" stroke="#F56323" stroke-width="2" stroke-linecap="round" stroke-linejoin="round"/>
<path d="M68.0303 61.9096V46.2996" stroke="#F56323" stroke-width="2" stroke-linecap="round" stroke-linejoin="round"/>
<path d="M59.8804 46.2996C59.8804 45.1696 60.7904 44.2596 61.9204 44.2596C63.0504 44.2596 63.9604 45.1696 63.9604 46.2996" stroke="#F56323" stroke-width="2" stroke-linecap="round" stroke-linejoin="round"/>
<path d="M68.0306 61.9096C68.0306 64.1596 66.2106 65.9896 63.9506 65.9896C61.6906 65.9896 59.8706 64.1696 59.8706 61.9096" stroke="#F56323" stroke-width="2" stroke-linecap="round" stroke-linejoin="round"/>
<path d="M55.8003 46.3396C55.8003 42.9596 58.5403 40.2296 61.9103 40.2296C65.2803 40.2296 68.0203 42.9696 68.0203 46.3396" stroke="#F56323" stroke-width="2" stroke-linecap="round" stroke-linejoin="round"/>
<path d="M15.87 30.24C23.8063 30.24 30.24 23.8063 30.24 15.87C30.24 7.93367 23.8063 1.5 15.87 1.5C7.93367 1.5 1.5 7.93367 1.5 15.87C1.5 23.8063 7.93367 30.24 15.87 30.24Z" fill="white"/>
<path d="M15.87 31.74C7.12 31.74 0 24.62 0 15.87C0 7.12 7.12 0 15.87 0C24.62 0 31.74 7.12 31.74 15.87C31.74 24.62 24.62 31.74 15.87 31.74ZM15.87 3C8.77 3 3 8.77 3 15.87C3 22.97 8.77 28.74 15.87 28.74C22.97 28.74 28.74 22.97 28.74 15.87C28.74 8.77 22.97 3 15.87 3Z" fill="#003A66"/>
<path d="M21.0601 23.67H10.6101V21.47L14.3601 17.68C15.1201 16.9 15.7301 16.25 16.1901 15.73C16.6501 15.21 16.9801 14.73 17.1901 14.3C17.4001 13.87 17.5001 13.41 17.5001 12.92C17.5001 12.33 17.3301 11.88 17.0001 11.59C16.6701 11.3 16.2301 11.15 15.6801 11.15C15.1001 11.15 14.5401 11.28 13.9901 11.55C13.4401 11.82 12.8801 12.19 12.2801 12.68L10.5601 10.64C10.9901 10.27 11.4401 9.92001 11.9301 9.60001C12.4201 9.28001 12.9701 9.01001 13.6101 8.81001C14.2501 8.61001 15.0101 8.51001 15.9101 8.51001C16.8901 8.51001 17.7401 8.69001 18.4401 9.04001C19.1501 9.39001 19.6901 9.88001 20.0701 10.49C20.4501 11.1 20.6401 11.79 20.6401 12.56C20.6401 13.39 20.4801 14.14 20.1501 14.82C19.8201 15.5 19.3501 16.18 18.7201 16.85C18.1001 17.52 17.3401 18.26 16.4701 19.07L14.5501 20.88V21.02H21.0601V23.68V23.67Z" fill="#003A66"/>
</svg>
