<svg width="29" height="29" viewBox="0 0 29 29" fill="none" xmlns="http://www.w3.org/2000/svg">
<path d="M14.5 0.9C22 0.9 28.1 7 28.1 14.5C28.1 22 22 28.1 14.5 28.1C7 28.1 0.9 22 0.9 14.5C0.9 7 7 0.9 14.5 0.9ZM14.5 0C6.5 0 0 6.5 0 14.5C0 22.5 6.5 29 14.5 29C22.5 29 29 22.5 29 14.5C29 6.5 22.5 0 14.5 0Z" fill="#556069"/>
<path fill-rule="evenodd" clip-rule="evenodd" d="M22.7987 13.1999L23.3987 10.0999C23.3987 9.69985 23.0987 9.39985 22.6987 9.49985L19.6987 10.5999C19.2987 10.6999 19.1987 11.1999 19.4987 11.4999L21.8987 13.5999C22.1987 13.8999 22.6987 13.5999 22.6987 13.2999L22.7987 13.1999Z" fill="#556069"/>
<path d="M22.2 16.7C21.2 20 18.2 22.5 14.5 22.5C10.8 22.5 6.5 18.9 6.5 14.5C6.5 10.1 10.1 6.5 14.5 6.5C18.9 6.5 20.9 8.7 22 11.7" stroke="#556069" stroke-width="0.8" stroke-linecap="round"/>
</svg>