<svg width="62" height="38" viewBox="0 0 62 38" fill="none" xmlns="http://www.w3.org/2000/svg">
<path d="M61.0234 0.194336V36.8936H0.324219V0.194336H61.0234Z" fill="#0C3960" stroke="#556069" stroke-width="0.3"/>
<path d="M22.8295 17.1001C22.7784 16.6682 22.571 16.333 22.2074 16.0944C21.8438 15.8557 21.3977 15.7364 20.8693 15.7364C20.483 15.7364 20.1449 15.7989 19.8551 15.9239C19.5682 16.0489 19.3438 16.2208 19.1818 16.4395C19.0227 16.6583 18.9432 16.9069 18.9432 17.1853C18.9432 17.4182 18.9986 17.6185 19.1094 17.7861C19.223 17.9509 19.3679 18.0887 19.544 18.1995C19.7202 18.3074 19.9048 18.3969 20.098 18.468C20.2912 18.5361 20.4688 18.5915 20.6307 18.6341L21.517 18.8728C21.7443 18.9324 21.9972 19.0148 22.2756 19.1199C22.5568 19.2251 22.8253 19.3685 23.081 19.5503C23.3395 19.7293 23.5526 19.9594 23.7202 20.2407C23.8878 20.5219 23.9716 20.8671 23.9716 21.2762C23.9716 21.7478 23.848 22.1739 23.6009 22.5546C23.3565 22.9353 22.9986 23.2378 22.527 23.4623C22.0582 23.6867 21.4886 23.7989 20.8182 23.7989C20.1932 23.7989 19.652 23.6981 19.1946 23.4964C18.7401 23.2947 18.3821 23.0134 18.1207 22.6526C17.8622 22.2918 17.7159 21.8728 17.6818 21.3955H18.7727C18.8011 21.7251 18.9119 21.9978 19.1051 22.2137C19.3011 22.4268 19.5483 22.5858 19.8466 22.691C20.1477 22.7932 20.4716 22.8444 20.8182 22.8444C21.2216 22.8444 21.5838 22.779 21.9048 22.6483C22.2259 22.5148 22.4801 22.3302 22.6676 22.0944C22.8551 21.8557 22.9489 21.5773 22.9489 21.2591C22.9489 20.9694 22.8679 20.7336 22.706 20.5518C22.544 20.3699 22.331 20.2222 22.0668 20.1086C21.8026 19.9949 21.517 19.8955 21.2102 19.8103L20.1364 19.5035C19.4545 19.3074 18.9148 19.0276 18.517 18.664C18.1193 18.3003 17.9205 17.8245 17.9205 17.2364C17.9205 16.7478 18.0526 16.3216 18.3168 15.958C18.5838 15.5915 18.9418 15.3074 19.3906 15.1057C19.8423 14.9012 20.3466 14.7989 20.9034 14.7989C21.4659 14.7989 21.9659 14.8998 22.4034 15.1015C22.8409 15.3003 23.1875 15.5731 23.4432 15.9197C23.7017 16.2662 23.8381 16.6597 23.8523 17.1001H22.8295ZM27.4989 23.7989C27.0842 23.7989 26.7077 23.7208 26.3697 23.5645C26.0316 23.4055 25.7631 23.1768 25.5643 22.8785C25.3654 22.5773 25.266 22.2137 25.266 21.7876C25.266 21.4126 25.3398 21.1086 25.4876 20.8756C25.6353 20.6398 25.8327 20.4552 26.0799 20.3216C26.3271 20.1881 26.5998 20.0887 26.8981 20.0233C27.1992 19.9552 27.5018 19.9012 27.8058 19.8614C28.2035 19.8103 28.5259 19.7719 28.7731 19.7464C29.0231 19.718 29.2049 19.6711 29.3185 19.6057C29.435 19.5404 29.4933 19.4268 29.4933 19.2648V19.2307C29.4933 18.8103 29.3782 18.4836 29.1481 18.2506C28.9208 18.0177 28.5756 17.9012 28.1126 17.9012C27.6325 17.9012 27.256 18.0063 26.9833 18.2165C26.7106 18.4268 26.5188 18.6512 26.408 18.8898L25.4535 18.5489C25.6239 18.1512 25.8512 17.8415 26.1353 17.6199C26.4222 17.3955 26.7347 17.2393 27.0728 17.1512C27.4137 17.0603 27.7489 17.0148 28.0785 17.0148C28.2887 17.0148 28.5302 17.0404 28.8029 17.0915C29.0785 17.1398 29.3441 17.2407 29.5998 17.3941C29.8583 17.5475 30.0728 17.779 30.2433 18.0887C30.4137 18.3983 30.4989 18.8131 30.4989 19.333V23.6455H29.4933V22.7591H29.4421C29.3739 22.9012 29.2603 23.0532 29.1012 23.2151C28.9421 23.377 28.7305 23.5148 28.4663 23.6285C28.2021 23.7421 27.8796 23.7989 27.4989 23.7989ZM27.6523 22.8955C28.0501 22.8955 28.3853 22.8174 28.658 22.6611C28.9336 22.5049 29.141 22.3032 29.2802 22.056C29.4222 21.8089 29.4933 21.5489 29.4933 21.2762V20.3557C29.4506 20.4069 29.3569 20.4537 29.212 20.4964C29.07 20.5361 28.9052 20.5716 28.7177 20.6029C28.533 20.6313 28.3526 20.6569 28.1765 20.6796C28.0032 20.6995 27.8626 20.7165 27.7546 20.7307C27.4933 20.7648 27.2489 20.8202 27.0217 20.8969C26.7972 20.9708 26.6154 21.083 26.4762 21.2336C26.3398 21.3813 26.2717 21.583 26.2717 21.8387C26.2717 22.1881 26.4009 22.4523 26.6594 22.6313C26.9208 22.8074 27.2518 22.8955 27.6523 22.8955ZM37.4524 17.1001L35.032 23.6455H34.0092L31.5888 17.1001H32.6797L34.4865 22.316H34.5547L36.3615 17.1001H37.4524ZM41.2898 23.7819C40.6591 23.7819 40.1151 23.6427 39.6577 23.3643C39.2031 23.083 38.8523 22.691 38.6051 22.1881C38.3608 21.6824 38.2386 21.0944 38.2386 20.4239C38.2386 19.7535 38.3608 19.1626 38.6051 18.6512C38.8523 18.137 39.196 17.7364 39.6364 17.4495C40.0795 17.1597 40.5966 17.0148 41.1875 17.0148C41.5284 17.0148 41.8651 17.0716 42.1974 17.1853C42.5298 17.2989 42.8324 17.4836 43.1051 17.7393C43.3778 17.9921 43.5952 18.3273 43.7571 18.7449C43.919 19.1626 44 19.6768 44 20.2876V20.7137H38.9545V19.8444H42.9773C42.9773 19.4751 42.9034 19.1455 42.7557 18.8557C42.6108 18.566 42.4034 18.3373 42.1335 18.1697C41.8665 18.002 41.5511 17.9182 41.1875 17.9182C40.7869 17.9182 40.4403 18.0177 40.1477 18.2165C39.858 18.4126 39.6349 18.6682 39.4787 18.9836C39.3224 19.2989 39.2443 19.637 39.2443 19.9978V20.5773C39.2443 21.0716 39.3295 21.4907 39.5 21.8344C39.6733 22.1753 39.9134 22.4353 40.2202 22.6143C40.527 22.7904 40.8835 22.8785 41.2898 22.8785C41.554 22.8785 41.7926 22.8415 42.0057 22.7677C42.2216 22.691 42.4077 22.5773 42.5639 22.4268C42.7202 22.2733 42.8409 22.083 42.9261 21.8557L43.8977 22.1285C43.7955 22.458 43.6236 22.7478 43.3821 22.9978C43.1406 23.2449 42.8423 23.4381 42.4872 23.5773C42.1321 23.7137 41.733 23.7819 41.2898 23.7819Z" fill="white" fill-opacity="0.2"/>
</svg>
