<svg width="61" height="37" viewBox="0 0 61 37" fill="none" xmlns="http://www.w3.org/2000/svg">
<path d="M61 0H0V37H61V0Z" fill="#F56323"/>
<path d="M61 0H0V37H61V0Z" fill="black" fill-opacity="0.2"/>
<path d="M21.5249 16.4106C21.4737 15.9788 21.2663 15.6436 20.9027 15.4049C20.5391 15.1663 20.093 15.047 19.5646 15.047C19.1783 15.047 18.8402 15.1095 18.5504 15.2345C18.2635 15.3595 18.0391 15.5313 17.8771 15.7501C17.718 15.9688 17.6385 16.2174 17.6385 16.4958C17.6385 16.7288 17.6939 16.9291 17.8047 17.0967C17.9183 17.2615 18.0632 17.3992 18.2393 17.51C18.4155 17.618 18.6001 17.7075 18.7933 17.7785C18.9865 17.8467 19.1641 17.9021 19.326 17.9447L20.2124 18.1833C20.4396 18.243 20.6925 18.3254 20.9709 18.4305C21.2521 18.5356 21.5206 18.6791 21.7763 18.8609C22.0348 19.0399 22.2479 19.27 22.4155 19.5512C22.5831 19.8325 22.6669 20.1776 22.6669 20.5867C22.6669 21.0583 22.5433 21.4845 22.2962 21.8651C22.0518 22.2458 21.6939 22.5484 21.2223 22.7728C20.7536 22.9972 20.1839 23.1095 19.5135 23.1095C18.8885 23.1095 18.3473 23.0086 17.8899 22.8069C17.4354 22.6052 17.0774 22.324 16.8161 21.9632C16.5575 21.6024 16.4112 21.1833 16.3771 20.7061H17.468C17.4964 21.0356 17.6072 21.3083 17.8004 21.5242C17.9964 21.7373 18.2436 21.8964 18.5419 22.0015C18.843 22.1038 19.1669 22.1549 19.5135 22.1549C19.9169 22.1549 20.2791 22.0896 20.6001 21.9589C20.9212 21.8254 21.1754 21.6407 21.3629 21.4049C21.5504 21.1663 21.6442 20.8879 21.6442 20.5697C21.6442 20.2799 21.5632 20.0441 21.4013 19.8623C21.2393 19.6805 21.0263 19.5328 20.7621 19.4191C20.4979 19.3055 20.2124 19.2061 19.9055 19.1208L18.8317 18.814C18.1499 18.618 17.6101 18.3382 17.2124 17.9745C16.8146 17.6109 16.6158 17.135 16.6158 16.547C16.6158 16.0583 16.7479 15.6322 17.0121 15.2686C17.2791 14.9021 17.6371 14.618 18.0859 14.4163C18.5376 14.2117 19.0419 14.1095 19.5987 14.1095C20.1612 14.1095 20.6612 14.2103 21.0987 14.412C21.5362 14.6109 21.8828 14.8836 22.1385 15.2302C22.397 15.5768 22.5334 15.9703 22.5476 16.4106H21.5249ZM26.1942 23.1095C25.7795 23.1095 25.4031 23.0313 25.065 22.8751C24.7269 22.716 24.4585 22.4873 24.2596 22.189C24.0607 21.8879 23.9613 21.5242 23.9613 21.0981C23.9613 20.7231 24.0352 20.4191 24.1829 20.1862C24.3306 19.9504 24.5281 19.7657 24.7752 19.6322C25.0224 19.4987 25.2951 19.3992 25.5934 19.3339C25.8945 19.2657 26.1971 19.2117 26.5011 19.172C26.8988 19.1208 27.2212 19.0825 27.4684 19.0569C27.7184 19.0285 27.9002 18.9816 28.0138 18.9163C28.1303 18.8509 28.1886 18.7373 28.1886 18.5754V18.5413C28.1886 18.1208 28.0735 17.7941 27.8434 17.5612C27.6161 17.3282 27.271 17.2117 26.8079 17.2117C26.3278 17.2117 25.9513 17.3169 25.6786 17.5271C25.4059 17.7373 25.2141 17.9617 25.1033 18.2004L24.1488 17.8595C24.3192 17.4617 24.5465 17.1521 24.8306 16.9305C25.1175 16.7061 25.43 16.5498 25.7681 16.4617C26.109 16.3708 26.4442 16.3254 26.7738 16.3254C26.984 16.3254 27.2255 16.3509 27.4982 16.4021C27.7738 16.4504 28.0394 16.5512 28.2951 16.7046C28.5536 16.858 28.7681 17.0896 28.9386 17.3992C29.109 17.7089 29.1942 18.1237 29.1942 18.6436V22.9561H28.1886V22.0697H28.1374C28.0692 22.2117 27.9556 22.3637 27.7965 22.5257C27.6374 22.6876 27.4258 22.8254 27.1616 22.939C26.8974 23.0526 26.5749 23.1095 26.1942 23.1095ZM26.3477 22.2061C26.7454 22.2061 27.0806 22.1279 27.3533 21.9717C27.6289 21.8154 27.8363 21.6137 27.9755 21.3666C28.1175 21.1194 28.1886 20.8595 28.1886 20.5867V19.6663C28.146 19.7174 28.0522 19.7643 27.9073 19.8069C27.7653 19.8467 27.6005 19.8822 27.413 19.9134C27.2283 19.9419 27.0479 19.9674 26.8718 19.9901C26.6985 20.01 26.5579 20.0271 26.4499 20.0413C26.1886 20.0754 25.9442 20.1308 25.717 20.2075C25.4925 20.2813 25.3107 20.3936 25.1715 20.5441C25.0352 20.6919 24.967 20.8936 24.967 21.1492C24.967 21.4987 25.0962 21.7629 25.3548 21.9419C25.6161 22.118 25.9471 22.2061 26.3477 22.2061ZM36.1477 16.4106L33.7273 22.9561H32.7045L30.2841 16.4106H31.375L33.1818 21.6265H33.25L35.0568 16.4106H36.1477ZM39.9851 23.0924C39.3544 23.0924 38.8104 22.9532 38.353 22.6748C37.8984 22.3936 37.5476 22.0015 37.3004 21.4987C37.0561 20.993 36.9339 20.4049 36.9339 19.7345C36.9339 19.064 37.0561 18.4731 37.3004 17.9617C37.5476 17.4475 37.8913 17.047 38.3317 16.76C38.7749 16.4703 39.2919 16.3254 39.8828 16.3254C40.2237 16.3254 40.5604 16.3822 40.8928 16.4958C41.2251 16.6095 41.5277 16.7941 41.8004 17.0498C42.0732 17.3026 42.2905 17.6379 42.4524 18.0555C42.6143 18.4731 42.6953 18.9873 42.6953 19.5981V20.0242H37.6499V19.1549H41.6726C41.6726 18.7856 41.5987 18.4561 41.451 18.1663C41.3061 17.8765 41.0987 17.6478 40.8288 17.4802C40.5618 17.3126 40.2464 17.2288 39.8828 17.2288C39.4822 17.2288 39.1357 17.3282 38.843 17.5271C38.5533 17.7231 38.3303 17.9788 38.174 18.2941C38.0178 18.6095 37.9396 18.9475 37.9396 19.3083V19.8879C37.9396 20.3822 38.0249 20.8012 38.1953 21.145C38.3686 21.4859 38.6087 21.7458 38.9155 21.9248C39.2223 22.1009 39.5788 22.189 39.9851 22.189C40.2493 22.189 40.4879 22.1521 40.701 22.0782C40.9169 22.0015 41.103 21.8879 41.2592 21.7373C41.4155 21.5839 41.5362 21.3936 41.6214 21.1663L42.593 21.439C42.4908 21.7686 42.3189 22.0583 42.0774 22.3083C41.8359 22.5555 41.5376 22.7487 41.1825 22.8879C40.8274 23.0242 40.4283 23.0924 39.9851 23.0924Z" fill="white"/>
</svg>
