<svg width="63" height="64" viewBox="0 0 63 64" fill="none" xmlns="http://www.w3.org/2000/svg">
<path d="M56.9007 36.0455C57.0438 34.853 57.1567 33.5993 57.1567 32.3151C57.1567 31.7341 57.1417 31.199 57.104 30.6869C57.0287 29.5555 57.6388 28.5006 58.6255 27.9732L60.6366 26.903C61.9246 26.215 62.4971 24.6556 61.9623 23.2873L59.6123 17.2178C59.0925 15.8801 57.6915 15.1309 56.3131 15.4596L53.7447 16.0712C52.6751 16.3234 51.5904 15.9107 50.8749 15.0698C50.084 14.1448 49.2328 13.2734 48.3215 12.4631C47.4628 11.6987 47.1766 10.468 47.5155 9.35958L48.1557 7.28801C48.5926 5.87383 47.9072 4.36028 46.5665 3.77168L40.6913 1.18794C39.3958 0.622271 37.8893 1.09621 37.1436 2.31164L35.7125 4.64312C35.1551 5.55277 34.1534 6.07258 33.0989 5.98849C32.4435 5.93498 31.7882 5.91205 31.1254 5.91205C30.4626 5.91205 29.8751 5.93498 29.2725 5.98085C28.218 6.05729 27.2162 5.53749 26.6663 4.62783L25.2503 2.30399C24.5046 1.08092 22.9906 0.599338 21.6951 1.1803L15.8199 3.77932C14.4867 4.36792 13.8088 5.88147 14.2382 7.28801L14.9161 9.48189C15.2475 10.5521 14.8709 11.6834 14.0424 12.4173C13.1159 13.2352 12.2497 14.1219 11.4437 15.0621C10.7282 15.8954 9.65107 16.3005 8.58903 16.0559L6.0808 15.4596C4.70994 15.1309 3.30894 15.8801 2.78921 17.2102L0.424098 23.2567C-0.110689 24.6327 0.454234 26.1921 1.74978 26.8801L3.64789 27.8891C4.64967 28.4242 5.22966 29.502 5.16187 30.641C5.12421 31.1914 5.10914 31.7341 5.10914 32.2845C5.10914 32.8808 5.13174 33.5458 5.17694 34.2108C5.25226 35.3651 4.67981 36.4659 3.67049 37.0086L1.74978 38.0329C0.461767 38.7209 -0.10315 40.2803 0.431638 41.6563L2.79675 47.7028C3.31648 49.0329 4.71746 49.7744 6.09586 49.4457L8.81499 48.796C9.8695 48.5437 10.9391 48.9488 11.6546 49.7668C12.438 50.6611 13.2741 51.502 14.1704 52.2741C15.014 53.0079 15.3002 54.2081 14.9763 55.2859L14.2759 57.5868C13.8465 58.9933 14.5244 60.5069 15.8576 61.0955L21.7403 63.6945C23.0358 64.2678 24.5498 63.7862 25.2955 62.5708L26.8622 60.0176C27.4271 59.1003 28.4364 58.5194 29.4985 58.5958C30.0558 58.634 30.6283 58.657 31.2007 58.657C31.7732 58.657 32.3757 58.634 32.9708 58.5958C34.0178 58.5194 35.0196 59.0392 35.577 59.9412L37.1888 62.5708C37.9345 63.7862 39.4485 64.2602 40.744 63.6945L46.6267 61.0955C47.9599 60.5069 48.6378 58.9933 48.2085 57.5868L47.4703 55.1712C47.1464 54.101 47.4251 52.9162 48.2612 52.1823C49.1425 51.4103 49.971 50.5771 50.7318 49.6903C51.4323 48.8724 52.4943 48.4749 53.5338 48.7195L56.3583 49.3999C57.7367 49.7286 59.1377 48.9871 59.6574 47.657L62.0225 41.6104C62.5573 40.2345 61.9924 38.6751 60.7044 37.9871L56.9684 35.9919L56.9082 36.0225L56.9007 36.0455ZM47.1464 35.1817H47.1163C45.994 41.985 40.5482 47.4735 33.8445 48.5819C22.7496 50.4089 13.3268 40.8078 15.1646 29.5555C16.2568 22.7522 21.6649 17.2637 28.4063 16.117C39.5012 14.2519 48.9918 23.8912 47.154 35.1817H47.1464Z" fill="white"/>
</svg>
