<svg width="40" height="40" viewBox="0 0 40 40" fill="none" xmlns="http://www.w3.org/2000/svg">
<rect y="-2.28882e-05" width="40" height="40" fill="#165F97"/>
<path opacity="0.5" d="M35.2273 6.99998H4.99902V31.9152H35.2273V6.99998Z" stroke="#DAE6ED" stroke-linecap="round" stroke-linejoin="round"/>
<path opacity="0.5" d="M13.1036 13H6.99902V18.9494H13.1036V13Z" fill="#DAE6ED"/>
<path opacity="0.5" d="M13.1036 19.5869H6.99902V25.5363H13.1036V19.5869Z" fill="#DAE6ED"/>
<path opacity="0.5" d="M19.7627 13H13.6582V18.9494H19.7627V13Z" fill="#DAE6ED"/>
<path opacity="0.5" d="M19.7627 19.5869H13.6582V25.5363H19.7627V19.5869Z" fill="#DAE6ED"/>
<path opacity="0.5" d="M26.5132 13H20.4087V18.9494H26.5132V13Z" fill="#DAE6ED"/>
<path opacity="0.5" d="M33.2637 13H27.1592V18.9494H33.2637V13Z" fill="#DAE6ED"/>
<path opacity="0.5" d="M26.5132 19.5869H20.4087V25.5363H26.5132V19.5869Z" fill="#DAE6ED"/>
<path opacity="0.5" d="M33.2637 19.5869H27.1592V25.5363H33.2637V19.5869Z" fill="#DAE6ED"/>
</svg>
