<svg width="69" height="69" viewBox="0 0 69 69" fill="none" xmlns="http://www.w3.org/2000/svg">
<path d="M19.0938 36.2567L30.7024 46.4531L51.1459 25.8551" stroke="#F56323" stroke-width="5" stroke-linecap="round"/>
<path fill-rule="evenodd" clip-rule="evenodd" d="M34.5 63.6923C18.5769 63.6923 5.30762 50.423 5.30762 34.4999C5.30762 18.5769 18.5769 5.3076 34.5 5.3076C50.4231 5.3076 63.6924 18.5769 63.6924 34.4999C63.6924 50.423 50.4231 63.6923 34.5 63.6923ZM34.5 69C53.5193 69 69 53.5192 69 34.4999C69 15.4807 53.5193 -1.39054e-05 34.5 -1.22427e-05C15.4807 -1.058e-05 -4.67881e-06 15.4807 -3.01609e-06 34.4999C-1.35338e-06 53.5192 15.4807 69 34.5 69Z" fill="#F46223"/>
</svg>
