<svg width="400" height="45" viewBox="0 0 400 45" fill="none" xmlns="http://www.w3.org/2000/svg">
<path fill-rule="evenodd" clip-rule="evenodd" d="M258.778 11.5039L252.894 25.871L247.011 11.5039H244.548L251.663 28.334H254.126L261.241 11.5039H258.778Z" fill="white"/>
<path fill-rule="evenodd" clip-rule="evenodd" d="M263.157 13.5564H265.209V11.5039H263.157V13.5564Z" fill="white"/>
<path fill-rule="evenodd" clip-rule="evenodd" d="M326.919 11.5039L321.036 25.871L315.152 11.5039H312.689L319.804 28.334H322.267L329.382 11.5039H326.919Z" fill="white"/>
<path fill-rule="evenodd" clip-rule="evenodd" d="M331.298 16.0195V28.1972H333.35V16.0195H331.298Z" fill="white"/>
<path fill-rule="evenodd" clip-rule="evenodd" d="M331.298 13.5564H333.35V11.5039H331.298V13.5564Z" fill="white"/>
<path fill-rule="evenodd" clip-rule="evenodd" d="M263.157 16.0195V28.1972H265.209V16.0195H263.157Z" fill="white"/>
<path fill-rule="evenodd" clip-rule="evenodd" d="M278.619 17.6614V16.0195H268.083V17.7982H275.882L267.536 26.6921V28.3342H278.892V26.5554H270.272L278.619 17.6614Z" fill="white"/>
<path fill-rule="evenodd" clip-rule="evenodd" d="M281.082 16.0195V28.1972H283.134V16.0195H281.082Z" fill="white"/>
<path fill-rule="evenodd" clip-rule="evenodd" d="M281.082 13.5564H283.134V11.5039H281.082V13.5564Z" fill="white"/>
<path fill-rule="evenodd" clip-rule="evenodd" d="M341.697 16.0195C338.276 16.0195 335.54 18.7561 335.54 22.1769C335.54 25.5976 338.276 28.3342 341.697 28.3342C345.118 28.3342 346.349 26.829 347.307 24.6397H345.118C344.297 25.7343 343.065 26.4186 341.697 26.4186C339.508 26.4186 337.729 24.7765 337.455 22.5873H347.717C347.717 22.5873 347.717 22.3137 347.717 22.1769C347.717 18.7561 344.981 16.0195 341.56 16.0195H341.697ZM337.866 20.5348C338.55 19.0297 340.055 17.935 341.834 17.935C343.612 17.935 345.118 19.0297 345.802 20.5348H338.003H337.866Z" fill="white"/>
<path fill-rule="evenodd" clip-rule="evenodd" d="M374.947 16.0195C371.526 16.0195 368.79 18.7561 368.79 22.1769C368.79 25.5976 371.526 28.3342 374.947 28.3342C378.368 28.3342 379.599 26.829 380.557 24.6397H378.368C377.547 25.7343 376.315 26.4186 374.947 26.4186C372.758 26.4186 370.979 24.7765 370.705 22.5873H380.967C380.967 22.5873 380.967 22.3137 380.967 22.1769C380.967 18.7561 378.231 16.0195 374.81 16.0195H374.947ZM371.116 20.5348C371.8 19.0297 373.305 17.935 375.084 17.935C376.862 17.935 378.368 19.0297 379.052 20.5348H371.252H371.116Z" fill="white"/>
<path fill-rule="evenodd" clip-rule="evenodd" d="M365.505 16.0195L362.632 25.7344L359.758 16.0195H357.432L354.559 25.7344L351.686 16.0195H349.223L353.328 28.1972H355.791L358.664 19.7139L361.537 28.1972H364L368.105 16.0195H365.642H365.505Z" fill="white"/>
<path fill-rule="evenodd" clip-rule="evenodd" d="M306.258 16.0195H304.479C303.522 16.0195 302.701 16.2932 301.88 16.7037V16.0195H299.827V28.1972H301.88V19.3033C302.427 18.4823 303.385 18.072 304.479 18.072H306.258C308.037 18.072 309.542 19.577 309.542 21.3558V28.3342H311.594V21.3558C311.594 18.4823 309.268 16.0195 306.258 16.0195Z" fill="white"/>
<path fill-rule="evenodd" clip-rule="evenodd" d="M389.314 16.0195H388.356C387.398 16.0195 386.03 16.1563 385.209 16.9773V16.0195H383.157V28.1972H385.209V19.3033C385.62 18.2087 387.262 18.072 388.356 18.072H389.314V16.0195Z" fill="white"/>
<path fill-rule="evenodd" clip-rule="evenodd" d="M392.597 13.9665V10.272H391.229V9.58789H394.787V10.272H393.418V13.9665H392.461H392.597Z" fill="white"/>
<path fill-rule="evenodd" clip-rule="evenodd" d="M395.334 13.9665V9.58789H396.703L397.524 12.5982L398.345 9.58789H399.713V13.9665H398.892V10.4088L398.071 13.9665H397.25L396.429 10.4088V13.9665H395.608H395.334Z" fill="white"/>
<path fill-rule="evenodd" clip-rule="evenodd" d="M291.481 16.0195C288.06 16.0195 285.323 18.7561 285.323 22.1769C285.323 25.5976 288.06 28.3342 291.481 28.3342C294.901 28.3342 297.638 25.5976 297.638 22.1769C297.638 18.7561 294.901 16.0195 291.481 16.0195ZM291.481 26.4186C289.154 26.4186 287.239 24.503 287.239 22.1769C287.239 19.8508 289.154 17.935 291.481 17.935C293.807 17.935 295.722 19.8508 295.722 22.1769C295.722 24.503 293.807 26.4186 291.481 26.4186Z" fill="white"/>
<path fill-rule="evenodd" clip-rule="evenodd" d="M95.0968 30.787H101.801L110.011 6.8418H103.307L98.7913 20.1142L94.6864 6.8418H88.1185L79.9087 30.787H86.6134L91.1288 17.6514L95.2337 30.787H95.0968Z" fill="white"/>
<path fill-rule="evenodd" clip-rule="evenodd" d="M116.716 18.1975C117.537 17.3765 118.495 16.9661 119.589 16.9661C120.684 16.9661 121.094 17.2398 121.368 17.7871C121.642 18.3344 121.778 19.2922 121.368 20.6605H115.211C115.621 19.5658 116.168 18.8818 116.716 18.3344V18.1975ZM125.473 26.2705L119.452 25.7231C118.905 26.2704 118.358 26.681 117.947 26.8178C117.263 27.0915 116.579 27.3652 116.032 27.3652C115.074 27.3652 114.39 26.9546 114.116 26.2705C113.842 25.7231 113.842 24.9023 114.116 23.8076H126.704L126.978 22.9865C127.799 20.6604 128.073 18.8817 127.799 17.3765C127.525 16.0082 126.841 14.9136 125.746 14.0926C124.652 13.2716 122.873 12.998 120.547 12.998C118.221 12.998 115.074 13.8189 112.884 15.4609C110.695 17.1028 109.053 19.2922 108.095 22.0288C107.411 23.9444 107.275 25.5863 107.685 26.9546C107.959 28.3229 108.643 29.4176 109.737 30.1018C110.832 30.7859 112.337 31.0595 114.527 31.0595C116.716 31.0595 119.042 30.6491 120.684 29.965C122.326 29.144 123.831 27.9125 125.473 26.1337V26.2705Z" fill="white"/>
<path fill-rule="evenodd" clip-rule="evenodd" d="M124.652 30.7864H131.493L136.967 25.1764L138.198 30.7864H145.587L142.577 21.7557L151.06 13.5459H144.082L139.429 18.3349L138.472 13.5459H130.946L133.819 21.7557L124.652 30.7864Z" fill="white"/>
<path fill-rule="evenodd" clip-rule="evenodd" d="M162.417 6.8418H156.123L154.618 11.3571H160.912L162.417 6.8418Z" fill="white"/>
<path fill-rule="evenodd" clip-rule="evenodd" d="M154.207 30.7867L160.091 13.4092H153.797L147.913 30.7867H154.207Z" fill="white"/>
<path fill-rule="evenodd" clip-rule="evenodd" d="M173.089 22.1656C172.542 23.8075 171.858 24.9021 171.037 25.7231C170.216 26.4073 169.395 26.8178 168.437 26.8178C167.48 26.8178 166.932 26.4073 166.522 25.7231C166.111 25.039 166.248 23.8075 166.795 22.3024C167.343 20.7972 168.027 19.5658 168.848 18.8816C169.669 18.1975 170.627 17.7871 171.448 17.7871C172.269 17.7871 172.953 18.1975 173.226 18.8816C173.5 19.5658 173.5 20.7972 172.953 22.3024L173.089 22.1656ZM179.384 22.0288C180.205 19.7027 180.205 17.6502 179.384 16.0082C178.426 13.9558 176.237 12.998 172.953 12.998C169.669 12.998 167.48 13.8191 165.153 15.5978C162.827 17.3766 161.322 19.5658 160.364 22.1656C159.407 25.039 159.68 27.3651 161.049 29.1439C162.143 30.5122 164.059 31.3333 166.795 31.3333C169.532 31.3333 172.405 30.5123 174.595 28.7335C176.921 27.0915 178.426 24.7653 179.384 22.1656V22.0288Z" fill="white"/>
<path fill-rule="evenodd" clip-rule="evenodd" d="M201.003 14.6399C200.456 13.5453 199.224 12.998 197.446 12.998C195.667 12.998 194.983 13.2717 193.888 13.6822C192.793 14.2295 191.699 15.0504 190.331 16.145L191.288 13.2716H185.405L179.521 30.6491H185.815L188.689 22.3024C189.236 20.6604 189.783 19.5659 190.467 19.0186C191.152 18.4713 191.836 18.0607 192.657 18.0607C193.478 18.0607 193.751 18.3343 194.025 18.7448C194.299 19.1553 194.162 19.9764 193.751 21.071L190.467 30.6491H196.898L200.593 19.5658C201.414 17.2397 201.414 15.5978 200.866 14.5031L201.003 14.6399Z" fill="white"/>
<path fill-rule="evenodd" clip-rule="evenodd" d="M23.5348 6.8418H2.05245L0 12.7254H7.25204L1.0947 30.787H8.07299L14.2303 12.7254H21.4824L23.5348 6.8418Z" fill="white"/>
<path fill-rule="evenodd" clip-rule="evenodd" d="M31.6078 20.6614H25.4504C25.8609 19.5667 26.4082 18.8827 26.9555 18.3353C27.7765 17.5144 28.7343 17.1038 29.8289 17.1038C30.9235 17.1038 31.3341 17.3775 31.6078 17.9248C31.8814 18.4721 32.0182 19.4299 31.6078 20.7982V20.6614ZM35.9862 14.2304C34.8916 13.4095 33.1127 13.1357 30.7866 13.1357C28.4605 13.1357 25.3135 13.9568 23.1242 15.5987C20.9349 17.2407 19.293 19.4299 18.3352 22.1665C17.651 24.0821 17.5143 25.724 17.9248 27.0923C18.1984 28.4606 19.0194 29.5553 19.9772 30.2395C21.0719 30.9236 22.577 31.1972 24.7663 31.1972C26.9555 31.1972 29.2816 30.7868 30.9236 30.1027C32.5656 29.2817 34.0706 28.0501 35.5757 26.2714L29.5553 25.724C29.008 26.2713 28.4605 26.6819 28.05 26.8187C27.3659 27.0924 26.6819 27.3661 26.1346 27.3661C25.1768 27.3661 24.4926 26.9555 24.2189 26.2714C23.9453 25.724 23.9453 24.9032 24.2189 23.8085H36.8072L37.0809 22.9874C37.9019 20.6613 38.1755 18.8826 37.9019 17.3774C37.6282 16.0091 36.9441 14.9145 35.8494 14.0935L35.9862 14.2304Z" fill="white"/>
<path fill-rule="evenodd" clip-rule="evenodd" d="M50.0796 26.1346C49.3955 26.5451 48.5744 26.8187 47.7534 26.8187C46.9325 26.8187 46.1115 26.4082 45.701 25.724C45.2905 25.0399 45.4273 23.9454 45.8378 22.4402C46.3851 20.7983 47.0694 19.5667 48.0272 18.8825C48.985 18.0615 49.9427 17.6512 51.0374 17.6512C52.132 17.6512 52.4057 17.7879 52.8162 18.1984C53.2267 18.6089 53.3635 19.1563 53.2266 19.9772L59.5208 19.0195C59.5208 17.1039 59.1103 15.5986 58.0157 14.6408C56.921 13.683 55.0054 13.1357 52.4057 13.1357C49.8059 13.1357 48.8482 13.4094 47.343 13.9567C46.3852 14.2303 45.5643 14.7776 44.6064 15.4618C43.6486 16.1459 42.8276 16.967 42.0066 17.788C41.0488 19.0195 40.2278 20.5245 39.6804 22.3033C39.1331 24.0821 38.8595 25.4504 38.9963 26.4082C38.9963 27.5028 39.4069 28.3238 40.091 29.1448C40.6383 29.9657 41.4594 30.5132 42.554 30.7868C43.6486 31.1973 45.0169 31.3342 46.7957 31.3342C48.5745 31.3342 50.2164 31.0604 51.5847 30.5131C52.953 29.9657 54.1844 29.2816 55.2791 28.3238C56.3737 27.366 57.3315 26.2714 58.0157 24.9031L52.2689 24.2189C51.7216 25.1767 51.0374 25.8609 50.3532 26.2714L50.0796 26.1346Z" fill="white"/>
<path fill-rule="evenodd" clip-rule="evenodd" d="M79.6353 14.6411C79.088 13.5465 77.8565 12.9992 76.0777 12.9992C74.299 12.9992 73.8884 13.1361 72.7938 13.5466C71.836 13.9571 70.7413 14.6412 69.5098 15.599L72.52 6.70508H66.2259L58.0161 30.6503H64.3102L67.1838 22.3035C67.7311 20.6616 68.2783 19.5671 68.9625 19.0198C69.6466 18.4724 70.3308 18.0618 71.1517 18.0618C71.9727 18.0618 72.2464 18.3355 72.52 18.746C72.7937 19.1565 72.6569 19.9776 72.2464 21.0722L68.9625 30.6503H75.3936L79.0879 19.5669C79.9089 17.2408 79.9088 15.5989 79.3615 14.5043L79.6353 14.6411Z" fill="white"/>
<path fill-rule="evenodd" clip-rule="evenodd" d="M222.949 0H224.454V44.3329H222.949V0Z" fill="white"/>
</svg>
