<svg width="202" height="26" viewBox="0 0 202 26" fill="none" xmlns="http://www.w3.org/2000/svg">
<path fill-rule="evenodd" clip-rule="evenodd" d="M95.0968 24.7875H101.801L110.011 0.842285H103.307L98.7913 14.1147L94.6864 0.842285H88.1185L79.9087 24.7875H86.6134L91.1288 11.6519L95.2337 24.7875H95.0968Z" fill="white"/>
<path fill-rule="evenodd" clip-rule="evenodd" d="M116.716 12.198C117.537 11.377 118.495 10.9666 119.589 10.9666C120.684 10.9666 121.094 11.2403 121.368 11.7876C121.642 12.3349 121.778 13.2927 121.368 14.661H115.211C115.621 13.5663 116.168 12.8822 116.716 12.3349V12.198ZM125.473 20.271L119.452 19.7236C118.905 20.2709 118.358 20.6815 117.947 20.8183C117.263 21.092 116.579 21.3657 116.032 21.3657C115.074 21.3657 114.39 20.9551 114.116 20.271C113.842 19.7236 113.842 18.9028 114.116 17.8081H126.704L126.978 16.987C127.799 14.6609 128.073 12.8821 127.799 11.377C127.525 10.0087 126.841 8.91405 125.746 8.09307C124.652 7.27209 122.873 6.99854 120.547 6.99854C118.221 6.99854 115.074 7.81941 112.884 9.46137C110.695 11.1033 109.053 13.2927 108.095 16.0293C107.411 17.9449 107.275 19.5868 107.685 20.9551C107.959 22.3234 108.643 23.4181 109.737 24.1023C110.832 24.7864 112.337 25.06 114.527 25.06C116.716 25.06 119.042 24.6496 120.684 23.9655C122.326 23.1445 123.831 21.9129 125.473 20.1342V20.271Z" fill="white"/>
<path fill-rule="evenodd" clip-rule="evenodd" d="M124.652 24.7869H131.493L136.967 19.1769L138.198 24.7869H145.587L142.577 15.7562L151.06 7.54639H144.082L139.429 12.3354L138.472 7.54639H130.946L133.819 15.7562L124.652 24.7869Z" fill="white"/>
<path fill-rule="evenodd" clip-rule="evenodd" d="M162.417 0.842285H156.123L154.618 5.35757H160.912L162.417 0.842285Z" fill="white"/>
<path fill-rule="evenodd" clip-rule="evenodd" d="M154.207 24.7871L160.091 7.40967H153.797L147.913 24.7871H154.207Z" fill="white"/>
<path fill-rule="evenodd" clip-rule="evenodd" d="M173.089 16.1661C172.542 17.808 171.858 18.9026 171.037 19.7236C170.216 20.4077 169.395 20.8183 168.437 20.8183C167.48 20.8183 166.932 20.4077 166.522 19.7236C166.111 19.0395 166.248 17.808 166.795 16.3029C167.343 14.7977 168.027 13.5663 168.848 12.8821C169.669 12.198 170.627 11.7876 171.448 11.7876C172.269 11.7876 172.953 12.198 173.226 12.8821C173.5 13.5663 173.5 14.7977 172.953 16.3029L173.089 16.1661ZM179.384 16.0293C180.205 13.7032 180.205 11.6507 179.384 10.0087C178.426 7.95628 176.237 6.99854 172.953 6.99854C169.669 6.99854 167.48 7.81955 165.153 9.59833C162.827 11.3771 161.322 13.5663 160.364 16.1661C159.407 19.0395 159.68 21.3656 161.049 23.1443C162.143 24.5126 164.059 25.3338 166.795 25.3338C169.532 25.3338 172.405 24.5127 174.595 22.734C176.921 21.092 178.426 18.7658 179.384 16.1661V16.0293Z" fill="white"/>
<path fill-rule="evenodd" clip-rule="evenodd" d="M201.003 8.64042C200.456 7.54579 199.224 6.99854 197.446 6.99854C195.667 6.99854 194.983 7.27219 193.888 7.68268C192.793 8.23 191.699 9.05088 190.331 10.1455L191.288 7.27213H185.405L179.521 24.6496H185.815L188.689 16.3029C189.236 14.6609 189.783 13.5664 190.467 13.0191C191.152 12.4718 191.836 12.0612 192.657 12.0612C193.478 12.0612 193.751 12.3348 194.025 12.7453C194.299 13.1558 194.162 13.9769 193.751 15.0715L190.467 24.6496H196.898L200.593 13.5663C201.414 11.2402 201.414 9.59827 200.866 8.50363L201.003 8.64042Z" fill="white"/>
<path fill-rule="evenodd" clip-rule="evenodd" d="M23.5348 0.842285H2.05245L0 6.72586H7.25204L1.0947 24.7875H8.07299L14.2303 6.72586H21.4824L23.5348 0.842285Z" fill="white"/>
<path fill-rule="evenodd" clip-rule="evenodd" d="M31.6078 14.6619H25.4504C25.8609 13.5672 26.4082 12.8831 26.9555 12.3358C27.7765 11.5148 28.7343 11.1043 29.8289 11.1043C30.9235 11.1043 31.3341 11.378 31.6078 11.9253C31.8814 12.4726 32.0182 13.4304 31.6078 14.7987V14.6619ZM35.9862 8.23094C34.8916 7.40996 33.1127 7.13623 30.7866 7.13623C28.4605 7.13623 25.3135 7.95728 23.1242 9.59923C20.9349 11.2412 19.293 13.4304 18.3352 16.167C17.651 18.0826 17.5143 19.7245 17.9248 21.0928C18.1984 22.4611 19.0194 23.5558 19.9772 24.2399C21.0719 24.9241 22.577 25.1977 24.7663 25.1977C26.9555 25.1977 29.2816 24.7873 30.9236 24.1031C32.5656 23.2822 34.0706 22.0506 35.5757 20.2719L29.5553 19.7245C29.008 20.2718 28.4605 20.6824 28.05 20.8192C27.3659 21.0929 26.6819 21.3666 26.1346 21.3666C25.1768 21.3666 24.4926 20.956 24.2189 20.2719C23.9453 19.7245 23.9453 18.9037 24.2189 17.809H36.8072L37.0809 16.9879C37.9019 14.6618 38.1755 12.883 37.9019 11.3779C37.6282 10.0096 36.9441 8.91495 35.8494 8.09397L35.9862 8.23094Z" fill="white"/>
<path fill-rule="evenodd" clip-rule="evenodd" d="M50.0796 20.1351C49.3955 20.5455 48.5744 20.8192 47.7534 20.8192C46.9325 20.8192 46.1115 20.4086 45.701 19.7245C45.2905 19.0404 45.4273 17.9458 45.8378 16.4407C46.3851 14.7988 47.0694 13.5672 48.0272 12.883C48.985 12.062 49.9427 11.6517 51.0374 11.6517C52.132 11.6517 52.4057 11.7884 52.8162 12.1989C53.2267 12.6094 53.3635 13.1567 53.2266 13.9777L59.5208 13.02C59.5208 11.1044 59.1103 9.59913 58.0157 8.64132C56.921 7.68352 55.0054 7.13623 52.4057 7.13623C49.8059 7.13623 48.8482 7.40986 47.343 7.95718C46.3852 8.23083 45.5643 8.77812 44.6064 9.46227C43.6486 10.1464 42.8276 10.9675 42.0066 11.7885C41.0488 13.0199 40.2278 14.525 39.6804 16.3038C39.1331 18.0825 38.8595 19.4508 38.9963 20.4086C38.9963 21.5033 39.4069 22.3243 40.091 23.1452C40.6383 23.9662 41.4594 24.5136 42.554 24.7873C43.6486 25.1978 45.0169 25.3347 46.7957 25.3347C48.5745 25.3347 50.2164 25.0609 51.5847 24.5135C52.953 23.9662 54.1844 23.2821 55.2791 22.3243C56.3737 21.3665 57.3315 20.2719 58.0157 18.9036L52.2689 18.2194C51.7216 19.1772 51.0374 19.8614 50.3532 20.2719L50.0796 20.1351Z" fill="white"/>
<path fill-rule="evenodd" clip-rule="evenodd" d="M79.6353 8.64159C79.088 7.54695 77.8565 6.9997 76.0777 6.9997C74.299 6.9997 73.8884 7.13656 72.7938 7.54705C71.836 7.95754 70.7413 8.64169 69.5098 9.5995L72.52 0.705566H66.2259L58.0161 24.6508H64.3102L67.1838 16.304C67.7311 14.6621 68.2783 13.5676 68.9625 13.0202C69.6466 12.4729 70.3308 12.0623 71.1517 12.0623C71.9727 12.0623 72.2464 12.336 72.52 12.7465C72.7937 13.157 72.6569 13.978 72.2464 15.0727L68.9625 24.6508H75.3936L79.0879 13.5674C79.9089 11.2413 79.9088 9.59943 79.3615 8.50479L79.6353 8.64159Z" fill="white"/>
</svg>
