<svg width="400" height="44" viewBox="0 0 400 44" fill="none" xmlns="http://www.w3.org/2000/svg">
<path fill-rule="evenodd" clip-rule="evenodd" d="M258.777 14.5039L252.893 28.871L247.01 14.5039H244.547L251.662 31.334H254.125L261.24 14.5039H258.777Z" fill="#003A66"/>
<path fill-rule="evenodd" clip-rule="evenodd" d="M263.156 16.5564H265.208V14.5039H263.156V16.5564Z" fill="#003A66"/>
<path fill-rule="evenodd" clip-rule="evenodd" d="M326.918 14.5039L321.035 28.871L315.151 14.5039H312.688L319.803 31.334H322.266L329.381 14.5039H326.918Z" fill="#003A66"/>
<path fill-rule="evenodd" clip-rule="evenodd" d="M331.297 19.0195V31.1972H333.349V19.0195H331.297Z" fill="#003A66"/>
<path fill-rule="evenodd" clip-rule="evenodd" d="M331.297 16.5564H333.349V14.5039H331.297V16.5564Z" fill="#003A66"/>
<path fill-rule="evenodd" clip-rule="evenodd" d="M263.156 19.0195V31.1972H265.208V19.0195H263.156Z" fill="#003A66"/>
<path fill-rule="evenodd" clip-rule="evenodd" d="M278.618 20.6614V19.0195H268.082V20.7982H275.881L267.535 29.6921V31.3342H278.891V29.5554H270.271L278.618 20.6614Z" fill="#003A66"/>
<path fill-rule="evenodd" clip-rule="evenodd" d="M281.081 19.0195V31.1972H283.133V19.0195H281.081Z" fill="#003A66"/>
<path fill-rule="evenodd" clip-rule="evenodd" d="M281.081 16.5564H283.133V14.5039H281.081V16.5564Z" fill="#003A66"/>
<path fill-rule="evenodd" clip-rule="evenodd" d="M341.696 19.0195C338.275 19.0195 335.539 21.7561 335.539 25.1769C335.539 28.5976 338.275 31.3342 341.696 31.3342C345.117 31.3342 346.348 29.829 347.306 27.6397H345.117C344.296 28.7343 343.064 29.4186 341.696 29.4186C339.507 29.4186 337.728 27.7765 337.454 25.5873H347.716C347.716 25.5873 347.716 25.3137 347.716 25.1769C347.716 21.7561 344.98 19.0195 341.559 19.0195H341.696ZM337.865 23.5348C338.549 22.0297 340.054 20.935 341.833 20.935C343.611 20.935 345.117 22.0297 345.801 23.5348H338.002H337.865Z" fill="#003A66"/>
<path fill-rule="evenodd" clip-rule="evenodd" d="M374.946 19.0195C371.525 19.0195 368.789 21.7561 368.789 25.1769C368.789 28.5976 371.525 31.3342 374.946 31.3342C378.367 31.3342 379.598 29.829 380.556 27.6397H378.367C377.546 28.7343 376.314 29.4186 374.946 29.4186C372.757 29.4186 370.978 27.7765 370.704 25.5873H380.966C380.966 25.5873 380.966 25.3137 380.966 25.1769C380.966 21.7561 378.23 19.0195 374.809 19.0195H374.946ZM371.115 23.5348C371.799 22.0297 373.304 20.935 375.083 20.935C376.861 20.935 378.367 22.0297 379.051 23.5348H371.251H371.115Z" fill="#003A66"/>
<path fill-rule="evenodd" clip-rule="evenodd" d="M365.504 19.0195L362.631 28.7344L359.758 19.0195H357.431L354.558 28.7344L351.685 19.0195H349.222L353.327 31.1972H355.79L358.663 22.7139L361.536 31.1972H363.999L368.104 19.0195H365.641H365.504Z" fill="#003A66"/>
<path fill-rule="evenodd" clip-rule="evenodd" d="M306.257 19.0195H304.478C303.521 19.0195 302.7 19.2932 301.879 19.7037V19.0195H299.826V31.1972H301.879V22.3033C302.426 21.4823 303.384 21.072 304.478 21.072H306.257C308.036 21.072 309.541 22.577 309.541 24.3558V31.3342H311.593V24.3558C311.593 21.4823 309.267 19.0195 306.257 19.0195Z" fill="#003A66"/>
<path fill-rule="evenodd" clip-rule="evenodd" d="M389.313 19.0195H388.355C387.397 19.0195 386.029 19.1563 385.208 19.9773V19.0195H383.156V31.1972H385.208V22.3033C385.619 21.2087 387.261 21.072 388.355 21.072H389.313V19.0195Z" fill="#003A66"/>
<path fill-rule="evenodd" clip-rule="evenodd" d="M392.596 16.9665V13.272H391.228V12.5879H394.786V13.272H393.417V16.9665H392.46H392.596Z" fill="#003A66"/>
<path fill-rule="evenodd" clip-rule="evenodd" d="M395.333 16.9665V12.5879H396.702L397.523 15.5982L398.344 12.5879H399.712V16.9665H398.891V13.4088L398.07 16.9665H397.249L396.428 13.4088V16.9665H395.607H395.333Z" fill="#003A66"/>
<path fill-rule="evenodd" clip-rule="evenodd" d="M291.48 19.0195C288.059 19.0195 285.322 21.7561 285.322 25.1769C285.322 28.5976 288.059 31.3342 291.48 31.3342C294.9 31.3342 297.637 28.5976 297.637 25.1769C297.637 21.7561 294.9 19.0195 291.48 19.0195ZM291.48 29.4186C289.153 29.4186 287.238 27.503 287.238 25.1769C287.238 22.8508 289.153 20.935 291.48 20.935C293.806 20.935 295.721 22.8508 295.721 25.1769C295.721 27.503 293.806 29.4186 291.48 29.4186Z" fill="#003A66"/>
<path fill-rule="evenodd" clip-rule="evenodd" d="M95.0968 33.787H101.801L110.011 9.8418H103.307L98.7913 23.1142L94.6864 9.8418H88.1185L79.9087 33.787H86.6134L91.1288 20.6514L95.2337 33.787H95.0968Z" fill="#003A66"/>
<path fill-rule="evenodd" clip-rule="evenodd" d="M116.716 21.1975C117.537 20.3765 118.495 19.9661 119.589 19.9661C120.684 19.9661 121.094 20.2398 121.368 20.7871C121.642 21.3344 121.778 22.2922 121.368 23.6605H115.211C115.621 22.5658 116.168 21.8818 116.716 21.3344V21.1975ZM125.473 29.2705L119.452 28.7231C118.905 29.2704 118.358 29.681 117.947 29.8178C117.263 30.0915 116.579 30.3652 116.032 30.3652C115.074 30.3652 114.39 29.9546 114.116 29.2705C113.842 28.7231 113.842 27.9023 114.116 26.8076H126.704L126.978 25.9865C127.799 23.6604 128.073 21.8817 127.799 20.3765C127.525 19.0082 126.841 17.9136 125.746 17.0926C124.652 16.2716 122.873 15.998 120.547 15.998C118.221 15.998 115.074 16.8189 112.884 18.4609C110.695 20.1028 109.053 22.2922 108.095 25.0288C107.411 26.9444 107.275 28.5863 107.685 29.9546C107.959 31.3229 108.643 32.4176 109.737 33.1018C110.832 33.7859 112.337 34.0595 114.527 34.0595C116.716 34.0595 119.042 33.6491 120.684 32.965C122.326 32.144 123.831 30.9125 125.473 29.1337V29.2705Z" fill="#003A66"/>
<path fill-rule="evenodd" clip-rule="evenodd" d="M124.652 33.7864H131.493L136.967 28.1764L138.198 33.7864H145.587L142.577 24.7557L151.06 16.5459H144.082L139.429 21.3349L138.472 16.5459H130.946L133.819 24.7557L124.652 33.7864Z" fill="#003A66"/>
<path fill-rule="evenodd" clip-rule="evenodd" d="M162.417 9.8418H156.123L154.618 14.3571H160.912L162.417 9.8418Z" fill="#003A66"/>
<path fill-rule="evenodd" clip-rule="evenodd" d="M154.207 33.7867L160.091 16.4092H153.797L147.913 33.7867H154.207Z" fill="#003A66"/>
<path fill-rule="evenodd" clip-rule="evenodd" d="M173.089 25.1656C172.542 26.8075 171.858 27.9021 171.037 28.7231C170.216 29.4073 169.395 29.8178 168.437 29.8178C167.48 29.8178 166.932 29.4073 166.522 28.7231C166.111 28.039 166.248 26.8075 166.795 25.3024C167.343 23.7972 168.027 22.5658 168.848 21.8816C169.669 21.1975 170.627 20.7871 171.448 20.7871C172.269 20.7871 172.953 21.1975 173.226 21.8816C173.5 22.5658 173.5 23.7972 172.953 25.3024L173.089 25.1656ZM179.384 25.0288C180.205 22.7027 180.205 20.6502 179.384 19.0082C178.426 16.9558 176.237 15.998 172.953 15.998C169.669 15.998 167.48 16.8191 165.153 18.5978C162.827 20.3766 161.322 22.5658 160.364 25.1656C159.407 28.039 159.68 30.3651 161.049 32.1439C162.143 33.5122 164.059 34.3333 166.795 34.3333C169.532 34.3333 172.405 33.5123 174.595 31.7335C176.921 30.0915 178.426 27.7653 179.384 25.1656V25.0288Z" fill="#003A66"/>
<path fill-rule="evenodd" clip-rule="evenodd" d="M201.003 17.6399C200.456 16.5453 199.224 15.998 197.446 15.998C195.667 15.998 194.983 16.2717 193.888 16.6822C192.793 17.2295 191.699 18.0504 190.331 19.145L191.288 16.2716H185.405L179.521 33.6491H185.815L188.689 25.3024C189.236 23.6604 189.783 22.5659 190.467 22.0186C191.152 21.4713 191.836 21.0607 192.657 21.0607C193.478 21.0607 193.751 21.3343 194.025 21.7448C194.299 22.1553 194.162 22.9764 193.751 24.071L190.467 33.6491H196.898L200.593 22.5658C201.414 20.2397 201.414 18.5978 200.866 17.5031L201.003 17.6399Z" fill="#003A66"/>
<path fill-rule="evenodd" clip-rule="evenodd" d="M23.5348 9.8418H2.05245L0 15.7254H7.25204L1.0947 33.787H8.07299L14.2303 15.7254H21.4824L23.5348 9.8418Z" fill="#003A66"/>
<path fill-rule="evenodd" clip-rule="evenodd" d="M31.6078 23.6614H25.4504C25.8609 22.5667 26.4082 21.8827 26.9555 21.3353C27.7765 20.5144 28.7343 20.1038 29.8289 20.1038C30.9235 20.1038 31.3341 20.3775 31.6078 20.9248C31.8814 21.4721 32.0182 22.4299 31.6078 23.7982V23.6614ZM35.9862 17.2304C34.8916 16.4095 33.1127 16.1357 30.7866 16.1357C28.4605 16.1357 25.3135 16.9568 23.1242 18.5987C20.9349 20.2407 19.293 22.4299 18.3352 25.1665C17.651 27.0821 17.5143 28.724 17.9248 30.0923C18.1984 31.4606 19.0194 32.5553 19.9772 33.2395C21.0719 33.9236 22.577 34.1972 24.7663 34.1972C26.9555 34.1972 29.2816 33.7868 30.9236 33.1027C32.5656 32.2817 34.0706 31.0501 35.5757 29.2714L29.5553 28.724C29.008 29.2713 28.4605 29.6819 28.05 29.8187C27.3659 30.0924 26.6819 30.3661 26.1346 30.3661C25.1768 30.3661 24.4926 29.9555 24.2189 29.2714C23.9453 28.724 23.9453 27.9032 24.2189 26.8085H36.8072L37.0809 25.9874C37.9019 23.6613 38.1755 21.8826 37.9019 20.3774C37.6282 19.0091 36.9441 17.9145 35.8494 17.0935L35.9862 17.2304Z" fill="#003A66"/>
<path fill-rule="evenodd" clip-rule="evenodd" d="M50.0796 29.1346C49.3955 29.5451 48.5744 29.8187 47.7534 29.8187C46.9325 29.8187 46.1115 29.4082 45.701 28.724C45.2905 28.0399 45.4273 26.9454 45.8378 25.4402C46.3851 23.7983 47.0694 22.5667 48.0272 21.8825C48.985 21.0615 49.9427 20.6512 51.0374 20.6512C52.132 20.6512 52.4057 20.7879 52.8162 21.1984C53.2267 21.6089 53.3635 22.1563 53.2266 22.9772L59.5208 22.0195C59.5208 20.1039 59.1103 18.5986 58.0157 17.6408C56.921 16.683 55.0054 16.1357 52.4057 16.1357C49.8059 16.1357 48.8482 16.4094 47.343 16.9567C46.3852 17.2303 45.5643 17.7776 44.6064 18.4618C43.6486 19.1459 42.8276 19.967 42.0066 20.788C41.0488 22.0195 40.2278 23.5245 39.6804 25.3033C39.1331 27.0821 38.8595 28.4504 38.9963 29.4082C38.9963 30.5028 39.4069 31.3238 40.091 32.1448C40.6383 32.9657 41.4594 33.5132 42.554 33.7868C43.6486 34.1973 45.0169 34.3342 46.7957 34.3342C48.5745 34.3342 50.2164 34.0604 51.5847 33.5131C52.953 32.9657 54.1844 32.2816 55.2791 31.3238C56.3737 30.366 57.3315 29.2714 58.0157 27.9031L52.2689 27.2189C51.7216 28.1767 51.0374 28.8609 50.3532 29.2714L50.0796 29.1346Z" fill="#003A66"/>
<path fill-rule="evenodd" clip-rule="evenodd" d="M79.6353 17.6411C79.088 16.5465 77.8565 15.9992 76.0777 15.9992C74.299 15.9992 73.8884 16.1361 72.7938 16.5466C71.836 16.9571 70.7413 17.6412 69.5098 18.599L72.52 9.70508H66.2259L58.0161 33.6503H64.3102L67.1838 25.3035C67.7311 23.6616 68.2783 22.5671 68.9625 22.0198C69.6466 21.4724 70.3308 21.0618 71.1517 21.0618C71.9727 21.0618 72.2464 21.3355 72.52 21.746C72.7937 22.1565 72.6569 22.9776 72.2464 24.0722L68.9625 33.6503H75.3936L79.0879 22.5669C79.9089 20.2408 79.9088 18.5989 79.3615 17.5043L79.6353 17.6411Z" fill="#003A66"/>
<path fill-rule="evenodd" clip-rule="evenodd" d="M223 0H224V44H223V0Z" fill="#003A66"/>
</svg>
