<svg width="48" height="27" viewBox="0 0 48 27" fill="none" xmlns="http://www.w3.org/2000/svg">
<path fill-rule="evenodd" clip-rule="evenodd" d="M31.73 6.07007H15.37C11.3 6.07007 8.02002 9.39007 8.02002 13.5001C8.02002 17.6101 11.3 20.9301 15.37 20.9301H31.72C35.79 20.9301 39.07 17.6001 39.07 13.5001C39.07 9.40007 35.79 6.07007 31.72 6.07007H31.73Z" fill="#F56223" fill-opacity="0.3"/>
<path d="M33.75 27.01H13.35C5.99 27 0 20.94 0 13.5C0 6.06 6.08 0.2 13.35 0L33.74 0.01C41.1 0.01 47.09 6.07 47.09 13.51C47.09 20.95 41.1 27.01 33.74 27.01H33.75ZM13.64 2C7.32 2.04 2 7.29 2 13.5C2 19.71 7.09 25 13.35 25H33.74C40 25.01 45.09 19.86 45.09 13.52C45.09 7.18 40 2.02 33.74 2.02H13.64V2Z" fill="#707D8E"/>
<path fill-rule="evenodd" clip-rule="evenodd" d="M20.0401 13.5401C20.0401 16.2801 17.8301 18.5001 15.0801 18.5001C12.3301 18.5001 10.1201 16.2901 10.1201 13.5401C10.1201 10.7901 12.3301 8.58008 15.0801 8.58008C17.8301 8.58008 20.0401 10.7901 20.0401 13.5401Z" fill="#F46223"/>
</svg>
