<svg width="48" height="27" viewBox="0 0 48 27" fill="none" xmlns="http://www.w3.org/2000/svg">
<path fill-rule="evenodd" clip-rule="evenodd" d="M15.3601 6H31.7201C35.7901 6 39.0701 9.32 39.0701 13.43C39.0701 17.54 35.7901 20.86 31.7201 20.86H15.3701C11.3001 20.86 8.02007 17.53 8.02007 13.43C8.02007 9.33 11.3001 6 15.3701 6H15.3601Z" fill="#F56323" fill-opacity="0.3"/>
<path d="M13.3401 27.01H33.7401C41.1001 27 47.0901 20.94 47.0901 13.5C47.0901 6.06 41.0101 0.2 33.7401 0L13.3501 0.01C5.99009 0.01 8.7738e-05 6.07 8.7738e-05 13.51C8.7738e-05 20.95 5.99009 27.01 13.3501 27.01H13.3401ZM33.4501 2C39.7701 2.04 45.0901 7.29 45.0901 13.5C45.0901 19.71 40.0001 25 33.7401 25H13.3501C7.09009 25.01 2.00009 19.86 2.00009 13.52C2.00009 7.18 7.09009 2.02 13.3501 2.02H33.4501V2Z" fill="#707D8E"/>
<path fill-rule="evenodd" clip-rule="evenodd" d="M24.3801 13.43C24.3801 17.53 27.6601 20.86 31.7301 20.86C35.8001 20.86 39.0801 17.54 39.0801 13.43C39.0801 9.32 35.8001 6 31.7301 6C27.6601 6 24.3801 9.32 24.3801 13.43Z" fill="#F56323"/>
</svg>
