<svg width="48" height="27" viewBox="0 0 48 27" fill="none" xmlns="http://www.w3.org/2000/svg">
<path fill-rule="evenodd" clip-rule="evenodd" d="M15.3601 6.07007H31.7201C35.7901 6.07007 39.0701 9.39007 39.0701 13.5001C39.0701 17.6101 35.7901 20.9301 31.7201 20.9301H15.3701C11.3001 20.9301 8.02007 17.6001 8.02007 13.5001C8.02007 9.40007 11.3001 6.07007 15.3701 6.07007H15.3601Z" fill="#707D8E" fill-opacity="0.3"/>
<path d="M13.3401 27.01H33.7401C41.1001 27 47.0901 20.94 47.0901 13.5C47.0901 6.06 41.0101 0.2 33.7401 0L13.3501 0.01C5.99009 0.01 8.7738e-05 6.07 8.7738e-05 13.51C8.7738e-05 20.95 5.99009 27.01 13.3501 27.01H13.3401ZM33.4501 2C39.7701 2.04 45.0901 7.29 45.0901 13.5C45.0901 19.71 40.0001 25 33.7401 25H13.3501C7.09009 25.01 2.00009 19.86 2.00009 13.52C2.00009 7.18 7.09009 2.02 13.3501 2.02H33.4501V2Z" fill="#707D8E"/>
<path fill-rule="evenodd" clip-rule="evenodd" d="M27.05 13.5401C27.05 16.2801 29.26 18.5001 32.01 18.5001C34.76 18.5001 36.97 16.2901 36.97 13.5401C36.97 10.7901 34.76 8.58008 32.01 8.58008C29.26 8.58008 27.05 10.7901 27.05 13.5401Z" fill="#707D8E"/>
</svg>
