<svg width="48" height="27" viewBox="0 0 48 27" fill="none" xmlns="http://www.w3.org/2000/svg">
<path fill-rule="evenodd" clip-rule="evenodd" d="M31.73 6H15.37C11.3 6 8.02002 9.32 8.02002 13.43C8.02002 17.54 11.3 20.86 15.37 20.86H31.72C35.79 20.86 39.07 17.53 39.07 13.43C39.07 9.33 35.79 6 31.72 6H31.73Z" fill="#707D8E" fill-opacity="0.3"/>
<path d="M33.75 27.01H13.35C5.99 27 0 20.94 0 13.5C0 6.06 6.08 0.2 13.35 0L33.74 0.01C41.1 0.01 47.09 6.07 47.09 13.51C47.09 20.95 41.1 27.01 33.74 27.01H33.75ZM13.64 2C7.32 2.04 2 7.29 2 13.5C2 19.71 7.09 25 13.35 25H33.74C40 25.01 45.09 19.86 45.09 13.52C45.09 7.18 40 2.02 33.74 2.02H13.64V2Z" fill="#707D8E"/>
<path fill-rule="evenodd" clip-rule="evenodd" d="M22.71 13.43C22.71 17.53 19.43 20.86 15.36 20.86C11.29 20.86 8.01001 17.54 8.01001 13.43C8.01001 9.32 11.29 6 15.36 6C19.43 6 22.71 9.32 22.71 13.43Z" fill="#707D8E"/>
</svg>
