<svg width="289" height="35" viewBox="0 0 289 35" fill="none" xmlns="http://www.w3.org/2000/svg">
<path d="M289 0H0V35H289V0Z" fill="#224E73"/>
<path d="M70.0914 12.0909H71.4125V19.3139C71.4125 20.0597 71.2367 20.7255 70.8851 21.3114C70.5371 21.8938 70.0453 22.3537 69.4096 22.6911C68.774 23.0249 68.0282 23.1918 67.1724 23.1918C66.3166 23.1918 65.5708 23.0249 64.9352 22.6911C64.2995 22.3537 63.8059 21.8938 63.4544 21.3114C63.1064 20.7255 62.9324 20.0597 62.9324 19.3139V12.0909H64.2534V19.2074C64.2534 19.7401 64.3706 20.2141 64.6049 20.6296C64.8393 21.0415 65.1731 21.3665 65.6064 21.6044C66.0431 21.8388 66.5652 21.956 67.1724 21.956C67.7797 21.956 68.3017 21.8388 68.7385 21.6044C69.1752 21.3665 69.5091 21.0415 69.7399 20.6296C69.9743 20.2141 70.0914 19.7401 70.0914 19.2074V12.0909ZM73.8801 26.0682V14.8182H75.0945V16.1179H75.2437C75.336 15.9759 75.4639 15.7947 75.6272 15.5746C75.7941 15.3509 76.032 15.152 76.341 14.978C76.6535 14.8004 77.0761 14.7116 77.6088 14.7116C78.2977 14.7116 78.9049 14.8839 79.4305 15.2283C79.9561 15.5728 80.3662 16.0611 80.661 16.6932C80.9557 17.3253 81.1031 18.071 81.1031 18.9304C81.1031 19.7969 80.9557 20.5479 80.661 21.1836C80.3662 21.8157 79.9578 22.3058 79.4358 22.6538C78.9138 22.9982 78.3119 23.1705 77.6301 23.1705C77.1045 23.1705 76.6837 23.0835 76.3676 22.9094C76.0516 22.7319 75.8083 22.5312 75.6379 22.3075C75.4674 22.0803 75.336 21.892 75.2437 21.7429H75.1372V26.0682H73.8801ZM75.1159 18.9091C75.1159 19.527 75.2064 20.0721 75.3875 20.5444C75.5686 21.0131 75.8332 21.3807 76.1812 21.647C76.5292 21.9098 76.9553 22.0412 77.4596 22.0412C77.9852 22.0412 78.4237 21.9027 78.7753 21.6257C79.1304 21.3452 79.3968 20.9687 79.5743 20.4964C79.7554 20.0206 79.846 19.4915 79.846 18.9091C79.846 18.3338 79.7572 17.8153 79.5796 17.3537C79.4056 16.8885 79.1411 16.521 78.786 16.2511C78.4344 15.9776 77.9923 15.8409 77.4596 15.8409C76.9482 15.8409 76.5186 15.9705 76.1705 16.2298C75.8225 16.4854 75.5597 16.8441 75.3822 17.3058C75.2046 17.7638 75.1159 18.2983 75.1159 18.9091ZM86.1102 23.1705C85.4284 23.1705 84.8264 22.9982 84.3044 22.6538C83.7824 22.3058 83.374 21.8157 83.0793 21.1836C82.7845 20.5479 82.6372 19.7969 82.6372 18.9304C82.6372 18.071 82.7845 17.3253 83.0793 16.6932C83.374 16.0611 83.7842 15.5728 84.3097 15.2283C84.8353 14.8839 85.4426 14.7116 86.1315 14.7116C86.6642 14.7116 87.085 14.8004 87.3939 14.978C87.7064 15.152 87.9443 15.3509 88.1077 15.5746C88.2746 15.7947 88.4042 15.9759 88.4965 16.1179H88.6031V12.0909H89.8602V23H88.6457V21.7429H88.4965C88.4042 21.892 88.2728 22.0803 88.1024 22.3075C87.9319 22.5312 87.6887 22.7319 87.3726 22.9094C87.0566 23.0835 86.6357 23.1705 86.1102 23.1705ZM86.2806 22.0412C86.7849 22.0412 87.211 21.9098 87.559 21.647C87.907 21.3807 88.1716 21.0131 88.3527 20.5444C88.5338 20.0721 88.6244 19.527 88.6244 18.9091C88.6244 18.2983 88.5356 17.7638 88.358 17.3058C88.1805 16.8441 87.9177 16.4854 87.5697 16.2298C87.2217 15.9705 86.792 15.8409 86.2806 15.8409C85.748 15.8409 85.3041 15.9776 84.949 16.2511C84.5974 16.521 84.3328 16.8885 84.1553 17.3537C83.9813 17.8153 83.8943 18.3338 83.8943 18.9091C83.8943 19.4915 83.983 20.0206 84.1606 20.4964C84.3417 20.9687 84.608 21.3452 84.9596 21.6257C85.3147 21.9027 85.7551 22.0412 86.2806 22.0412ZM94.7448 23.1918C94.2263 23.1918 93.7558 23.0941 93.3332 22.8988C92.9106 22.6999 92.575 22.4141 92.3264 22.0412C92.0779 21.6648 91.9536 21.2102 91.9536 20.6776C91.9536 20.2088 92.0459 19.8288 92.2306 19.5376C92.4152 19.2429 92.662 19.0121 92.971 18.8452C93.2799 18.6783 93.6208 18.554 93.9937 18.4723C94.3701 18.3871 94.7483 18.3196 95.1283 18.2699C95.6254 18.206 96.0285 18.158 96.3374 18.1261C96.6499 18.0906 96.8772 18.032 97.0193 17.9503C97.1649 17.8686 97.2377 17.7266 97.2377 17.5241V17.4815C97.2377 16.956 97.0938 16.5476 96.8062 16.2564C96.5221 15.9652 96.0906 15.8196 95.5118 15.8196C94.9117 15.8196 94.4411 15.951 94.1002 16.2138C93.7593 16.4766 93.5196 16.7571 93.3811 17.0554L92.1879 16.6293C92.401 16.1321 92.6851 15.745 93.0402 15.468C93.3989 15.1875 93.7895 14.9922 94.2121 14.8821C94.6382 14.7685 95.0573 14.7116 95.4692 14.7116C95.732 14.7116 96.0338 14.7436 96.3747 14.8075C96.7192 14.8679 97.0512 14.994 97.3708 15.1857C97.694 15.3775 97.9621 15.6669 98.1752 16.054C98.3882 16.4411 98.4948 16.9595 98.4948 17.6094V23H97.2377V21.892H97.1737C97.0885 22.0696 96.9465 22.2596 96.7476 22.462C96.5487 22.6644 96.2842 22.8366 95.9539 22.9787C95.6237 23.1207 95.2206 23.1918 94.7448 23.1918ZM94.9365 22.0625C95.4337 22.0625 95.8527 21.9648 96.1936 21.7695C96.5381 21.5742 96.7973 21.3221 96.9713 21.0131C97.1489 20.7042 97.2377 20.3793 97.2377 20.0384V18.8878C97.1844 18.9517 97.0672 19.0103 96.8861 19.0636C96.7085 19.1133 96.5026 19.1577 96.2682 19.1967C96.0374 19.2322 95.8119 19.2642 95.5917 19.2926C95.3751 19.3175 95.1993 19.3388 95.0644 19.3565C94.7377 19.3991 94.4323 19.4684 94.1482 19.5643C93.8676 19.6566 93.6404 19.7969 93.4664 19.9851C93.2959 20.1697 93.2107 20.4219 93.2107 20.7415C93.2107 21.1783 93.3722 21.5085 93.6954 21.7322C94.0221 21.9524 94.4358 22.0625 94.9365 22.0625ZM104.347 14.8182V15.8835H100.107V14.8182H104.347ZM101.343 12.858H102.6V20.6562C102.6 21.0114 102.652 21.2777 102.755 21.4553C102.861 21.6293 102.996 21.7464 103.16 21.8068C103.327 21.8636 103.502 21.892 103.687 21.892C103.825 21.892 103.939 21.8849 104.028 21.8707C104.117 21.853 104.188 21.8388 104.241 21.8281L104.497 22.9574C104.411 22.9893 104.292 23.0213 104.14 23.0533C103.987 23.0888 103.794 23.1065 103.559 23.1065C103.204 23.1065 102.856 23.0302 102.515 22.8775C102.178 22.7248 101.897 22.4922 101.673 22.1797C101.453 21.8672 101.343 21.473 101.343 20.9972V12.858ZM109.581 23.1705C108.793 23.1705 108.113 22.9964 107.541 22.6484C106.973 22.2969 106.534 21.8068 106.225 21.1783C105.92 20.5462 105.767 19.8111 105.767 18.973C105.767 18.1349 105.92 17.3963 106.225 16.7571C106.534 16.1143 106.964 15.6136 107.514 15.255C108.068 14.8928 108.714 14.7116 109.453 14.7116C109.879 14.7116 110.3 14.7827 110.716 14.9247C111.131 15.0668 111.509 15.2976 111.85 15.6172C112.191 15.9332 112.463 16.3523 112.665 16.8743C112.868 17.3963 112.969 18.0391 112.969 18.8026V19.3352H106.662V18.2486H111.69C111.69 17.7869 111.598 17.375 111.413 17.0128C111.232 16.6506 110.973 16.3647 110.636 16.1552C110.302 15.9457 109.908 15.8409 109.453 15.8409C108.952 15.8409 108.519 15.9652 108.153 16.2138C107.791 16.4588 107.512 16.7784 107.317 17.1726C107.122 17.5668 107.024 17.9893 107.024 18.4403V19.1648C107.024 19.7827 107.131 20.3065 107.344 20.7362C107.56 21.1623 107.86 21.4872 108.244 21.7109C108.627 21.9311 109.073 22.0412 109.581 22.0412C109.911 22.0412 110.21 21.995 110.476 21.9027C110.746 21.8068 110.978 21.6648 111.174 21.4766C111.369 21.2848 111.52 21.0469 111.626 20.7628L112.841 21.1037C112.713 21.5156 112.498 21.8778 112.196 22.1903C111.895 22.4993 111.522 22.7408 111.078 22.9148C110.634 23.0852 110.135 23.1705 109.581 23.1705ZM122.658 14.8182V15.8835H118.418V14.8182H122.658ZM119.654 12.858H120.911V20.6562C120.911 21.0114 120.962 21.2777 121.065 21.4553C121.172 21.6293 121.307 21.7464 121.47 21.8068C121.637 21.8636 121.813 21.892 121.998 21.892C122.136 21.892 122.25 21.8849 122.338 21.8707C122.427 21.853 122.498 21.8388 122.551 21.8281L122.807 22.9574C122.722 22.9893 122.603 23.0213 122.45 23.0533C122.298 23.0888 122.104 23.1065 121.87 23.1065C121.515 23.1065 121.167 23.0302 120.826 22.8775C120.488 22.7248 120.208 22.4922 119.984 22.1797C119.764 21.8672 119.654 21.473 119.654 20.9972V12.858ZM127.785 23.1705C127.046 23.1705 126.398 22.9947 125.841 22.6431C125.287 22.2915 124.854 21.7997 124.541 21.1676C124.232 20.5355 124.078 19.7969 124.078 18.9517C124.078 18.0994 124.232 17.3555 124.541 16.7198C124.854 16.0842 125.287 15.5906 125.841 15.239C126.398 14.8874 127.046 14.7116 127.785 14.7116C128.524 14.7116 129.17 14.8874 129.724 15.239C130.281 15.5906 130.715 16.0842 131.024 16.7198C131.336 17.3555 131.492 18.0994 131.492 18.9517C131.492 19.7969 131.336 20.5355 131.024 21.1676C130.715 21.7997 130.281 22.2915 129.724 22.6431C129.17 22.9947 128.524 23.1705 127.785 23.1705ZM127.785 22.0412C128.346 22.0412 128.808 21.8974 129.17 21.6097C129.532 21.3221 129.8 20.9439 129.974 20.4751C130.148 20.0064 130.235 19.4986 130.235 18.9517C130.235 18.4048 130.148 17.8952 129.974 17.4229C129.8 16.9506 129.532 16.5689 129.17 16.2777C128.808 15.9865 128.346 15.8409 127.785 15.8409C127.224 15.8409 126.762 15.9865 126.4 16.2777C126.038 16.5689 125.77 16.9506 125.596 17.4229C125.422 17.8952 125.335 18.4048 125.335 18.9517C125.335 19.4986 125.422 20.0064 125.596 20.4751C125.77 20.9439 126.038 21.3221 126.4 21.6097C126.762 21.8974 127.224 22.0412 127.785 22.0412ZM137.204 13.2628V12.0909H145.386V13.2628H141.955V23H140.634V13.2628H137.204ZM148.511 18.0781V23H147.254V12.0909H148.511V16.0966H148.618C148.809 15.674 149.097 15.3384 149.481 15.0898C149.868 14.8377 150.383 14.7116 151.025 14.7116C151.583 14.7116 152.071 14.8235 152.49 15.0472C152.909 15.2674 153.234 15.6065 153.465 16.0646C153.699 16.5192 153.817 17.098 153.817 17.8011V23H152.559V17.8864C152.559 17.2365 152.391 16.734 152.053 16.3789C151.72 16.0202 151.256 15.8409 150.663 15.8409C150.251 15.8409 149.882 15.9279 149.555 16.1019C149.232 16.2759 148.976 16.5298 148.788 16.8636C148.604 17.1974 148.511 17.6023 148.511 18.0781ZM156.116 23V14.8182H157.373V23H156.116ZM156.756 13.4545C156.511 13.4545 156.299 13.3711 156.122 13.2042C155.948 13.0373 155.861 12.8366 155.861 12.6023C155.861 12.3679 155.948 12.1673 156.122 12.0004C156.299 11.8335 156.511 11.75 156.756 11.75C157.001 11.75 157.21 11.8335 157.384 12.0004C157.562 12.1673 157.65 12.3679 157.65 12.6023C157.65 12.8366 157.562 13.0373 157.384 13.2042C157.21 13.3711 157.001 13.4545 156.756 13.4545ZM165.471 16.6506L164.342 16.9702C164.271 16.782 164.166 16.5991 164.028 16.4215C163.893 16.2404 163.708 16.0913 163.474 15.9741C163.24 15.8569 162.939 15.7983 162.574 15.7983C162.073 15.7983 161.656 15.9137 161.322 16.1445C160.992 16.3718 160.827 16.6612 160.827 17.0128C160.827 17.3253 160.94 17.5721 161.167 17.7532C161.395 17.9343 161.75 18.0852 162.233 18.206L163.447 18.5043C164.179 18.6818 164.724 18.9535 165.083 19.3192C165.441 19.6815 165.621 20.1484 165.621 20.7202C165.621 21.1889 165.486 21.608 165.216 21.9773C164.949 22.3466 164.577 22.6378 164.097 22.8509C163.618 23.0639 163.06 23.1705 162.425 23.1705C161.59 23.1705 160.899 22.9893 160.352 22.6271C159.806 22.2649 159.459 21.7358 159.314 21.0398L160.507 20.7415C160.621 21.1818 160.835 21.5121 161.151 21.7322C161.471 21.9524 161.888 22.0625 162.403 22.0625C162.989 22.0625 163.454 21.9382 163.799 21.6896C164.147 21.4375 164.321 21.1357 164.321 20.7841C164.321 20.5 164.221 20.2621 164.023 20.0703C163.824 19.875 163.518 19.7294 163.106 19.6335L161.743 19.3139C160.993 19.1364 160.443 18.8612 160.091 18.4883C159.743 18.1119 159.569 17.6413 159.569 17.0767C159.569 16.6151 159.699 16.2067 159.958 15.8516C160.221 15.4964 160.578 15.2177 161.029 15.0153C161.483 14.8129 161.998 14.7116 162.574 14.7116C163.383 14.7116 164.019 14.8892 164.481 15.2443C164.946 15.5994 165.276 16.0682 165.471 16.6506ZM172.35 12.0909L175.588 21.2741H175.716L178.955 12.0909H180.34L176.334 23H174.97L170.965 12.0909H172.35ZM184.537 23.1705C183.749 23.1705 183.069 22.9964 182.497 22.6484C181.929 22.2969 181.49 21.8068 181.181 21.1783C180.876 20.5462 180.723 19.8111 180.723 18.973C180.723 18.1349 180.876 17.3963 181.181 16.7571C181.49 16.1143 181.92 15.6136 182.47 15.255C183.024 14.8928 183.671 14.7116 184.409 14.7116C184.835 14.7116 185.256 14.7827 185.672 14.9247C186.087 15.0668 186.465 15.2976 186.806 15.6172C187.147 15.9332 187.419 16.3523 187.621 16.8743C187.824 17.3963 187.925 18.0391 187.925 18.8026V19.3352H181.618V18.2486H186.646C186.646 17.7869 186.554 17.375 186.369 17.0128C186.188 16.6506 185.929 16.3647 185.592 16.1552C185.258 15.9457 184.864 15.8409 184.409 15.8409C183.908 15.8409 183.475 15.9652 183.109 16.2138C182.747 16.4588 182.468 16.7784 182.273 17.1726C182.078 17.5668 181.98 17.9893 181.98 18.4403V19.1648C181.98 19.7827 182.087 20.3065 182.3 20.7362C182.516 21.1623 182.816 21.4872 183.2 21.7109C183.584 21.9311 184.029 22.0412 184.537 22.0412C184.867 22.0412 185.166 21.995 185.432 21.9027C185.702 21.8068 185.934 21.6648 186.13 21.4766C186.325 21.2848 186.476 21.0469 186.582 20.7628L187.797 21.1037C187.669 21.5156 187.454 21.8778 187.152 22.1903C186.851 22.4993 186.478 22.7408 186.034 22.9148C185.59 23.0852 185.091 23.1705 184.537 23.1705ZM189.837 23V14.8182H191.052V16.054H191.137C191.286 15.6491 191.556 15.3207 191.946 15.0685C192.337 14.8164 192.777 14.6903 193.267 14.6903C193.36 14.6903 193.475 14.6921 193.614 14.6957C193.752 14.6992 193.857 14.7045 193.928 14.7116V15.9901C193.885 15.9794 193.788 15.9634 193.635 15.9421C193.486 15.9173 193.328 15.9048 193.161 15.9048C192.763 15.9048 192.408 15.9883 192.096 16.1552C191.787 16.3185 191.542 16.5458 191.361 16.837C191.183 17.1246 191.094 17.4531 191.094 17.8224V23H189.837ZM201.214 16.6506L200.084 16.9702C200.013 16.782 199.909 16.5991 199.77 16.4215C199.635 16.2404 199.45 16.0913 199.216 15.9741C198.982 15.8569 198.682 15.7983 198.316 15.7983C197.815 15.7983 197.398 15.9137 197.064 16.1445C196.734 16.3718 196.569 16.6612 196.569 17.0128C196.569 17.3253 196.682 17.5721 196.91 17.7532C197.137 17.9343 197.492 18.0852 197.975 18.206L199.189 18.5043C199.921 18.6818 200.466 18.9535 200.825 19.3192C201.183 19.6815 201.363 20.1484 201.363 20.7202C201.363 21.1889 201.228 21.608 200.958 21.9773C200.692 22.3466 200.319 22.6378 199.839 22.8509C199.36 23.0639 198.802 23.1705 198.167 23.1705C197.332 23.1705 196.642 22.9893 196.095 22.6271C195.548 22.2649 195.202 21.7358 195.056 21.0398L196.249 20.7415C196.363 21.1818 196.578 21.5121 196.894 21.7322C197.213 21.9524 197.631 22.0625 198.145 22.0625C198.731 22.0625 199.197 21.9382 199.541 21.6896C199.889 21.4375 200.063 21.1357 200.063 20.7841C200.063 20.5 199.964 20.2621 199.765 20.0703C199.566 19.875 199.26 19.7294 198.849 19.6335L197.485 19.3139C196.736 19.1364 196.185 18.8612 195.834 18.4883C195.486 18.1119 195.312 17.6413 195.312 17.0767C195.312 16.6151 195.441 16.2067 195.7 15.8516C195.963 15.4964 196.32 15.2177 196.771 15.0153C197.226 14.8129 197.741 14.7116 198.316 14.7116C199.126 14.7116 199.761 14.8892 200.223 15.2443C200.688 15.5994 201.018 16.0682 201.214 16.6506ZM203.255 23V14.8182H204.512V23H203.255ZM203.894 13.4545C203.649 13.4545 203.438 13.3711 203.26 13.2042C203.086 13.0373 202.999 12.8366 202.999 12.6023C202.999 12.3679 203.086 12.1673 203.26 12.0004C203.438 11.8335 203.649 11.75 203.894 11.75C204.139 11.75 204.349 11.8335 204.523 12.0004C204.7 12.1673 204.789 12.3679 204.789 12.6023C204.789 12.8366 204.7 13.0373 204.523 13.2042C204.349 13.3711 204.139 13.4545 203.894 13.4545ZM210.138 23.1705C209.4 23.1705 208.752 22.9947 208.194 22.6431C207.64 22.2915 207.207 21.7997 206.895 21.1676C206.586 20.5355 206.431 19.7969 206.431 18.9517C206.431 18.0994 206.586 17.3555 206.895 16.7198C207.207 16.0842 207.64 15.5906 208.194 15.239C208.752 14.8874 209.4 14.7116 210.138 14.7116C210.877 14.7116 211.523 14.8874 212.077 15.239C212.635 15.5906 213.068 16.0842 213.377 16.7198C213.69 17.3555 213.846 18.0994 213.846 18.9517C213.846 19.7969 213.69 20.5355 213.377 21.1676C213.068 21.7997 212.635 22.2915 212.077 22.6431C211.523 22.9947 210.877 23.1705 210.138 23.1705ZM210.138 22.0412C210.7 22.0412 211.161 21.8974 211.523 21.6097C211.886 21.3221 212.154 20.9439 212.328 20.4751C212.502 20.0064 212.589 19.4986 212.589 18.9517C212.589 18.4048 212.502 17.8952 212.328 17.4229C212.154 16.9506 211.886 16.5689 211.523 16.2777C211.161 15.9865 210.7 15.8409 210.138 15.8409C209.577 15.8409 209.116 15.9865 208.754 16.2777C208.391 16.5689 208.123 16.9506 207.949 17.4229C207.775 17.8952 207.688 18.4048 207.688 18.9517C207.688 19.4986 207.775 20.0064 207.949 20.4751C208.123 20.9439 208.391 21.3221 208.754 21.6097C209.116 21.8974 209.577 22.0412 210.138 22.0412ZM217.022 18.0781V23H215.765V14.8182H216.979V16.0966H217.086C217.278 15.6811 217.569 15.3473 217.959 15.0952C218.35 14.8395 218.854 14.7116 219.472 14.7116C220.026 14.7116 220.511 14.8253 220.926 15.0526C221.342 15.2763 221.665 15.6172 221.896 16.0753C222.127 16.5298 222.242 17.1051 222.242 17.8011V23H220.985V17.8864C220.985 17.2436 220.818 16.7429 220.484 16.3842C220.15 16.022 219.692 15.8409 219.11 15.8409C218.709 15.8409 218.35 15.9279 218.034 16.1019C217.722 16.2759 217.475 16.5298 217.294 16.8636C217.112 17.1974 217.022 17.6023 217.022 18.0781Z" fill="white"/>
</svg>
