<?xml version="1.0" encoding="UTF-8"?>
<svg xmlns="http://www.w3.org/2000/svg" version="1.1" viewBox="0 0 604 210">
  <!-- Generator: Adobe Illustrator 28.7.2, SVG Export Plug-In . SVG Version: 1.2.0 Build 154)  -->
  <g>
    <g id="_圖層_1" data-name="圖層_1">
      <g>
        <g>
          <path fill="#fff" d="M202.6,63.7c-11.1,0-20.1,9-20.1,20.1s9,20.1,20.1,20.1,20.1-9,20.1-20.1-9-20.1-20.1-20.1ZM202.6,97.8c-7.7,0-14-6.3-14-14s6.3-14,14-14,14,6.3,14,14-6.3,14-14,14Z"/>
          <polygon fill="#fff" points="94.9 48.7 75.6 95.9 75.6 95.9 56.3 48.7 52.1 48.7 48 48.7 71.6 103.9 75.6 103.9 79.6 103.9 103.2 48.7 99 48.7 94.9 48.7"/>
          <rect fill="#fff" x="109.3" y="48.7" width="6.8" height="6.8"/>
          <polygon fill="#fff" points="319 48.7 299.7 95.9 299.7 95.9 280.4 48.7 276.2 48.7 272.1 48.7 295.7 103.9 299.7 103.9 303.7 103.9 327.3 48.7 323.1 48.7 319 48.7"/>
          <polygon fill="#fff" points="333.4 63.7 333.4 103.9 336.8 103.9 340.1 103.9 340.1 63.7 336.8 63.7 333.4 63.7"/>
          <rect fill="#fff" x="333.4" y="48.7" width="6.8" height="6.8"/>
          <polygon fill="#fff" points="109.3 63.7 109.3 103.9 112.7 103.9 116 103.9 116 63.7 112.7 63.7 109.3 63.7"/>
          <polygon fill="#fff" points="160.1 69 160.1 66.3 160.1 63.7 125.3 63.7 125.3 66.5 125.3 69.3 151.1 69.3 123.5 98.6 123.5 101.2 123.5 103.9 160.7 103.9 160.7 101 160.7 98.2 132.5 98.2 160.1 69"/>
          <polygon fill="#fff" points="168.2 63.7 168.2 103.9 171.6 103.9 175 103.9 175 63.7 171.6 63.7 168.2 63.7"/>
          <rect fill="#fff" x="168.2" y="48.7" width="6.8" height="6.8"/>
          <path fill="#fff" d="M367.7,63.7c-11.1,0-20.1,9-20.1,20.1s9,20.1,20.1,20.1,15.3-4.9,18.4-12h-7c-2.5,3.6-6.7,5.9-11.4,5.9-7.3,0-13.2-5.6-13.8-12.7h30.1s3.7,0,3.7,0c0-.4,0-.9,0-1.3,0-11.1-9-20.1-20.1-20.1ZM354.9,78.3c2.1-5,7.1-8.5,12.9-8.5s10.7,3.5,12.9,8.5h-25.7Z"/>
          <path fill="#fff" d="M476.9,63.7c-11.1,0-20.1,9-20.1,20.1s9,20.1,20.1,20.1,15.3-4.9,18.4-12h-7c-2.5,3.6-6.7,5.9-11.4,5.9-7.3,0-13.2-5.6-13.8-12.7h30.1s3.7,0,3.7,0c0-.4,0-.9,0-1.3,0-11.1-9-20.1-20.1-20.1ZM464,78.3c2.1-5,7.1-8.5,12.9-8.5s10.7,3.5,12.9,8.5h-25.7Z"/>
          <polygon fill="#fff" points="445.6 63.7 435.9 95.9 435.9 95.9 426.4 63.7 418.8 63.7 418.8 63.8 409.4 95.8 409.4 95.8 399.7 63.7 391.7 63.7 405.3 103.8 409.3 103.8 413.3 103.8 422.6 76.1 431.8 103.9 435.9 103.9 439.9 103.9 453.5 63.7 445.6 63.7"/>
          <path fill="#fff" d="M251.1,63.6h-5.9c-3.1,0-6,.8-8.5,2.2v-2.1h-6.8v40.1h6.8v-29.2c1.9-2.6,5-4.2,8.5-4.2h5.9c5.9,0,10.7,4.8,10.7,10.7v22.8h6.7v-22.8c0-9.6-7.8-17.4-17.4-17.4Z"/>
          <path fill="#fff" d="M524.1,63.6h-3.3c-3.1,0-7.6.7-10.2,3.1v-3.1h-6.8v40.1h6.8v-29.2c1.4-3.8,6.8-4.2,10.2-4.2h3.3v-6.7Z"/>
        </g>
        <g>
          <path fill="#fff" d="M534.8,57.1v-12.1h-4.3v-2.5h11.6v2.5h-4.3v12.1h-2.9Z"/>
          <path fill="#fff" d="M543.9,57.1v-14.6h4.4l2.6,10,2.6-10h4.4v14.6h-2.7v-11.5l-2.9,11.5h-2.8l-2.9-11.5v11.5h-2.7Z"/>
        </g>
      </g>
      <g>
        <path fill="#fff" d="M51.8,136.8c1.7-.4,3.9-.6,6.2-.6,3.8,0,6.4.8,8.1,2.5,1.2,1.3,1.9,2.9,1.9,5.1,0,3.2-2.2,5.8-5.3,6.9h0c2.6.7,6.5,2.9,6.5,8s-.9,4.4-2.3,5.9c-2,2.1-5.4,2.9-9.7,2.9s-4.2-.2-5.4-.3v-30.4ZM53.9,149.9h4.5c4.4,0,7.2-2.6,7.2-6s-3.2-5.9-7.8-5.9-3.2.1-3.9.3v11.6ZM53.9,165.4c.9.2,2.2.2,3.8.2,4.7,0,9.2-1.7,9.2-7s-4.2-7-9.1-7h-3.9v13.7Z"/>
        <path fill="#fff" d="M92.3,161.9c0,1.9,0,3.7.2,5.4h-2v-3.9h-.2c-1.1,2-3.6,4.4-7.6,4.4s-7.5-1.4-7.5-9.7v-12.8h2.2v12.4c0,4.8,1.5,8.2,5.9,8.2s5.5-2.2,6.5-4.4c.2-.7.5-1.6.5-2.4v-13.7h2.2v16.6Z"/>
        <path fill="#fff" d="M103.1,139c0,1-.7,1.9-1.8,1.9s-1.7-.9-1.7-1.9.8-1.9,1.8-1.9,1.7.9,1.7,1.9ZM100.3,167.2v-22h2.2v22h-2.2Z"/>
        <path fill="#fff" d="M110.5,134.7h2.2v32.5h-2.2v-32.5Z"/>
        <path fill="#fff" d="M123.8,138.9v6.4h6.3v1.7h-6.3v14.3c0,2.8.9,4.6,3.2,4.6s2-.2,2.5-.4l.3,1.7c-.7.3-1.7.5-3.1.5s-2.9-.5-3.8-1.6c-1-1.1-1.4-3-1.4-5.2v-13.9h-3.7v-1.7h3.7v-5.7l2.2-.7Z"/>
        <path fill="#fff" d="M164.9,156c0,8.2-5.6,11.7-10.5,11.7s-10.1-4.4-10.1-11.3,4.9-11.7,10.4-11.7,10.2,4.5,10.2,11.3ZM146.5,156.3c0,5.5,3.5,9.6,8,9.6s8.2-4.1,8.2-9.7-2.3-9.6-8.1-9.6-8.1,5-8.1,9.7Z"/>
        <path fill="#fff" d="M171.1,150.5c0-2,0-3.5-.2-5.3h2l.2,4h0c1.2-2.5,3.9-4.5,7.6-4.5s7.6,1.1,7.6,9.3v13.2h-2.2v-13c0-4-1.6-7.6-6.1-7.6s-5.7,2.2-6.6,5c-.2.5-.3,1.3-.3,2v13.6h-2.2v-16.7Z"/>
        <path fill="#fff" d="M213.3,167.2l-10.3-30.8h2.3l5.4,16.5c1.5,4.5,2.7,8.4,3.6,11.8h.1c.9-3.5,2.3-7.5,3.9-11.8l6-16.5h2.3l-11.4,30.8h-2.1Z"/>
        <path fill="#fff" d="M233.5,139c0,1-.7,1.9-1.8,1.9s-1.7-.9-1.7-1.9.8-1.9,1.8-1.9,1.7.9,1.7,1.9ZM230.7,167.2v-22h2.2v22h-2.2Z"/>
        <path fill="#fff" d="M237.9,165.9l11.8-15.6c.8-1.1,1.6-2.1,2.5-3.2h0c0,0-13.4,0-13.4,0v-1.8h16v1.5s-11.9,15.6-11.9,15.6c-.8,1.1-1.6,2-2.3,3.1h0c0,0,14.2,0,14.2,0v1.8h-17v-1.3Z"/>
        <path fill="#fff" d="M262.7,139c0,1-.7,1.9-1.8,1.9s-1.7-.9-1.7-1.9.8-1.9,1.8-1.9,1.7.9,1.7,1.9ZM259.9,167.2v-22h2.2v22h-2.2Z"/>
        <path fill="#fff" d="M288.8,156c0,8.2-5.6,11.7-10.5,11.7s-10.1-4.4-10.1-11.3,4.9-11.7,10.4-11.7,10.2,4.5,10.2,11.3ZM270.4,156.3c0,5.5,3.5,9.6,8,9.6s8.2-4.1,8.2-9.7-2.3-9.6-8.1-9.6-8.1,5-8.1,9.7Z"/>
        <path fill="#fff" d="M295,150.5c0-2,0-3.5-.2-5.3h2l.2,4h0c1.2-2.5,3.9-4.5,7.6-4.5s7.6,1.1,7.6,9.3v13.2h-2.2v-13c0-4-1.6-7.6-6.1-7.6s-5.7,2.2-6.6,5c-.2.5-.3,1.3-.3,2v13.6h-2.2v-16.7Z"/>
        <path fill="#fff" d="M319.1,163.8c1.7,1.2,4.2,2.1,6.8,2.1,4.6,0,7.4-2.6,7.4-6.4s-1.8-5.5-6.2-7.2c-5-1.7-8-4.3-8-8.5s3.8-7.8,9-7.8,5.1.8,6.1,1.5l-.8,1.8c-.8-.6-2.8-1.5-5.4-1.5-5,0-6.7,3.2-6.7,5.6,0,3.4,2,5.2,6.4,6.9,5.1,2.1,7.8,4.3,7.8,9s-3.2,8.5-9.8,8.5-5.8-.9-7.4-2.1l.8-1.8Z"/>
        <path fill="#fff" d="M342,136.8c2.3-.4,5-.6,7.9-.6,5.6,0,9.9,1.5,12.4,4.2,2.5,2.6,3.8,6,3.8,10.7s-1.2,8.6-4,11.7c-2.7,3-7.4,4.7-13.3,4.7s-4.6,0-6.8-.3v-30.4ZM344.1,165.4c1.3.2,3.1.2,5,.2,9.9,0,14.8-5.5,14.8-14.5,0-7.8-4.3-13.2-14.2-13.2s-4.3.2-5.6.5v27Z"/>
        <path fill="#fff" d="M372.2,136.4h2.2v15.6h.2c.9-1.2,1.8-2.2,2.6-3.2l10.9-12.4h2.7l-11.8,13.1,12.9,17.8h-2.7l-11.7-16.2-3.2,3.5v12.8h-2.2v-30.8Z"/>
      </g>
    </g>
  </g>
</svg>