<svg width="69" height="69" viewBox="0 0 69 69" fill="none" xmlns="http://www.w3.org/2000/svg">
<path d="M37.3272 22.4122L37.3272 41.5493L32.0197 41.5493L32.0197 22.4122L37.3272 22.4122ZM34.661 44.0162C35.4501 44.0162 36.127 44.2779 36.6918 44.8012C37.2483 45.3327 37.5266 45.9682 37.5266 46.7074C37.5266 47.4383 37.2483 48.0654 36.6918 48.5887C36.127 49.1203 35.4501 49.3861 34.661 49.3861C33.8719 49.3861 33.1991 49.1203 32.6426 48.5887C32.0778 48.0654 31.7954 47.4383 31.7954 46.7074C31.7954 45.9682 32.0778 45.3327 32.6426 44.8012C33.1991 44.2779 33.8719 44.0162 34.661 44.0162Z" fill="#F46223"/>
<path fill-rule="evenodd" clip-rule="evenodd" d="M34.5 63.6923C18.5769 63.6923 5.30762 50.423 5.30762 34.4999C5.30762 18.5769 18.5769 5.3076 34.5 5.3076C50.4231 5.3076 63.6924 18.5769 63.6924 34.4999C63.6924 50.423 50.4231 63.6923 34.5 63.6923ZM34.5 69C53.5193 69 69 53.5192 69 34.4999C69 15.4807 53.5193 -1.39054e-05 34.5 -1.22427e-05C15.4807 -1.058e-05 -4.67881e-06 15.4807 -3.01609e-06 34.4999C-1.35338e-06 53.5192 15.4807 69 34.5 69Z" fill="#F46223"/>
</svg>
