<svg width="33" height="32" viewBox="0 0 33 32" fill="none" xmlns="http://www.w3.org/2000/svg">
<path d="M9.53654 30.0192H2.92759C2.46991 30.0192 2.10375 29.659 2.10375 29.2089V22.708H0.694092V29.2089C0.694092 30.4154 1.701 31.4058 2.92759 31.4058H9.53654V30.0192Z" fill="#F56323" stroke="#F56323" stroke-width="0.5"/>
<path d="M30.5898 22.708V29.2089C30.5898 29.659 30.2236 30.0192 29.7659 30.0192H23.157V31.4058H29.7659C30.9925 31.4058 31.9994 30.4154 31.9994 29.2089V22.708H30.5898Z" fill="#F56323" stroke="#F56323" stroke-width="0.5"/>
<path d="M2.10375 9.31011V2.80927C2.10375 2.35907 2.46991 1.99891 2.92759 1.99891H9.53654V0.612305H2.92759C1.701 0.612305 0.694092 1.60274 0.694092 2.80927V9.31011H2.10375Z" fill="#F56323" stroke="#F56323" stroke-width="0.5"/>
<path d="M23.157 1.99891H29.7659C30.2236 1.99891 30.5898 2.35907 30.5898 2.80927V9.31011H31.9994V2.80927C31.9994 1.60274 30.9925 0.612305 29.7659 0.612305H23.157V1.99891Z" fill="#F56323" stroke="#F56323" stroke-width="0.5"/>
<path d="M15.7614 21.4118C19.1586 21.4118 21.9127 18.7029 21.9127 15.3612C21.9127 12.0195 19.1586 9.31055 15.7614 9.31055C12.3641 9.31055 9.61011 12.0195 9.61011 15.3612C9.61011 18.7029 12.3641 21.4118 15.7614 21.4118Z" stroke="#F56323" stroke-width="2" stroke-linecap="round" stroke-linejoin="round"/>
<path d="M20.7593 20.2593L23.6518 23.1046" stroke="#F56323" stroke-width="2" stroke-linecap="round" stroke-linejoin="round"/>
</svg>
