<svg width="22" height="22" viewBox="0 0 22 22" fill="none" xmlns="http://www.w3.org/2000/svg">
<path fill-rule="evenodd" clip-rule="evenodd" d="M11.0001 1.65006C16.1559 1.65006 20.3501 5.84428 20.3501 11C20.3501 16.1558 16.1559 20.3499 11.0001 20.3499C5.84429 20.3499 1.64989 16.1558 1.64989 11C1.64989 5.84428 5.84429 1.65006 11.0001 1.65006ZM11.0001 0C4.9248 0 0 4.92534 0 11C0 17.0754 4.9248 22 11.0001 22C17.0748 22 21.9998 17.0754 21.9998 11C21.9998 4.92534 17.0748 0 11.0001 0Z" fill="#686F7F"/>
<path fill-rule="evenodd" clip-rule="evenodd" d="M17 10.9999C17 14.3136 14.3137 17 10.9999 17C7.68623 17 5 14.3136 5 10.9999C5 7.68622 7.68623 5 10.9999 5C14.3137 5 17 7.68622 17 10.9999Z" fill="#686F7F"/>
</svg>
