<svg width="37" height="37" viewBox="0 0 37 37" fill="none" xmlns="http://www.w3.org/2000/svg">
<path d="M11.1899 20.8679C12.0471 24.3838 15.1718 27 18.9187 27C22.3061 27 25.1957 24.8545 26.3433 21.823" stroke="#BCCCD8" stroke-width="1.5" stroke-linecap="round" stroke-linejoin="round"/>
<path fill-rule="evenodd" clip-rule="evenodd" d="M10.2501 19.9681L10.0012 23.3317C9.97358 23.7608 10.4022 24.0515 10.7893 23.8716L13.831 22.4043C14.2182 22.2244 14.2458 21.6984 13.9002 21.4492L11.1211 19.5528C10.7755 19.3175 10.2916 19.5528 10.2639 19.9681L10.2501 19.9681Z" fill="#BCCCD8"/>
<path d="M26.7813 16.9426C25.9241 13.4267 22.7994 10.8105 19.0525 10.8105C15.6651 10.8105 12.7755 12.9561 11.6279 15.9875" stroke="#BCCCD8" stroke-width="1.5" stroke-linecap="round" stroke-linejoin="round"/>
<path fill-rule="evenodd" clip-rule="evenodd" d="M27.7216 17.8424L27.9704 14.4788C27.9981 14.0497 27.5695 13.759 27.1824 13.939L24.1406 15.4062C23.7535 15.5862 23.7259 16.1122 24.0715 16.3613L26.8505 18.2577C27.1962 18.493 27.6801 18.2577 27.7078 17.8424H27.7216Z" fill="#BCCCD8"/>
</svg>
